<svg xmlns="http://www.w3.org/2000/svg" xmlns:xlink="http://www.w3.org/1999/xlink" width="484" zoomAndPan="magnify" viewBox="0 0 363 362.999992" height="484" preserveAspectRatio="xMidYMid meet" version="1.0"><defs><g/></defs><path fill="#7fa1c3" d="M 315.050781 219.21875 C 304.65625 206.5625 281.601562 214.695312 270.753906 202.492188 C 263.070312 194.355469 265.78125 180.34375 272.5625 171.304688 C 279.34375 162.265625 289.285156 156.386719 297.421875 148.703125 C 303.300781 143.277344 308.273438 136.046875 309.175781 128.363281 C 310.53125 120.226562 306.914062 111.1875 299.683594 108.023438 C 294.710938 105.761719 288.382812 106.214844 282.957031 107.570312 C 267.589844 110.734375 250.414062 114.800781 238.210938 105.308594 C 220.128906 90.847656 225.101562 61.011719 210.183594 44.289062 C 209.734375 43.835938 209.28125 43.386719 208.828125 42.933594 C 189.394531 23.949219 176.285156 48.355469 167.695312 66.4375 C 165.886719 70.503906 164.078125 74.574219 162.722656 77.285156 C 149.617188 103.503906 120.6875 94.460938 103.058594 77.738281 C 96.277344 71.410156 89.046875 64.628906 80.007812 61.917969 C 70.964844 59.207031 59.664062 62.371094 56.050781 70.957031 C 48.816406 87.683594 68.253906 104.859375 73.226562 118.871094 C 76.84375 128.816406 77.746094 141.019531 72.320312 150.511719 C 64.636719 164.523438 47.460938 169.949219 33.449219 177.632812 C 19.886719 185.316406 7.683594 197.519531 4.066406 212.890625 C 0.453125 228.257812 7.230469 246.335938 21.695312 252.664062 C 39.324219 259.898438 60.117188 248.597656 77.746094 255.828125 C 90.855469 261.253906 98.085938 275.265625 102.15625 288.828125 C 105.769531 302.386719 107.578125 316.851562 114.8125 329.507812 C 121.589844 341.710938 136.507812 351.65625 150.066406 346.683594 C 153.683594 345.328125 156.394531 343.519531 159.109375 340.808594 C 163.175781 336.738281 166.339844 330.863281 168.148438 325.441406 C 171.3125 316.398438 173.121094 306.90625 177.1875 297.867188 C 192.105469 267.582031 225.101562 267.582031 253.125 271.199219 C 272.109375 273.457031 292 267.582031 306.011719 254.925781 C 316.40625 245.433594 323.640625 229.613281 315.050781 219.21875 Z M 306.914062 44.742188 C 303.300781 40.671875 298.328125 38.414062 292.902344 38.414062 C 289.285156 38.414062 285.671875 38.863281 282.054688 40.222656 C 280.699219 40.671875 278.890625 41.125 277.535156 42.027344 C 263.070312 48.808594 244.988281 67.792969 247.25 84.96875 C 247.703125 86.777344 248.152344 89.039062 249.960938 89.941406 C 251.769531 90.847656 254.480469 89.941406 256.289062 89.039062 C 256.742188 89.039062 257.195312 88.585938 257.644531 88.585938 C 274.371094 81.355469 299.683594 84.96875 308.722656 65.535156 C 311.886719 58.753906 311.4375 50.164062 306.914062 44.742188 Z M 49.722656 126.554688 C 48.363281 124.746094 47.007812 123.390625 45.199219 121.582031 C 37.96875 115.707031 28.476562 112.089844 19.4375 112.542969 C 14.917969 112.542969 9.945312 113.898438 6.328125 116.609375 C 2.710938 119.324219 0.453125 124.292969 0.902344 128.816406 C 1.808594 133.785156 5.875 136.949219 10.847656 138.308594 C 12.65625 138.757812 14.917969 139.210938 16.722656 139.210938 C 23.503906 139.210938 30.285156 136.949219 37.066406 136.5 C 40.679688 136.5 49.722656 139.210938 52.433594 136.949219 C 55.144531 134.691406 51.527344 128.816406 49.722656 126.554688 Z M 258.550781 331.769531 C 258.097656 328.605469 257.644531 325.890625 256.289062 322.726562 C 255.839844 321.824219 255.386719 321.371094 255.386719 320.46875 C 249.960938 310.523438 240.921875 303.292969 230.976562 298.320312 C 228.265625 296.964844 216.0625 291.539062 209.28125 292.441406 C 206.570312 292.894531 204.761719 293.800781 204.761719 296.511719 C 204.761719 297.414062 205.214844 298.320312 205.664062 299.222656 C 209.734375 308.261719 212.898438 315.496094 213.347656 325.441406 C 213.800781 334.027344 212.445312 343.519531 217.417969 351.203125 C 221.9375 357.984375 230.527344 362.050781 239.113281 360.246094 C 252.675781 357.984375 259.90625 344.875 258.550781 331.769531 Z M 65.089844 272.101562 C 64.1875 272.101562 63.734375 272.101562 62.828125 272.554688 C 61.023438 273.007812 59.664062 273.457031 57.855469 273.910156 C 53.335938 275.265625 48.816406 277.527344 44.75 280.238281 C 36.613281 285.664062 29.832031 292.894531 25.3125 301.03125 C 21.695312 307.8125 19.4375 315.496094 21.246094 322.726562 C 22.601562 329.960938 28.476562 336.738281 36.160156 337.644531 C 37.066406 337.644531 37.96875 337.644531 38.871094 337.644531 C 46.558594 337.191406 53.335938 330.863281 56.050781 323.632812 C 59.664062 315.496094 59.664062 306.457031 60.117188 297.867188 C 61.023438 289.277344 62.828125 279.785156 68.707031 273.457031 C 70.964844 272.101562 65.089844 272.101562 65.089844 272.101562 Z M 141.027344 66.4375 C 140.574219 65.082031 140.125 63.273438 139.21875 61.917969 C 136.960938 55.589844 136.054688 48.355469 136.507812 41.578125 C 136.960938 34.796875 139.21875 28.015625 138.765625 21.234375 C 138.765625 14.457031 135.601562 6.773438 129.273438 4.058594 C 121.589844 0.894531 112.550781 6.320312 109.386719 14.003906 C 106.222656 21.6875 107.578125 30.277344 110.742188 37.960938 C 114.8125 48.808594 123.851562 63.726562 135.152344 69.148438 C 141.027344 70.957031 141.929688 69.601562 141.027344 66.4375 Z M 362.511719 187.125 C 362.0625 183.507812 359.800781 179.890625 357.539062 176.726562 C 357.539062 176.726562 357.089844 176.277344 357.089844 176.277344 C 353.019531 170.851562 347.144531 166.332031 340.363281 164.070312 C 331.324219 161.359375 321.832031 162.714844 313.242188 165.878906 C 308.722656 167.6875 281.152344 180.34375 289.738281 186.671875 C 291.09375 187.578125 292.902344 188.027344 294.257812 188.027344 C 295.164062 188.027344 296.519531 188.027344 297.875 188.027344 C 308.273438 188.480469 318.667969 190.742188 328.160156 195.261719 C 333.132812 197.519531 338.105469 200.683594 343.527344 202.039062 C 348.953125 203.398438 355.28125 202.492188 359.347656 198.425781 C 362.0625 195.710938 362.964844 191.191406 362.511719 187.125 Z M 362.511719 187.125 " fill-opacity="1" fill-rule="nonzero"/><path fill="#7fa1c3" d="M 210.183594 44.289062 C 206.117188 43.386719 201.144531 43.835938 197.527344 46.097656 C 189.84375 50.617188 185.777344 59.207031 183.515625 67.792969 C 181.257812 76.382812 179.898438 85.421875 176.285156 93.558594 C 168.148438 109.378906 147.808594 118.417969 130.632812 113.898438 C 122.496094 111.636719 112.550781 107.117188 105.769531 112.542969 C 99.441406 117.964844 102.15625 127.910156 103.511719 136.046875 C 105.320312 149.15625 102.15625 163.167969 94.921875 173.5625 C 88.140625 183.054688 77.746094 192.546875 80.007812 203.847656 C 82.265625 214.246094 93.566406 219.21875 101.703125 225.996094 C 113.90625 236.394531 118.878906 253.117188 120.234375 268.9375 C 122.042969 284.757812 120.6875 301.03125 123.851562 316.398438 C 125.207031 324.082031 127.917969 331.769531 133.34375 337.644531 C 138.765625 343.519531 147.355469 346.230469 154.585938 343.066406 C 155.945312 342.617188 157.300781 341.710938 158.65625 340.355469 C 156.394531 343.066406 153.230469 344.875 149.617188 346.230469 C 136.054688 351.203125 121.589844 341.710938 114.359375 329.054688 C 107.578125 316.851562 105.769531 302.386719 101.703125 288.375 C 97.632812 274.8125 90.402344 260.800781 77.292969 255.378906 C 59.664062 248.144531 38.421875 259.898438 21.246094 252.214844 C 6.78125 245.886719 0 227.804688 3.617188 212.4375 C 7.230469 197.070312 19.4375 184.863281 32.996094 177.179688 C 47.007812 169.496094 64.1875 164.070312 71.871094 150.058594 C 76.84375 140.566406 76.390625 128.816406 72.773438 118.417969 C 67.800781 104.40625 48.363281 87.230469 55.597656 70.503906 C 59.214844 61.917969 70.515625 58.753906 79.554688 61.464844 C 88.59375 64.175781 95.828125 70.503906 102.605469 77.285156 C 120.234375 94.011719 149.164062 103.503906 162.273438 76.832031 C 163.628906 74.121094 165.4375 70.054688 167.242188 65.984375 C 175.832031 47.90625 188.941406 23.949219 208.378906 42.480469 C 209.28125 43.386719 209.734375 43.835938 210.183594 44.289062 Z M 141.027344 66.4375 C 140.125 65.082031 139.21875 64.175781 138.765625 62.820312 C 130.179688 52.425781 122.945312 40.222656 122.042969 27.113281 C 121.589844 18.523438 124.304688 9.9375 129.726562 3.609375 C 122.042969 0.445312 113.003906 5.867188 109.839844 13.550781 C 106.675781 21.234375 108.03125 29.824219 111.195312 37.507812 C 115.261719 48.355469 124.304688 63.273438 135.601562 68.699219 C 141.027344 70.957031 141.929688 69.601562 141.027344 66.4375 Z M 19.4375 112.996094 C 14.917969 112.996094 9.945312 114.351562 6.328125 117.0625 C 2.710938 119.773438 0.453125 124.746094 0.902344 129.265625 C 1.808594 134.238281 5.875 137.402344 10.847656 138.757812 C 12.65625 135.59375 13.558594 131.980469 15.820312 129.265625 C 19.4375 123.390625 27.121094 120.226562 33.902344 119.773438 C 37.515625 119.773438 41.585938 121.128906 45.199219 122.035156 C 37.96875 116.160156 28.476562 112.542969 19.4375 112.996094 Z M 58.308594 273.910156 C 53.789062 275.265625 49.269531 277.527344 45.199219 280.238281 C 37.066406 285.664062 30.285156 292.894531 25.765625 301.03125 C 22.148438 307.8125 19.886719 315.496094 21.695312 322.726562 C 23.050781 329.960938 28.929688 336.738281 36.613281 337.644531 C 37.515625 337.644531 38.421875 337.644531 39.324219 337.644531 C 34.804688 325.441406 35.257812 310.976562 40.679688 299.222656 C 44.75 289.730469 51.527344 284.308594 58.761719 277.527344 C 61.023438 275.71875 62.378906 273.457031 63.28125 272.101562 C 61.472656 273.007812 59.664062 273.457031 58.308594 273.910156 Z M 258.550781 331.769531 C 257.195312 335.382812 254.933594 339 252.222656 342.164062 C 245.441406 349.394531 232.332031 351.65625 225.554688 344.425781 C 216.964844 335.382812 223.292969 320.015625 216.964844 309.167969 C 214.707031 304.648438 210.183594 301.484375 208.828125 296.511719 C 208.378906 295.605469 208.828125 294.25 208.828125 292.441406 C 206.117188 292.894531 204.308594 293.800781 204.308594 296.511719 C 204.308594 297.414062 204.761719 298.320312 205.214844 299.222656 C 209.28125 308.261719 212.445312 315.496094 212.898438 325.441406 C 213.347656 334.027344 211.992188 343.519531 216.964844 351.203125 C 221.484375 357.984375 230.074219 362.050781 238.660156 360.246094 C 252.675781 357.984375 259.90625 344.875 258.550781 331.769531 Z M 357.089844 176.277344 C 353.019531 170.851562 347.144531 166.332031 340.363281 164.070312 C 331.324219 161.359375 321.832031 162.714844 313.242188 165.878906 C 308.722656 167.6875 281.152344 180.34375 289.738281 186.671875 C 291.09375 187.578125 292.902344 188.027344 294.257812 188.027344 C 305.109375 177.632812 320.023438 171.757812 334.941406 172.207031 C 342.625 172.207031 349.855469 174.015625 357.089844 177.179688 C 357.539062 176.277344 357.089844 176.277344 357.089844 176.277344 Z M 277.535156 41.578125 C 263.070312 48.355469 244.988281 67.339844 247.25 84.519531 C 247.703125 86.324219 248.152344 88.585938 249.960938 89.488281 C 251.769531 90.394531 254.480469 89.488281 256.289062 88.585938 C 256.742188 88.585938 257.195312 88.132812 257.644531 88.132812 C 259.003906 85.875 259.90625 82.710938 260.808594 79.996094 C 264.878906 66.890625 268.496094 53.328125 277.988281 43.386719 C 279.34375 42.027344 280.246094 41.125 281.601562 39.769531 C 280.246094 40.671875 278.890625 41.125 277.535156 41.578125 Z M 277.535156 41.578125 " fill-opacity="1" fill-rule="nonzero"/><path fill="#7fa1c3" d="M 240.019531 139.210938 C 237.304688 140.566406 234.59375 141.019531 230.976562 140.113281 C 228.71875 139.664062 226.457031 138.757812 224.648438 137.402344 C 220.582031 135.59375 216.964844 132.429688 214.253906 129.265625 C 211.089844 125.652344 208.828125 121.582031 207.472656 116.609375 C 207.019531 114.351562 206.570312 112.089844 206.570312 109.832031 C 206.570312 108.472656 206.570312 107.117188 207.019531 105.761719 C 207.472656 104.40625 208.378906 103.503906 208.828125 102.597656 C 210.183594 100.789062 212.898438 100.339844 214.253906 102.597656 C 214.253906 102.597656 215.15625 103.503906 214.707031 103.050781 C 215.15625 103.503906 215.609375 103.953125 216.0625 104.40625 C 216.511719 105.308594 216.964844 106.667969 217.417969 107.570312 C 217.871094 108.472656 217.871094 109.378906 218.320312 110.28125 C 218.320312 110.734375 218.773438 111.1875 218.773438 111.636719 C 218.773438 111.636719 218.773438 112.089844 219.226562 112.542969 C 219.226562 112.996094 219.675781 112.996094 219.675781 113.445312 C 219.675781 113.898438 220.128906 114.351562 220.128906 114.800781 C 220.582031 115.707031 221.035156 116.609375 221.484375 117.0625 C 221.9375 117.515625 222.390625 118.417969 222.839844 118.871094 C 222.839844 118.871094 223.292969 119.324219 223.292969 119.773438 C 223.746094 120.226562 223.746094 120.226562 224.199219 120.679688 C 224.648438 121.128906 225.554688 122.035156 226.003906 122.488281 C 226.003906 122.488281 226.910156 123.390625 226.910156 123.390625 C 226.910156 123.390625 226.457031 122.9375 226.457031 122.9375 C 226.910156 122.9375 226.910156 123.390625 227.363281 123.390625 C 228.71875 124.292969 230.527344 125.199219 231.882812 126.101562 C 232.332031 126.101562 232.785156 126.554688 232.785156 126.554688 C 234.140625 127.007812 235.496094 127.457031 236.402344 127.910156 C 236.402344 127.910156 235.949219 127.910156 235.949219 127.457031 C 236.402344 127.457031 236.855469 127.910156 237.304688 127.910156 C 237.757812 128.363281 238.210938 128.363281 238.660156 128.816406 C 238.210938 128.816406 240.921875 130.621094 239.566406 129.71875 C 240.019531 130.171875 240.46875 130.621094 241.375 131.074219 C 243.183594 133.785156 242.730469 138.308594 240.019531 139.210938 Z M 259.90625 127.910156 C 254.03125 127.910156 254.03125 136.949219 259.90625 136.949219 C 265.78125 136.949219 265.78125 127.910156 259.90625 127.910156 Z M 282.054688 235.039062 C 277.082031 232.777344 271.207031 237.296875 266.234375 238.652344 C 260.808594 240.007812 254.933594 240.460938 249.058594 240.914062 C 236.402344 241.367188 223.292969 240.460938 210.636719 243.171875 C 189.84375 247.695312 172.667969 260.800781 161.367188 278.429688 C 160.011719 280.691406 163.628906 283.855469 165.4375 281.59375 C 178.996094 265.320312 200.242188 254.023438 221.484375 252.664062 C 234.140625 252.214844 246.347656 254.023438 258.550781 252.664062 C 267.136719 251.761719 283.863281 249.953125 284.765625 239.105469 C 285.21875 237.296875 283.863281 235.941406 282.054688 235.039062 Z M 303.300781 228.710938 C 303.300781 227.804688 302.847656 227.351562 302.394531 226.902344 C 301.945312 226.449219 301.492188 225.996094 301.039062 225.996094 C 300.585938 225.546875 300.136719 225.546875 299.230469 225.546875 C 298.328125 225.546875 297.875 225.546875 296.972656 225.996094 C 296.519531 226.449219 296.066406 226.449219 295.613281 226.902344 C 295.164062 227.351562 295.164062 227.351562 295.164062 227.804688 C 295.164062 227.804688 295.164062 228.257812 294.710938 228.257812 C 294.710938 228.257812 294.710938 228.257812 294.710938 228.710938 C 294.710938 228.710938 294.710938 229.160156 294.257812 229.160156 C 294.257812 229.613281 294.257812 230.066406 293.808594 230.515625 C 293.808594 230.96875 293.808594 231.421875 293.808594 232.324219 C 293.808594 232.777344 293.808594 233.230469 294.257812 233.679688 L 294.710938 234.585938 C 295.164062 235.039062 295.613281 235.039062 296.066406 235.488281 C 296.519531 235.488281 296.519531 235.941406 296.972656 235.941406 C 297.421875 235.941406 297.875 235.941406 298.777344 235.941406 C 299.230469 235.941406 299.230469 235.488281 299.683594 235.488281 C 300.136719 235.039062 300.585938 234.585938 301.039062 234.132812 C 301.492188 233.230469 301.941406 232.777344 301.941406 231.875 C 301.941406 231.875 301.941406 231.421875 301.941406 231.421875 C 301.941406 231.421875 301.941406 231.421875 301.941406 230.96875 C 301.941406 230.515625 301.941406 230.066406 301.941406 229.160156 C 303.75 229.160156 303.75 229.160156 303.300781 228.710938 Z M 299.683594 55.136719 C 299.683594 56.042969 299.683594 56.945312 299.230469 57.847656 C 299.230469 58.300781 298.777344 59.207031 298.328125 59.65625 C 297.421875 60.5625 296.519531 61.464844 295.164062 61.917969 C 295.164062 61.917969 294.710938 61.917969 294.710938 61.917969 C 294.710938 61.917969 294.257812 61.917969 294.257812 61.917969 C 292.902344 62.371094 291.09375 61.917969 290.191406 61.011719 C 289.285156 60.109375 288.835938 59.207031 288.835938 57.847656 C 288.835938 56.945312 288.835938 56.042969 288.835938 55.589844 C 288.835938 55.589844 288.835938 55.136719 288.835938 55.136719 C 288.835938 55.136719 288.835938 54.683594 288.835938 54.683594 C 288.835938 54.683594 288.835938 54.234375 288.835938 54.234375 C 288.835938 53.78125 288.835938 53.328125 288.382812 53.328125 C 288.382812 53.328125 288.382812 53.78125 288.835938 53.78125 C 288.835938 53.328125 288.382812 52.878906 288.382812 52.425781 C 288.382812 51.972656 287.929688 51.519531 287.929688 51.070312 C 287.929688 51.070312 287.929688 51.070312 287.929688 50.617188 C 287.929688 50.617188 287.929688 50.164062 287.929688 50.164062 C 287.480469 49.261719 287.480469 48.355469 287.929688 47.453125 C 288.382812 46.550781 288.835938 46.097656 289.738281 45.644531 C 291.546875 45.191406 293.355469 45.191406 294.710938 46.097656 C 295.613281 46.550781 296.066406 47 296.519531 47.453125 C 297.421875 48.355469 297.875 49.261719 298.328125 50.617188 C 299.683594 52.425781 300.136719 53.78125 299.683594 55.136719 Z M 133.796875 18.976562 C 133.796875 18.070312 133.34375 17.167969 133.34375 15.8125 C 133.34375 15.359375 132.890625 14.90625 132.4375 14.457031 C 131.988281 14.003906 131.535156 14.003906 131.082031 14.003906 C 130.632812 14.003906 130.179688 14.003906 129.726562 14.457031 C 129.273438 14.90625 128.824219 15.359375 128.824219 15.8125 C 128.824219 16.714844 128.371094 17.621094 128.371094 18.976562 C 128.371094 19.429688 128.371094 19.878906 128.371094 20.332031 C 128.371094 20.785156 128.371094 20.785156 128.371094 21.234375 C 128.371094 21.6875 128.371094 22.59375 128.824219 23.042969 C 129.273438 23.496094 129.273438 23.949219 130.179688 24.398438 C 130.632812 24.851562 131.082031 24.851562 131.535156 24.851562 C 131.988281 24.851562 132.4375 24.851562 132.890625 24.398438 C 133.34375 24.398438 133.796875 23.496094 134.246094 23.042969 C 134.699219 22.59375 134.699219 22.140625 134.699219 21.234375 C 134.699219 20.785156 134.699219 20.785156 134.699219 20.332031 C 133.796875 19.878906 133.796875 19.429688 133.796875 18.976562 Z M 353.472656 189.382812 C 352.117188 188.027344 350.308594 187.578125 348.5 188.027344 C 348.046875 188.027344 347.144531 188.480469 346.691406 188.480469 C 346.691406 188.480469 346.242188 188.480469 346.242188 188.480469 C 346.242188 188.480469 346.242188 188.480469 345.789062 188.480469 C 345.789062 188.480469 345.335938 188.480469 345.335938 188.480469 C 344.882812 188.480469 344.433594 188.480469 343.527344 188.480469 C 343.078125 188.480469 343.078125 188.480469 342.625 188.480469 C 341.269531 188.027344 339.914062 188.027344 339.007812 187.578125 C 338.554688 187.578125 338.554688 187.578125 338.105469 187.125 C 338.105469 187.125 337.652344 187.125 337.652344 187.125 C 337.199219 186.671875 336.296875 186.671875 335.84375 186.21875 C 334.941406 185.316406 332.679688 185.769531 331.777344 186.671875 C 330.871094 187.578125 330.421875 189.382812 331.324219 190.742188 C 332.226562 192.097656 333.132812 193 334.035156 193.90625 C 335.390625 195.261719 336.75 195.710938 338.554688 196.617188 C 341.269531 197.519531 343.980469 197.972656 347.144531 197.519531 C 348.953125 197.070312 351.210938 196.617188 352.570312 195.261719 C 354.828125 193 354.828125 190.742188 353.472656 189.382812 Z M 346.242188 188.480469 C 346.242188 188.027344 346.242188 188.027344 346.242188 188.480469 C 346.691406 188.027344 346.242188 188.027344 346.242188 188.480469 Z M 243.632812 317.753906 C 243.632812 316.851562 243.183594 315.949219 242.730469 315.496094 C 241.824219 314.140625 240.921875 313.234375 240.019531 312.332031 C 239.566406 311.878906 239.113281 311.425781 238.660156 311.425781 C 238.210938 310.976562 237.757812 310.523438 237.304688 310.523438 C 236.855469 310.523438 236.855469 310.070312 236.402344 310.070312 C 235.046875 309.621094 233.691406 309.167969 232.332031 308.714844 C 231.429688 308.261719 230.074219 308.714844 229.621094 310.070312 C 229.167969 310.976562 229.167969 312.332031 230.074219 313.234375 C 230.976562 314.140625 231.882812 314.589844 232.332031 315.496094 C 232.785156 315.949219 233.238281 316.398438 233.691406 316.851562 C 234.140625 317.304688 234.59375 317.753906 235.046875 318.207031 C 235.949219 319.113281 236.402344 320.015625 237.304688 320.917969 C 238.210938 321.824219 239.566406 322.726562 240.921875 323.179688 C 242.277344 323.632812 243.632812 322.726562 243.632812 321.371094 C 243.632812 320.917969 243.632812 320.46875 243.632812 320.015625 C 244.085938 318.660156 243.632812 318.207031 243.632812 317.753906 Z M 244.988281 326.34375 C 241.375 326.34375 241.375 331.769531 244.988281 331.769531 C 248.605469 332.21875 248.605469 326.34375 244.988281 326.34375 Z M 49.269531 309.167969 C 49.269531 309.167969 49.722656 308.714844 49.269531 309.167969 Z M 53.335938 301.484375 C 51.527344 301.484375 50.171875 302.839844 50.171875 304.648438 C 50.171875 305.097656 50.171875 305.097656 50.171875 305.550781 C 50.171875 305.550781 50.171875 305.550781 50.171875 306.003906 C 50.171875 306.457031 50.171875 307.359375 49.722656 307.8125 C 49.722656 308.261719 49.269531 309.167969 49.269531 309.621094 C 49.269531 309.621094 49.269531 310.070312 49.269531 310.070312 C 49.269531 310.523438 48.816406 310.523438 48.816406 310.976562 C 48.363281 311.425781 48.363281 311.878906 47.914062 312.332031 C 47.914062 312.332031 47.460938 312.785156 47.460938 312.785156 C 47.460938 312.785156 47.914062 312.332031 47.460938 312.785156 C 47.460938 312.785156 47.460938 312.785156 47.460938 313.234375 C 47.007812 313.6875 46.558594 314.140625 46.105469 314.589844 C 45.652344 315.042969 45.199219 315.949219 44.75 316.398438 C 43.84375 317.304688 44.296875 319.113281 45.199219 320.015625 C 46.105469 320.917969 47.460938 321.824219 48.816406 321.371094 C 49.269531 321.371094 49.722656 320.917969 50.171875 320.917969 C 50.625 320.46875 51.078125 320.46875 51.527344 320.015625 C 51.980469 319.5625 52.886719 318.660156 53.335938 317.753906 C 54.242188 316.851562 54.691406 315.496094 55.597656 314.140625 C 56.953125 311.425781 57.40625 308.261719 57.40625 305.097656 C 56.5 302.839844 55.144531 301.484375 53.335938 301.484375 Z M 47.460938 312.332031 Z M 39.324219 127.457031 C 38.871094 127.007812 38.421875 126.554688 37.96875 126.554688 C 36.613281 126.554688 35.707031 126.101562 34.351562 126.554688 C 33.449219 127.007812 32.542969 127.007812 32.09375 127.457031 C 31.640625 127.457031 31.640625 127.910156 31.1875 127.910156 C 31.1875 127.910156 30.738281 127.910156 30.738281 127.910156 L 28.476562 128.363281 C 26.667969 128.816406 27.121094 131.527344 28.929688 131.527344 C 29.832031 131.527344 30.285156 131.527344 31.1875 131.527344 C 31.1875 131.527344 31.640625 131.527344 31.640625 131.527344 C 32.09375 131.527344 32.09375 131.527344 32.542969 131.527344 C 33.449219 131.527344 34.351562 131.980469 35.257812 131.980469 C 36.613281 131.980469 37.515625 131.527344 38.421875 131.074219 C 38.871094 131.074219 39.324219 130.621094 39.324219 130.171875 C 39.777344 129.71875 39.777344 128.816406 39.777344 128.363281 C 39.777344 127.910156 39.324219 127.457031 39.324219 127.457031 Z M 39.324219 127.457031 " fill-opacity="1" fill-rule="nonzero"/><g fill="#f5eded" fill-opacity="0.4"><g transform="translate(81.15429, 216.055423)"><g><path d="M 25.921875 -21.609375 C 25.941406 -21.523438 26.007812 -20.957031 26.125 -19.90625 C 26.25 -18.851562 26.300781 -17.632812 26.28125 -16.25 C 26.269531 -14.863281 26.0625 -13.566406 25.65625 -12.359375 C 25.289062 -11.234375 24.695312 -10.007812 23.875 -8.6875 C 23.0625 -7.375 21.957031 -6.1875 20.5625 -5.125 C 19.175781 -4.070312 17.4375 -3.320312 15.34375 -2.875 C 14.789062 -2.757812 14.3125 -2.675781 13.90625 -2.625 C 13.5 -2.582031 13.1875 -2.5625 12.96875 -2.5625 C 12.0625 -2.5 11.269531 -2.460938 10.59375 -2.453125 C 9.925781 -2.441406 9.253906 -2.523438 8.578125 -2.703125 C 7.910156 -2.890625 7.050781 -3.179688 6 -3.578125 C 5.570312 -3.742188 5.066406 -3.960938 4.484375 -4.234375 C 3.910156 -4.503906 3.191406 -5.007812 2.328125 -5.75 C 1.628906 -6.34375 1.160156 -6.832031 0.921875 -7.21875 C 0.691406 -7.601562 0.546875 -7.945312 0.484375 -8.25 C 0.304688 -9.082031 0.414062 -9.738281 0.8125 -10.21875 C 1.207031 -10.695312 1.53125 -11.070312 1.78125 -11.34375 C 2.125 -11.757812 2.410156 -12.15625 2.640625 -12.53125 C 2.867188 -12.914062 3.140625 -13.316406 3.453125 -13.734375 C 3.609375 -13.984375 3.726562 -14.210938 3.8125 -14.421875 C 3.90625 -14.640625 4.035156 -14.863281 4.203125 -15.09375 C 4.609375 -15.476562 5.019531 -15.71875 5.4375 -15.8125 C 6.03125 -15.882812 6.523438 -15.691406 6.921875 -15.234375 C 7.328125 -14.773438 7.5625 -14.5 7.625 -14.40625 C 7.875 -14.257812 8.003906 -14.15625 8.015625 -14.09375 C 8.035156 -14.03125 8.210938 -13.925781 8.546875 -13.78125 C 9.191406 -13.476562 9.742188 -13.316406 10.203125 -13.296875 C 10.660156 -13.285156 11.140625 -13.332031 11.640625 -13.4375 C 13.023438 -13.726562 13.921875 -14.457031 14.328125 -15.625 C 14.734375 -16.789062 14.828125 -17.894531 14.609375 -18.9375 C 14.296875 -20.394531 13.78125 -21.46875 13.0625 -22.15625 C 12.351562 -22.84375 11.585938 -23.257812 10.765625 -23.40625 C 9.953125 -23.550781 9.191406 -23.582031 8.484375 -23.5 C 7.785156 -23.425781 7.269531 -23.351562 6.9375 -23.28125 C 6.4375 -23.175781 6.101562 -23.054688 5.9375 -22.921875 C 5.769531 -22.796875 5.519531 -22.660156 5.1875 -22.515625 C 4.957031 -22.378906 4.773438 -22.21875 4.640625 -22.03125 C 4.503906 -21.84375 4.3125 -21.722656 4.0625 -21.671875 C 3.78125 -21.578125 3.347656 -21.648438 2.765625 -21.890625 C 2.179688 -22.140625 1.753906 -22.382812 1.484375 -22.625 C 1.378906 -22.695312 1.296875 -22.832031 1.234375 -23.03125 C 1.171875 -23.238281 1.125 -23.40625 1.09375 -23.53125 L 0.828125 -24.84375 C 0.515625 -26.269531 0.269531 -27.546875 0.09375 -28.671875 C -0.0703125 -29.796875 -0.300781 -31.050781 -0.59375 -32.4375 C -0.757812 -33.195312 -0.914062 -33.875 -1.0625 -34.46875 C -1.21875 -35.070312 -1.375 -35.734375 -1.53125 -36.453125 C -1.625 -36.867188 -1.6875 -37.234375 -1.71875 -37.546875 C -1.757812 -37.859375 -1.804688 -38.226562 -1.859375 -38.65625 C -1.941406 -39.257812 -2.03125 -39.78125 -2.125 -40.21875 C -2.21875 -40.65625 -2.320312 -41.148438 -2.4375 -41.703125 C -2.488281 -41.953125 -2.546875 -42.175781 -2.609375 -42.375 C -2.671875 -42.582031 -2.734375 -42.8125 -2.796875 -43.0625 L -2.796875 -43.125 C -2.953125 -43.84375 -2.800781 -44.507812 -2.34375 -45.125 C -1.882812 -45.75 -1.328125 -46.132812 -0.671875 -46.28125 C -0.285156 -46.351562 0.0546875 -46.398438 0.359375 -46.421875 C 0.660156 -46.453125 1.019531 -46.515625 1.4375 -46.609375 C 2.238281 -46.773438 2.953125 -46.910156 3.578125 -47.015625 C 4.210938 -47.128906 4.925781 -47.296875 5.71875 -47.515625 C 6.300781 -47.640625 6.828125 -47.769531 7.296875 -47.90625 C 7.773438 -48.050781 8.304688 -48.1875 8.890625 -48.3125 C 9.441406 -48.425781 9.914062 -48.515625 10.3125 -48.578125 C 10.71875 -48.640625 11.171875 -48.722656 11.671875 -48.828125 L 14.875 -49.515625 C 15.082031 -49.554688 15.273438 -49.617188 15.453125 -49.703125 C 15.640625 -49.785156 15.859375 -49.851562 16.109375 -49.90625 C 16.734375 -50.039062 17.195312 -49.953125 17.5 -49.640625 C 17.8125 -49.335938 18.023438 -49.007812 18.140625 -48.65625 C 18.265625 -48.3125 18.328125 -48.117188 18.328125 -48.078125 C 18.421875 -47.660156 18.488281 -47.289062 18.53125 -46.96875 C 18.582031 -46.65625 18.648438 -46.289062 18.734375 -45.875 C 18.847656 -45.332031 18.96875 -44.820312 19.09375 -44.34375 C 19.21875 -43.863281 19.34375 -43.332031 19.46875 -42.75 C 19.632812 -41.957031 19.65625 -41.335938 19.53125 -40.890625 C 19.414062 -40.441406 19.039062 -40.15625 18.40625 -40.03125 C 17.070312 -39.738281 15.851562 -39.5 14.75 -39.3125 C 13.65625 -39.125 12.4375 -38.882812 11.09375 -38.59375 C 10.46875 -38.46875 9.882812 -38.332031 9.34375 -38.1875 C 8.800781 -38.050781 8.441406 -37.878906 8.265625 -37.671875 C 8.097656 -37.460938 8.003906 -37.234375 7.984375 -36.984375 C 7.960938 -36.742188 7.984375 -36.476562 8.046875 -36.1875 L 8.109375 -35.859375 C 8.171875 -35.566406 8.3125 -35.160156 8.53125 -34.640625 C 8.757812 -34.128906 9.164062 -33.929688 9.75 -34.046875 C 9.914062 -34.085938 10.070312 -34.132812 10.21875 -34.1875 C 10.375 -34.238281 10.53125 -34.28125 10.6875 -34.3125 C 12.488281 -34.695312 14.003906 -34.773438 15.234375 -34.546875 C 16.472656 -34.328125 17.5625 -33.898438 18.5 -33.265625 C 19.4375 -32.640625 20.328125 -31.921875 21.171875 -31.109375 C 22.078125 -30.242188 22.753906 -29.484375 23.203125 -28.828125 C 23.648438 -28.179688 23.960938 -27.660156 24.140625 -27.265625 C 24.503906 -26.628906 24.804688 -25.867188 25.046875 -24.984375 C 25.296875 -24.109375 25.503906 -23.328125 25.671875 -22.640625 C 25.835938 -21.953125 25.921875 -21.609375 25.921875 -21.609375 Z M 25.921875 -21.609375 "/></g></g></g><g fill="#f5eded" fill-opacity="0.4"><g transform="translate(112.165053, 209.454745)"><g><path d="M 24.875 -29.21875 C 25.09375 -28.082031 25.300781 -27.0625 25.5 -26.15625 C 25.695312 -25.257812 25.863281 -24.238281 26 -23.09375 C 26.125 -22.25 26.226562 -21.144531 26.3125 -19.78125 C 26.40625 -18.425781 26.453125 -17.0625 26.453125 -15.6875 C 26.460938 -14.3125 26.359375 -13.171875 26.140625 -12.265625 C 25.972656 -11.316406 25.726562 -10.492188 25.40625 -9.796875 C 25.082031 -9.109375 24.789062 -8.539062 24.53125 -8.09375 C 23.6875 -6.800781 22.5625 -5.671875 21.15625 -4.703125 C 19.757812 -3.734375 17.847656 -3.007812 15.421875 -2.53125 C 13.109375 -2.082031 11.046875 -2.117188 9.234375 -2.640625 C 7.429688 -3.171875 5.96875 -3.867188 4.84375 -4.734375 C 3.65625 -5.679688 2.578125 -7.171875 1.609375 -9.203125 C 0.648438 -11.242188 -0.210938 -13.695312 -0.984375 -16.5625 C -1.171875 -17.34375 -1.320312 -18.035156 -1.4375 -18.640625 C -1.5625 -19.253906 -1.722656 -19.960938 -1.921875 -20.765625 C -2.097656 -21.378906 -2.242188 -21.9375 -2.359375 -22.4375 C -2.472656 -22.9375 -2.59375 -23.5 -2.71875 -24.125 C -2.789062 -24.5 -2.890625 -25.195312 -3.015625 -26.21875 C -3.148438 -27.25 -3.285156 -28.382812 -3.421875 -29.625 C -3.554688 -30.863281 -3.65625 -31.992188 -3.71875 -33.015625 C -3.789062 -34.046875 -3.820312 -34.765625 -3.8125 -35.171875 C -3.769531 -36.097656 -3.65625 -36.957031 -3.46875 -37.75 C -3.28125 -38.550781 -3.125 -39.117188 -3 -39.453125 C -2.394531 -41.492188 -1.332031 -43.3125 0.1875 -44.90625 C 1.71875 -46.507812 4.054688 -47.617188 7.203125 -48.234375 C 10.265625 -48.828125 12.789062 -48.660156 14.78125 -47.734375 C 16.769531 -46.816406 18.398438 -45.390625 19.671875 -43.453125 C 20.941406 -41.515625 21.984375 -39.34375 22.796875 -36.9375 C 23.328125 -35.289062 23.765625 -33.789062 24.109375 -32.4375 C 24.460938 -31.09375 24.695312 -30.128906 24.8125 -29.546875 Z M 12.890625 -31.015625 C 12.679688 -32.066406 12.425781 -33.085938 12.125 -34.078125 C 11.832031 -35.066406 11.441406 -35.847656 10.953125 -36.421875 C 10.460938 -37.003906 9.835938 -37.222656 9.078125 -37.078125 L 8.953125 -37.046875 C 8.796875 -37.015625 8.640625 -36.941406 8.484375 -36.828125 C 8.328125 -36.722656 8.203125 -36.617188 8.109375 -36.515625 C 7.660156 -36.023438 7.398438 -35.347656 7.328125 -34.484375 C 7.265625 -33.617188 7.28125 -32.757812 7.375 -31.90625 C 7.476562 -31.050781 7.566406 -30.4375 7.640625 -30.0625 C 7.710938 -29.6875 7.796875 -29.3125 7.890625 -28.9375 C 7.984375 -28.5625 8.066406 -28.1875 8.140625 -27.8125 C 8.234375 -27.351562 8.300781 -26.921875 8.34375 -26.515625 C 8.382812 -26.109375 8.445312 -25.675781 8.53125 -25.21875 C 8.625 -24.914062 8.710938 -24.597656 8.796875 -24.265625 C 8.878906 -23.941406 8.957031 -23.609375 9.03125 -23.265625 C 9.09375 -22.929688 9.128906 -22.625 9.140625 -22.34375 C 9.160156 -22.070312 9.203125 -21.765625 9.265625 -21.421875 C 9.304688 -20.953125 9.363281 -20.519531 9.4375 -20.125 C 9.519531 -19.726562 9.601562 -19.296875 9.6875 -18.828125 C 9.851562 -17.984375 10.050781 -17.234375 10.28125 -16.578125 C 10.519531 -15.929688 10.707031 -15.46875 10.84375 -15.1875 C 10.90625 -15.113281 11.019531 -14.882812 11.1875 -14.5 C 11.351562 -14.125 11.625 -13.796875 12 -13.515625 C 12.375 -13.242188 12.859375 -13.164062 13.453125 -13.28125 C 13.953125 -13.375 14.289062 -13.539062 14.46875 -13.78125 C 14.90625 -14.394531 15.132812 -15.207031 15.15625 -16.21875 C 15.1875 -17.226562 15.125 -18.226562 14.96875 -19.21875 C 14.820312 -20.21875 14.707031 -20.953125 14.625 -21.421875 C 14.425781 -22.429688 14.234375 -23.34375 14.046875 -24.15625 C 13.859375 -24.96875 13.691406 -25.90625 13.546875 -26.96875 C 13.441406 -27.726562 13.34375 -28.40625 13.25 -29 C 13.15625 -29.59375 13.035156 -30.265625 12.890625 -31.015625 Z M 12.890625 -31.015625 "/></g></g></g><g fill="#f5eded" fill-opacity="0.4"><g transform="translate(143.41733, 203.450861)"><g><path d="M 11.421875 -5.0625 C 11.648438 -3.84375 11.503906 -3.007812 10.984375 -2.5625 C 10.472656 -2.125 9.921875 -1.851562 9.328125 -1.75 L 6.484375 -1.234375 C 5.484375 -1.054688 4.566406 -0.898438 3.734375 -0.765625 C 2.910156 -0.640625 2.238281 -0.691406 1.71875 -0.921875 C 1.207031 -1.160156 0.875 -1.703125 0.71875 -2.546875 C 0.65625 -2.878906 0.609375 -3.171875 0.578125 -3.421875 C 0.554688 -3.679688 0.515625 -3.984375 0.453125 -4.328125 C 0.367188 -4.785156 0.28125 -5.222656 0.1875 -5.640625 C 0.09375 -6.066406 0.00390625 -6.507812 -0.078125 -6.96875 C -0.140625 -7.300781 -0.195312 -7.613281 -0.25 -7.90625 C -0.300781 -8.207031 -0.332031 -8.507812 -0.34375 -8.8125 C -0.363281 -9.164062 -0.382812 -9.566406 -0.40625 -10.015625 C -0.425781 -10.460938 -0.273438 -10.878906 0.046875 -11.265625 C 0.367188 -11.648438 0.953125 -11.921875 1.796875 -12.078125 C 2.210938 -12.148438 2.59375 -12.207031 2.9375 -12.25 C 3.28125 -12.289062 3.664062 -12.347656 4.09375 -12.421875 C 4.71875 -12.535156 5.28125 -12.644531 5.78125 -12.75 C 6.28125 -12.863281 6.867188 -12.984375 7.546875 -13.109375 C 8.429688 -13.265625 9.054688 -13.179688 9.421875 -12.859375 C 9.796875 -12.535156 10.039062 -12.09375 10.15625 -11.53125 C 10.28125 -10.96875 10.390625 -10.4375 10.484375 -9.9375 C 10.585938 -9.382812 10.664062 -8.894531 10.71875 -8.46875 C 10.769531 -8.039062 10.847656 -7.550781 10.953125 -7 C 11.003906 -6.664062 11.082031 -6.34375 11.1875 -6.03125 C 11.289062 -5.71875 11.367188 -5.394531 11.421875 -5.0625 Z M 11.421875 -5.0625 "/></g></g></g><g fill="#f5eded" fill-opacity="0.4"><g transform="translate(156.268414, 201.064635)"><g><path d="M 25.609375 -28.578125 C 25.804688 -27.429688 25.988281 -26.40625 26.15625 -25.5 C 26.332031 -24.601562 26.472656 -23.578125 26.578125 -22.421875 C 26.679688 -21.578125 26.757812 -20.472656 26.8125 -19.109375 C 26.863281 -17.753906 26.875 -16.390625 26.84375 -15.015625 C 26.820312 -13.640625 26.6875 -12.5 26.4375 -11.59375 C 26.25 -10.65625 25.984375 -9.84375 25.640625 -9.15625 C 25.304688 -8.476562 25 -7.914062 24.71875 -7.46875 C 23.851562 -6.195312 22.707031 -5.09375 21.28125 -4.15625 C 19.851562 -3.21875 17.914062 -2.539062 15.46875 -2.125 C 13.144531 -1.738281 11.085938 -1.832031 9.296875 -2.40625 C 7.515625 -2.976562 6.070312 -3.710938 4.96875 -4.609375 C 3.789062 -5.578125 2.75 -7.09375 1.84375 -9.15625 C 0.9375 -11.21875 0.132812 -13.691406 -0.5625 -16.578125 C -0.738281 -17.359375 -0.878906 -18.054688 -0.984375 -18.671875 C -1.085938 -19.285156 -1.226562 -20 -1.40625 -20.8125 C -1.5625 -21.425781 -1.691406 -21.984375 -1.796875 -22.484375 C -1.898438 -22.984375 -2.003906 -23.550781 -2.109375 -24.1875 C -2.171875 -24.5625 -2.253906 -25.257812 -2.359375 -26.28125 C -2.460938 -27.3125 -2.5625 -28.445312 -2.65625 -29.6875 C -2.757812 -30.9375 -2.832031 -32.078125 -2.875 -33.109375 C -2.914062 -34.140625 -2.929688 -34.851562 -2.921875 -35.25 C -2.847656 -36.1875 -2.707031 -37.050781 -2.5 -37.84375 C -2.289062 -38.632812 -2.125 -39.1875 -2 -39.5 C -1.34375 -41.53125 -0.234375 -43.328125 1.328125 -44.890625 C 2.890625 -46.453125 5.253906 -47.5 8.421875 -48.03125 C 11.503906 -48.550781 14.023438 -48.320312 15.984375 -47.34375 C 17.953125 -46.375 19.546875 -44.90625 20.765625 -42.9375 C 21.992188 -40.976562 22.976562 -38.78125 23.71875 -36.34375 C 24.21875 -34.6875 24.625 -33.175781 24.9375 -31.8125 C 25.257812 -30.457031 25.46875 -29.488281 25.5625 -28.90625 Z M 13.6875 -30.671875 C 13.507812 -31.734375 13.28125 -32.757812 13 -33.75 C 12.71875 -34.75 12.34375 -35.539062 11.875 -36.125 C 11.40625 -36.71875 10.789062 -36.953125 10.03125 -36.828125 L 9.90625 -36.8125 C 9.738281 -36.78125 9.578125 -36.710938 9.421875 -36.609375 C 9.273438 -36.503906 9.144531 -36.398438 9.03125 -36.296875 C 8.582031 -35.816406 8.3125 -35.144531 8.21875 -34.28125 C 8.125 -33.414062 8.113281 -32.554688 8.1875 -31.703125 C 8.269531 -30.859375 8.34375 -30.242188 8.40625 -29.859375 C 8.46875 -29.484375 8.539062 -29.109375 8.625 -28.734375 C 8.707031 -28.359375 8.78125 -27.976562 8.84375 -27.59375 C 8.925781 -27.132812 8.976562 -26.695312 9 -26.28125 C 9.03125 -25.875 9.082031 -25.441406 9.15625 -24.984375 C 9.25 -24.691406 9.332031 -24.378906 9.40625 -24.046875 C 9.488281 -23.710938 9.554688 -23.375 9.609375 -23.03125 C 9.671875 -22.695312 9.703125 -22.390625 9.703125 -22.109375 C 9.710938 -21.828125 9.742188 -21.515625 9.796875 -21.171875 C 9.828125 -20.710938 9.875 -20.28125 9.9375 -19.875 C 10 -19.476562 10.070312 -19.039062 10.15625 -18.5625 C 10.300781 -17.71875 10.484375 -16.96875 10.703125 -16.3125 C 10.921875 -15.65625 11.097656 -15.1875 11.234375 -14.90625 C 11.285156 -14.832031 11.390625 -14.601562 11.546875 -14.21875 C 11.703125 -13.832031 11.960938 -13.492188 12.328125 -13.203125 C 12.703125 -12.921875 13.1875 -12.832031 13.78125 -12.9375 C 14.28125 -13.019531 14.625 -13.175781 14.8125 -13.40625 C 15.269531 -14.019531 15.519531 -14.828125 15.5625 -15.828125 C 15.613281 -16.835938 15.578125 -17.84375 15.453125 -18.84375 C 15.335938 -19.84375 15.242188 -20.570312 15.171875 -21.03125 C 15.003906 -22.050781 14.835938 -22.96875 14.671875 -23.78125 C 14.503906 -24.59375 14.359375 -25.535156 14.234375 -26.609375 C 14.148438 -27.378906 14.066406 -28.054688 13.984375 -28.640625 C 13.910156 -29.234375 13.8125 -29.910156 13.6875 -30.671875 Z M 13.6875 -30.671875 "/></g></g></g><g fill="#f5eded" fill-opacity="0.4"><g transform="translate(187.536688, 195.817552)"><g><path d="M 26.125 -28.109375 C 26.289062 -26.960938 26.453125 -25.9375 26.609375 -25.03125 C 26.765625 -24.125 26.890625 -23.097656 26.984375 -21.953125 C 27.066406 -21.085938 27.117188 -19.972656 27.140625 -18.609375 C 27.171875 -17.253906 27.160156 -15.890625 27.109375 -14.515625 C 27.054688 -13.148438 26.898438 -12.019531 26.640625 -11.125 C 26.441406 -10.1875 26.164062 -9.375 25.8125 -8.6875 C 25.46875 -8.007812 25.148438 -7.457031 24.859375 -7.03125 C 23.960938 -5.769531 22.789062 -4.679688 21.34375 -3.765625 C 19.894531 -2.859375 17.945312 -2.21875 15.5 -1.84375 C 13.175781 -1.5 11.125 -1.628906 9.34375 -2.234375 C 7.5625 -2.847656 6.128906 -3.601562 5.046875 -4.5 C 3.890625 -5.5 2.875 -7.039062 2 -9.125 C 1.125 -11.21875 0.367188 -13.703125 -0.265625 -16.578125 C -0.421875 -17.378906 -0.539062 -18.082031 -0.625 -18.6875 C -0.71875 -19.300781 -0.847656 -20.007812 -1.015625 -20.8125 C -1.160156 -21.445312 -1.28125 -22.015625 -1.375 -22.515625 C -1.476562 -23.023438 -1.578125 -23.59375 -1.671875 -24.21875 C -1.722656 -24.601562 -1.789062 -25.304688 -1.875 -26.328125 C -1.957031 -27.359375 -2.039062 -28.492188 -2.125 -29.734375 C -2.207031 -30.984375 -2.257812 -32.125 -2.28125 -33.15625 C -2.3125 -34.195312 -2.3125 -34.910156 -2.28125 -35.296875 C -2.195312 -36.222656 -2.039062 -37.082031 -1.8125 -37.875 C -1.59375 -38.675781 -1.414062 -39.226562 -1.28125 -39.53125 C -0.59375 -41.539062 0.546875 -43.316406 2.140625 -44.859375 C 3.734375 -46.398438 6.117188 -47.410156 9.296875 -47.890625 C 12.378906 -48.347656 14.894531 -48.066406 16.84375 -47.046875 C 18.789062 -46.035156 20.359375 -44.535156 21.546875 -42.546875 C 22.734375 -40.566406 23.671875 -38.359375 24.359375 -35.921875 C 24.835938 -34.242188 25.21875 -32.722656 25.5 -31.359375 C 25.789062 -29.992188 25.984375 -29.019531 26.078125 -28.4375 Z M 14.21875 -30.421875 C 14.0625 -31.484375 13.851562 -32.515625 13.59375 -33.515625 C 13.332031 -34.515625 12.972656 -35.316406 12.515625 -35.921875 C 12.054688 -36.523438 11.445312 -36.769531 10.6875 -36.65625 L 10.5625 -36.640625 C 10.394531 -36.609375 10.234375 -36.539062 10.078125 -36.4375 C 9.921875 -36.332031 9.789062 -36.226562 9.6875 -36.125 C 9.21875 -35.65625 8.929688 -34.988281 8.828125 -34.125 C 8.722656 -33.269531 8.703125 -32.414062 8.765625 -31.5625 C 8.828125 -30.707031 8.890625 -30.085938 8.953125 -29.703125 C 9.003906 -29.328125 9.066406 -28.953125 9.140625 -28.578125 C 9.222656 -28.203125 9.296875 -27.820312 9.359375 -27.4375 C 9.421875 -26.96875 9.460938 -26.523438 9.484375 -26.109375 C 9.503906 -25.703125 9.550781 -25.269531 9.625 -24.8125 C 9.707031 -24.519531 9.785156 -24.207031 9.859375 -23.875 C 9.929688 -23.539062 9.988281 -23.203125 10.03125 -22.859375 C 10.082031 -22.523438 10.109375 -22.210938 10.109375 -21.921875 C 10.109375 -21.640625 10.132812 -21.328125 10.1875 -20.984375 C 10.207031 -20.523438 10.242188 -20.09375 10.296875 -19.6875 C 10.359375 -19.289062 10.425781 -18.851562 10.5 -18.375 C 10.625 -17.53125 10.789062 -16.78125 11 -16.125 C 11.207031 -15.46875 11.378906 -14.992188 11.515625 -14.703125 C 11.554688 -14.628906 11.648438 -14.394531 11.796875 -14 C 11.941406 -13.613281 12.195312 -13.273438 12.5625 -12.984375 C 12.9375 -12.691406 13.421875 -12.59375 14.015625 -12.6875 C 14.515625 -12.757812 14.859375 -12.910156 15.046875 -13.140625 C 15.523438 -13.742188 15.796875 -14.546875 15.859375 -15.546875 C 15.921875 -16.554688 15.898438 -17.5625 15.796875 -18.5625 C 15.691406 -19.5625 15.609375 -20.289062 15.546875 -20.75 C 15.390625 -21.769531 15.238281 -22.6875 15.09375 -23.5 C 14.945312 -24.320312 14.816406 -25.269531 14.703125 -26.34375 C 14.628906 -27.113281 14.554688 -27.796875 14.484375 -28.390625 C 14.421875 -28.984375 14.332031 -29.660156 14.21875 -30.421875 Z M 14.21875 -30.421875 "/></g></g></g><g fill="#f5eded" fill-opacity="0.4"><g transform="translate(218.894279, 191.133765)"><g><path d="M 26.625 -27.640625 C 26.769531 -26.492188 26.910156 -25.460938 27.046875 -24.546875 C 27.191406 -23.640625 27.300781 -22.609375 27.375 -21.453125 C 27.4375 -20.597656 27.46875 -19.488281 27.46875 -18.125 C 27.476562 -16.769531 27.445312 -15.40625 27.375 -14.03125 C 27.300781 -12.65625 27.125 -11.523438 26.84375 -10.640625 C 26.613281 -9.703125 26.316406 -8.894531 25.953125 -8.21875 C 25.597656 -7.550781 25.273438 -7.003906 24.984375 -6.578125 C 24.066406 -5.328125 22.878906 -4.257812 21.421875 -3.375 C 19.960938 -2.5 18.003906 -1.898438 15.546875 -1.578125 C 13.203125 -1.265625 11.144531 -1.425781 9.375 -2.0625 C 7.601562 -2.707031 6.1875 -3.492188 5.125 -4.421875 C 4 -5.441406 3.015625 -7 2.171875 -9.09375 C 1.335938 -11.1875 0.625 -13.679688 0.03125 -16.578125 C -0.113281 -17.378906 -0.222656 -18.085938 -0.296875 -18.703125 C -0.378906 -19.316406 -0.492188 -20.03125 -0.640625 -20.84375 C -0.773438 -21.457031 -0.882812 -22.019531 -0.96875 -22.53125 C -1.0625 -23.039062 -1.148438 -23.613281 -1.234375 -24.25 C -1.285156 -24.632812 -1.34375 -25.34375 -1.40625 -26.375 C -1.476562 -27.40625 -1.539062 -28.539062 -1.59375 -29.78125 C -1.644531 -31.019531 -1.675781 -32.15625 -1.6875 -33.1875 C -1.695312 -34.21875 -1.6875 -34.9375 -1.65625 -35.34375 C -1.550781 -36.257812 -1.378906 -37.113281 -1.140625 -37.90625 C -0.898438 -38.695312 -0.707031 -39.25 -0.5625 -39.5625 C 0.15625 -41.550781 1.320312 -43.300781 2.9375 -44.8125 C 4.5625 -46.320312 6.960938 -47.285156 10.140625 -47.703125 C 13.242188 -48.109375 15.757812 -47.785156 17.6875 -46.734375 C 19.613281 -45.691406 21.148438 -44.164062 22.296875 -42.15625 C 23.441406 -40.15625 24.347656 -37.925781 25.015625 -35.46875 C 25.453125 -33.789062 25.800781 -32.265625 26.0625 -30.890625 C 26.332031 -29.523438 26.503906 -28.550781 26.578125 -27.96875 Z M 14.765625 -30.171875 C 14.628906 -31.234375 14.4375 -32.265625 14.1875 -33.265625 C 13.945312 -34.265625 13.601562 -35.066406 13.15625 -35.671875 C 12.71875 -36.285156 12.113281 -36.546875 11.34375 -36.453125 L 11.21875 -36.4375 C 11.0625 -36.414062 10.898438 -36.347656 10.734375 -36.234375 C 10.578125 -36.128906 10.441406 -36.03125 10.328125 -35.9375 C 9.859375 -35.488281 9.5625 -34.832031 9.4375 -33.96875 C 9.320312 -33.101562 9.285156 -32.242188 9.328125 -31.390625 C 9.378906 -30.535156 9.429688 -29.921875 9.484375 -29.546875 C 9.535156 -29.160156 9.59375 -28.773438 9.65625 -28.390625 C 9.726562 -28.015625 9.789062 -27.632812 9.84375 -27.25 C 9.90625 -26.78125 9.941406 -26.34375 9.953125 -25.9375 C 9.960938 -25.53125 10 -25.09375 10.0625 -24.625 C 10.144531 -24.34375 10.21875 -24.03125 10.28125 -23.6875 C 10.34375 -23.34375 10.398438 -23.003906 10.453125 -22.671875 C 10.492188 -22.328125 10.507812 -22.015625 10.5 -21.734375 C 10.5 -21.453125 10.519531 -21.144531 10.5625 -20.8125 C 10.570312 -20.34375 10.601562 -19.90625 10.65625 -19.5 C 10.707031 -19.101562 10.765625 -18.664062 10.828125 -18.1875 C 10.941406 -17.34375 11.097656 -16.585938 11.296875 -15.921875 C 11.492188 -15.253906 11.648438 -14.78125 11.765625 -14.5 C 11.816406 -14.414062 11.910156 -14.175781 12.046875 -13.78125 C 12.179688 -13.394531 12.429688 -13.050781 12.796875 -12.75 C 13.160156 -12.445312 13.640625 -12.335938 14.234375 -12.421875 C 14.742188 -12.484375 15.09375 -12.632812 15.28125 -12.875 C 15.757812 -13.46875 16.039062 -14.265625 16.125 -15.265625 C 16.207031 -16.265625 16.207031 -17.265625 16.125 -18.265625 C 16.039062 -19.265625 15.972656 -20 15.921875 -20.46875 C 15.785156 -21.488281 15.648438 -22.410156 15.515625 -23.234375 C 15.378906 -24.066406 15.269531 -25.015625 15.1875 -26.078125 C 15.125 -26.847656 15.0625 -27.53125 15 -28.125 C 14.945312 -28.71875 14.867188 -29.398438 14.765625 -30.171875 Z M 14.765625 -30.171875 "/></g></g></g><g fill="#f5eded" fill-opacity="1"><g transform="translate(77.8766, 213.73757)"><g><path d="M 25.921875 -21.609375 C 25.941406 -21.523438 26.007812 -20.957031 26.125 -19.90625 C 26.25 -18.851562 26.300781 -17.632812 26.28125 -16.25 C 26.269531 -14.863281 26.0625 -13.566406 25.65625 -12.359375 C 25.289062 -11.234375 24.695312 -10.007812 23.875 -8.6875 C 23.0625 -7.375 21.957031 -6.1875 20.5625 -5.125 C 19.175781 -4.070312 17.4375 -3.320312 15.34375 -2.875 C 14.789062 -2.757812 14.3125 -2.675781 13.90625 -2.625 C 13.5 -2.582031 13.1875 -2.5625 12.96875 -2.5625 C 12.0625 -2.5 11.269531 -2.460938 10.59375 -2.453125 C 9.925781 -2.441406 9.253906 -2.523438 8.578125 -2.703125 C 7.910156 -2.890625 7.050781 -3.179688 6 -3.578125 C 5.570312 -3.742188 5.066406 -3.960938 4.484375 -4.234375 C 3.910156 -4.503906 3.191406 -5.007812 2.328125 -5.75 C 1.628906 -6.34375 1.160156 -6.832031 0.921875 -7.21875 C 0.691406 -7.601562 0.546875 -7.945312 0.484375 -8.25 C 0.304688 -9.082031 0.414062 -9.738281 0.8125 -10.21875 C 1.207031 -10.695312 1.53125 -11.070312 1.78125 -11.34375 C 2.125 -11.757812 2.410156 -12.15625 2.640625 -12.53125 C 2.867188 -12.914062 3.140625 -13.316406 3.453125 -13.734375 C 3.609375 -13.984375 3.726562 -14.210938 3.8125 -14.421875 C 3.90625 -14.640625 4.035156 -14.863281 4.203125 -15.09375 C 4.609375 -15.476562 5.019531 -15.71875 5.4375 -15.8125 C 6.03125 -15.882812 6.523438 -15.691406 6.921875 -15.234375 C 7.328125 -14.773438 7.5625 -14.5 7.625 -14.40625 C 7.875 -14.257812 8.003906 -14.15625 8.015625 -14.09375 C 8.035156 -14.03125 8.210938 -13.925781 8.546875 -13.78125 C 9.191406 -13.476562 9.742188 -13.316406 10.203125 -13.296875 C 10.660156 -13.285156 11.140625 -13.332031 11.640625 -13.4375 C 13.023438 -13.726562 13.921875 -14.457031 14.328125 -15.625 C 14.734375 -16.789062 14.828125 -17.894531 14.609375 -18.9375 C 14.296875 -20.394531 13.78125 -21.46875 13.0625 -22.15625 C 12.351562 -22.84375 11.585938 -23.257812 10.765625 -23.40625 C 9.953125 -23.550781 9.191406 -23.582031 8.484375 -23.5 C 7.785156 -23.425781 7.269531 -23.351562 6.9375 -23.28125 C 6.4375 -23.175781 6.101562 -23.054688 5.9375 -22.921875 C 5.769531 -22.796875 5.519531 -22.660156 5.1875 -22.515625 C 4.957031 -22.378906 4.773438 -22.21875 4.640625 -22.03125 C 4.503906 -21.84375 4.3125 -21.722656 4.0625 -21.671875 C 3.78125 -21.578125 3.347656 -21.648438 2.765625 -21.890625 C 2.179688 -22.140625 1.753906 -22.382812 1.484375 -22.625 C 1.378906 -22.695312 1.296875 -22.832031 1.234375 -23.03125 C 1.171875 -23.238281 1.125 -23.40625 1.09375 -23.53125 L 0.828125 -24.84375 C 0.515625 -26.269531 0.269531 -27.546875 0.09375 -28.671875 C -0.0703125 -29.796875 -0.300781 -31.050781 -0.59375 -32.4375 C -0.757812 -33.195312 -0.914062 -33.875 -1.0625 -34.46875 C -1.21875 -35.070312 -1.375 -35.734375 -1.53125 -36.453125 C -1.625 -36.867188 -1.6875 -37.234375 -1.71875 -37.546875 C -1.757812 -37.859375 -1.804688 -38.226562 -1.859375 -38.65625 C -1.941406 -39.257812 -2.03125 -39.78125 -2.125 -40.21875 C -2.21875 -40.65625 -2.320312 -41.148438 -2.4375 -41.703125 C -2.488281 -41.953125 -2.546875 -42.175781 -2.609375 -42.375 C -2.671875 -42.582031 -2.734375 -42.8125 -2.796875 -43.0625 L -2.796875 -43.125 C -2.953125 -43.84375 -2.800781 -44.507812 -2.34375 -45.125 C -1.882812 -45.75 -1.328125 -46.132812 -0.671875 -46.28125 C -0.285156 -46.351562 0.0546875 -46.398438 0.359375 -46.421875 C 0.660156 -46.453125 1.019531 -46.515625 1.4375 -46.609375 C 2.238281 -46.773438 2.953125 -46.910156 3.578125 -47.015625 C 4.210938 -47.128906 4.925781 -47.296875 5.71875 -47.515625 C 6.300781 -47.640625 6.828125 -47.769531 7.296875 -47.90625 C 7.773438 -48.050781 8.304688 -48.1875 8.890625 -48.3125 C 9.441406 -48.425781 9.914062 -48.515625 10.3125 -48.578125 C 10.71875 -48.640625 11.171875 -48.722656 11.671875 -48.828125 L 14.875 -49.515625 C 15.082031 -49.554688 15.273438 -49.617188 15.453125 -49.703125 C 15.640625 -49.785156 15.859375 -49.851562 16.109375 -49.90625 C 16.734375 -50.039062 17.195312 -49.953125 17.5 -49.640625 C 17.8125 -49.335938 18.023438 -49.007812 18.140625 -48.65625 C 18.265625 -48.3125 18.328125 -48.117188 18.328125 -48.078125 C 18.421875 -47.660156 18.488281 -47.289062 18.53125 -46.96875 C 18.582031 -46.65625 18.648438 -46.289062 18.734375 -45.875 C 18.847656 -45.332031 18.96875 -44.820312 19.09375 -44.34375 C 19.21875 -43.863281 19.34375 -43.332031 19.46875 -42.75 C 19.632812 -41.957031 19.65625 -41.335938 19.53125 -40.890625 C 19.414062 -40.441406 19.039062 -40.15625 18.40625 -40.03125 C 17.070312 -39.738281 15.851562 -39.5 14.75 -39.3125 C 13.65625 -39.125 12.4375 -38.882812 11.09375 -38.59375 C 10.46875 -38.46875 9.882812 -38.332031 9.34375 -38.1875 C 8.800781 -38.050781 8.441406 -37.878906 8.265625 -37.671875 C 8.097656 -37.460938 8.003906 -37.234375 7.984375 -36.984375 C 7.960938 -36.742188 7.984375 -36.476562 8.046875 -36.1875 L 8.109375 -35.859375 C 8.171875 -35.566406 8.3125 -35.160156 8.53125 -34.640625 C 8.757812 -34.128906 9.164062 -33.929688 9.75 -34.046875 C 9.914062 -34.085938 10.070312 -34.132812 10.21875 -34.1875 C 10.375 -34.238281 10.53125 -34.28125 10.6875 -34.3125 C 12.488281 -34.695312 14.003906 -34.773438 15.234375 -34.546875 C 16.472656 -34.328125 17.5625 -33.898438 18.5 -33.265625 C 19.4375 -32.640625 20.328125 -31.921875 21.171875 -31.109375 C 22.078125 -30.242188 22.753906 -29.484375 23.203125 -28.828125 C 23.648438 -28.179688 23.960938 -27.660156 24.140625 -27.265625 C 24.503906 -26.628906 24.804688 -25.867188 25.046875 -24.984375 C 25.296875 -24.109375 25.503906 -23.328125 25.671875 -22.640625 C 25.835938 -21.953125 25.921875 -21.609375 25.921875 -21.609375 Z M 25.921875 -21.609375 "/></g></g></g><g fill="#f5eded" fill-opacity="1"><g transform="translate(108.887361, 207.136909)"><g><path d="M 24.875 -29.21875 C 25.09375 -28.082031 25.300781 -27.0625 25.5 -26.15625 C 25.695312 -25.257812 25.863281 -24.238281 26 -23.09375 C 26.125 -22.25 26.226562 -21.144531 26.3125 -19.78125 C 26.40625 -18.425781 26.453125 -17.0625 26.453125 -15.6875 C 26.460938 -14.3125 26.359375 -13.171875 26.140625 -12.265625 C 25.972656 -11.316406 25.726562 -10.492188 25.40625 -9.796875 C 25.082031 -9.109375 24.789062 -8.539062 24.53125 -8.09375 C 23.6875 -6.800781 22.5625 -5.671875 21.15625 -4.703125 C 19.757812 -3.734375 17.847656 -3.007812 15.421875 -2.53125 C 13.109375 -2.082031 11.046875 -2.117188 9.234375 -2.640625 C 7.429688 -3.171875 5.96875 -3.867188 4.84375 -4.734375 C 3.65625 -5.679688 2.578125 -7.171875 1.609375 -9.203125 C 0.648438 -11.242188 -0.210938 -13.695312 -0.984375 -16.5625 C -1.171875 -17.34375 -1.320312 -18.035156 -1.4375 -18.640625 C -1.5625 -19.253906 -1.722656 -19.960938 -1.921875 -20.765625 C -2.097656 -21.378906 -2.242188 -21.9375 -2.359375 -22.4375 C -2.472656 -22.9375 -2.59375 -23.5 -2.71875 -24.125 C -2.789062 -24.5 -2.890625 -25.195312 -3.015625 -26.21875 C -3.148438 -27.25 -3.285156 -28.382812 -3.421875 -29.625 C -3.554688 -30.863281 -3.65625 -31.992188 -3.71875 -33.015625 C -3.789062 -34.046875 -3.820312 -34.765625 -3.8125 -35.171875 C -3.769531 -36.097656 -3.65625 -36.957031 -3.46875 -37.75 C -3.28125 -38.550781 -3.125 -39.117188 -3 -39.453125 C -2.394531 -41.492188 -1.332031 -43.3125 0.1875 -44.90625 C 1.71875 -46.507812 4.054688 -47.617188 7.203125 -48.234375 C 10.265625 -48.828125 12.789062 -48.660156 14.78125 -47.734375 C 16.769531 -46.816406 18.398438 -45.390625 19.671875 -43.453125 C 20.941406 -41.515625 21.984375 -39.34375 22.796875 -36.9375 C 23.328125 -35.289062 23.765625 -33.789062 24.109375 -32.4375 C 24.460938 -31.09375 24.695312 -30.128906 24.8125 -29.546875 Z M 12.890625 -31.015625 C 12.679688 -32.066406 12.425781 -33.085938 12.125 -34.078125 C 11.832031 -35.066406 11.441406 -35.847656 10.953125 -36.421875 C 10.460938 -37.003906 9.835938 -37.222656 9.078125 -37.078125 L 8.953125 -37.046875 C 8.796875 -37.015625 8.640625 -36.941406 8.484375 -36.828125 C 8.328125 -36.722656 8.203125 -36.617188 8.109375 -36.515625 C 7.660156 -36.023438 7.398438 -35.347656 7.328125 -34.484375 C 7.265625 -33.617188 7.28125 -32.757812 7.375 -31.90625 C 7.476562 -31.050781 7.566406 -30.4375 7.640625 -30.0625 C 7.710938 -29.6875 7.796875 -29.3125 7.890625 -28.9375 C 7.984375 -28.5625 8.066406 -28.1875 8.140625 -27.8125 C 8.234375 -27.351562 8.300781 -26.921875 8.34375 -26.515625 C 8.382812 -26.109375 8.445312 -25.675781 8.53125 -25.21875 C 8.625 -24.914062 8.710938 -24.597656 8.796875 -24.265625 C 8.878906 -23.941406 8.957031 -23.609375 9.03125 -23.265625 C 9.09375 -22.929688 9.128906 -22.625 9.140625 -22.34375 C 9.160156 -22.070312 9.203125 -21.765625 9.265625 -21.421875 C 9.304688 -20.953125 9.363281 -20.519531 9.4375 -20.125 C 9.519531 -19.726562 9.601562 -19.296875 9.6875 -18.828125 C 9.851562 -17.984375 10.050781 -17.234375 10.28125 -16.578125 C 10.519531 -15.929688 10.707031 -15.46875 10.84375 -15.1875 C 10.90625 -15.113281 11.019531 -14.882812 11.1875 -14.5 C 11.351562 -14.125 11.625 -13.796875 12 -13.515625 C 12.375 -13.242188 12.859375 -13.164062 13.453125 -13.28125 C 13.953125 -13.375 14.289062 -13.539062 14.46875 -13.78125 C 14.90625 -14.394531 15.132812 -15.207031 15.15625 -16.21875 C 15.1875 -17.226562 15.125 -18.226562 14.96875 -19.21875 C 14.820312 -20.21875 14.707031 -20.953125 14.625 -21.421875 C 14.425781 -22.429688 14.234375 -23.34375 14.046875 -24.15625 C 13.859375 -24.96875 13.691406 -25.90625 13.546875 -26.96875 C 13.441406 -27.726562 13.34375 -28.40625 13.25 -29 C 13.15625 -29.59375 13.035156 -30.265625 12.890625 -31.015625 Z M 12.890625 -31.015625 "/></g></g></g><g fill="#f5eded" fill-opacity="1"><g transform="translate(140.139624, 201.133025)"><g><path d="M 11.421875 -5.0625 C 11.648438 -3.84375 11.503906 -3.007812 10.984375 -2.5625 C 10.472656 -2.125 9.921875 -1.851562 9.328125 -1.75 L 6.484375 -1.234375 C 5.484375 -1.054688 4.566406 -0.898438 3.734375 -0.765625 C 2.910156 -0.640625 2.238281 -0.691406 1.71875 -0.921875 C 1.207031 -1.160156 0.875 -1.703125 0.71875 -2.546875 C 0.65625 -2.878906 0.609375 -3.171875 0.578125 -3.421875 C 0.554688 -3.679688 0.515625 -3.984375 0.453125 -4.328125 C 0.367188 -4.785156 0.28125 -5.222656 0.1875 -5.640625 C 0.09375 -6.066406 0.00390625 -6.507812 -0.078125 -6.96875 C -0.140625 -7.300781 -0.195312 -7.613281 -0.25 -7.90625 C -0.300781 -8.207031 -0.332031 -8.507812 -0.34375 -8.8125 C -0.363281 -9.164062 -0.382812 -9.566406 -0.40625 -10.015625 C -0.425781 -10.460938 -0.273438 -10.878906 0.046875 -11.265625 C 0.367188 -11.648438 0.953125 -11.921875 1.796875 -12.078125 C 2.210938 -12.148438 2.59375 -12.207031 2.9375 -12.25 C 3.28125 -12.289062 3.664062 -12.347656 4.09375 -12.421875 C 4.71875 -12.535156 5.28125 -12.644531 5.78125 -12.75 C 6.28125 -12.863281 6.867188 -12.984375 7.546875 -13.109375 C 8.429688 -13.265625 9.054688 -13.179688 9.421875 -12.859375 C 9.796875 -12.535156 10.039062 -12.09375 10.15625 -11.53125 C 10.28125 -10.96875 10.390625 -10.4375 10.484375 -9.9375 C 10.585938 -9.382812 10.664062 -8.894531 10.71875 -8.46875 C 10.769531 -8.039062 10.847656 -7.550781 10.953125 -7 C 11.003906 -6.664062 11.082031 -6.34375 11.1875 -6.03125 C 11.289062 -5.71875 11.367188 -5.394531 11.421875 -5.0625 Z M 11.421875 -5.0625 "/></g></g></g><g fill="#f5eded" fill-opacity="1"><g transform="translate(152.990725, 198.746797)"><g><path d="M 25.609375 -28.578125 C 25.804688 -27.429688 25.988281 -26.40625 26.15625 -25.5 C 26.332031 -24.601562 26.472656 -23.578125 26.578125 -22.421875 C 26.679688 -21.578125 26.757812 -20.472656 26.8125 -19.109375 C 26.863281 -17.753906 26.875 -16.390625 26.84375 -15.015625 C 26.820312 -13.640625 26.6875 -12.5 26.4375 -11.59375 C 26.25 -10.65625 25.984375 -9.84375 25.640625 -9.15625 C 25.304688 -8.476562 25 -7.914062 24.71875 -7.46875 C 23.851562 -6.195312 22.707031 -5.09375 21.28125 -4.15625 C 19.851562 -3.21875 17.914062 -2.539062 15.46875 -2.125 C 13.144531 -1.738281 11.085938 -1.832031 9.296875 -2.40625 C 7.515625 -2.976562 6.070312 -3.710938 4.96875 -4.609375 C 3.789062 -5.578125 2.75 -7.09375 1.84375 -9.15625 C 0.9375 -11.21875 0.132812 -13.691406 -0.5625 -16.578125 C -0.738281 -17.359375 -0.878906 -18.054688 -0.984375 -18.671875 C -1.085938 -19.285156 -1.226562 -20 -1.40625 -20.8125 C -1.5625 -21.425781 -1.691406 -21.984375 -1.796875 -22.484375 C -1.898438 -22.984375 -2.003906 -23.550781 -2.109375 -24.1875 C -2.171875 -24.5625 -2.253906 -25.257812 -2.359375 -26.28125 C -2.460938 -27.3125 -2.5625 -28.445312 -2.65625 -29.6875 C -2.757812 -30.9375 -2.832031 -32.078125 -2.875 -33.109375 C -2.914062 -34.140625 -2.929688 -34.851562 -2.921875 -35.25 C -2.847656 -36.1875 -2.707031 -37.050781 -2.5 -37.84375 C -2.289062 -38.632812 -2.125 -39.1875 -2 -39.5 C -1.34375 -41.53125 -0.234375 -43.328125 1.328125 -44.890625 C 2.890625 -46.453125 5.253906 -47.5 8.421875 -48.03125 C 11.503906 -48.550781 14.023438 -48.320312 15.984375 -47.34375 C 17.953125 -46.375 19.546875 -44.90625 20.765625 -42.9375 C 21.992188 -40.976562 22.976562 -38.78125 23.71875 -36.34375 C 24.21875 -34.6875 24.625 -33.175781 24.9375 -31.8125 C 25.257812 -30.457031 25.46875 -29.488281 25.5625 -28.90625 Z M 13.6875 -30.671875 C 13.507812 -31.734375 13.28125 -32.757812 13 -33.75 C 12.71875 -34.75 12.34375 -35.539062 11.875 -36.125 C 11.40625 -36.71875 10.789062 -36.953125 10.03125 -36.828125 L 9.90625 -36.8125 C 9.738281 -36.78125 9.578125 -36.710938 9.421875 -36.609375 C 9.273438 -36.503906 9.144531 -36.398438 9.03125 -36.296875 C 8.582031 -35.816406 8.3125 -35.144531 8.21875 -34.28125 C 8.125 -33.414062 8.113281 -32.554688 8.1875 -31.703125 C 8.269531 -30.859375 8.34375 -30.242188 8.40625 -29.859375 C 8.46875 -29.484375 8.539062 -29.109375 8.625 -28.734375 C 8.707031 -28.359375 8.78125 -27.976562 8.84375 -27.59375 C 8.925781 -27.132812 8.976562 -26.695312 9 -26.28125 C 9.03125 -25.875 9.082031 -25.441406 9.15625 -24.984375 C 9.25 -24.691406 9.332031 -24.378906 9.40625 -24.046875 C 9.488281 -23.710938 9.554688 -23.375 9.609375 -23.03125 C 9.671875 -22.695312 9.703125 -22.390625 9.703125 -22.109375 C 9.710938 -21.828125 9.742188 -21.515625 9.796875 -21.171875 C 9.828125 -20.710938 9.875 -20.28125 9.9375 -19.875 C 10 -19.476562 10.070312 -19.039062 10.15625 -18.5625 C 10.300781 -17.71875 10.484375 -16.96875 10.703125 -16.3125 C 10.921875 -15.65625 11.097656 -15.1875 11.234375 -14.90625 C 11.285156 -14.832031 11.390625 -14.601562 11.546875 -14.21875 C 11.703125 -13.832031 11.960938 -13.492188 12.328125 -13.203125 C 12.703125 -12.921875 13.1875 -12.832031 13.78125 -12.9375 C 14.28125 -13.019531 14.625 -13.175781 14.8125 -13.40625 C 15.269531 -14.019531 15.519531 -14.828125 15.5625 -15.828125 C 15.613281 -16.835938 15.578125 -17.84375 15.453125 -18.84375 C 15.335938 -19.84375 15.242188 -20.570312 15.171875 -21.03125 C 15.003906 -22.050781 14.835938 -22.96875 14.671875 -23.78125 C 14.503906 -24.59375 14.359375 -25.535156 14.234375 -26.609375 C 14.148438 -27.378906 14.066406 -28.054688 13.984375 -28.640625 C 13.910156 -29.234375 13.8125 -29.910156 13.6875 -30.671875 Z M 13.6875 -30.671875 "/></g></g></g><g fill="#f5eded" fill-opacity="1"><g transform="translate(184.258985, 193.499702)"><g><path d="M 26.125 -28.109375 C 26.289062 -26.960938 26.453125 -25.9375 26.609375 -25.03125 C 26.765625 -24.125 26.890625 -23.097656 26.984375 -21.953125 C 27.066406 -21.085938 27.117188 -19.972656 27.140625 -18.609375 C 27.171875 -17.253906 27.160156 -15.890625 27.109375 -14.515625 C 27.054688 -13.148438 26.898438 -12.019531 26.640625 -11.125 C 26.441406 -10.1875 26.164062 -9.375 25.8125 -8.6875 C 25.46875 -8.007812 25.148438 -7.457031 24.859375 -7.03125 C 23.960938 -5.769531 22.789062 -4.679688 21.34375 -3.765625 C 19.894531 -2.859375 17.945312 -2.21875 15.5 -1.84375 C 13.175781 -1.5 11.125 -1.628906 9.34375 -2.234375 C 7.5625 -2.847656 6.128906 -3.601562 5.046875 -4.5 C 3.890625 -5.5 2.875 -7.039062 2 -9.125 C 1.125 -11.21875 0.367188 -13.703125 -0.265625 -16.578125 C -0.421875 -17.378906 -0.539062 -18.082031 -0.625 -18.6875 C -0.71875 -19.300781 -0.847656 -20.007812 -1.015625 -20.8125 C -1.160156 -21.445312 -1.28125 -22.015625 -1.375 -22.515625 C -1.476562 -23.023438 -1.578125 -23.59375 -1.671875 -24.21875 C -1.722656 -24.601562 -1.789062 -25.304688 -1.875 -26.328125 C -1.957031 -27.359375 -2.039062 -28.492188 -2.125 -29.734375 C -2.207031 -30.984375 -2.257812 -32.125 -2.28125 -33.15625 C -2.3125 -34.195312 -2.3125 -34.910156 -2.28125 -35.296875 C -2.195312 -36.222656 -2.039062 -37.082031 -1.8125 -37.875 C -1.59375 -38.675781 -1.414062 -39.226562 -1.28125 -39.53125 C -0.59375 -41.539062 0.546875 -43.316406 2.140625 -44.859375 C 3.734375 -46.398438 6.117188 -47.410156 9.296875 -47.890625 C 12.378906 -48.347656 14.894531 -48.066406 16.84375 -47.046875 C 18.789062 -46.035156 20.359375 -44.535156 21.546875 -42.546875 C 22.734375 -40.566406 23.671875 -38.359375 24.359375 -35.921875 C 24.835938 -34.242188 25.21875 -32.722656 25.5 -31.359375 C 25.789062 -29.992188 25.984375 -29.019531 26.078125 -28.4375 Z M 14.21875 -30.421875 C 14.0625 -31.484375 13.851562 -32.515625 13.59375 -33.515625 C 13.332031 -34.515625 12.972656 -35.316406 12.515625 -35.921875 C 12.054688 -36.523438 11.445312 -36.769531 10.6875 -36.65625 L 10.5625 -36.640625 C 10.394531 -36.609375 10.234375 -36.539062 10.078125 -36.4375 C 9.921875 -36.332031 9.789062 -36.226562 9.6875 -36.125 C 9.21875 -35.65625 8.929688 -34.988281 8.828125 -34.125 C 8.722656 -33.269531 8.703125 -32.414062 8.765625 -31.5625 C 8.828125 -30.707031 8.890625 -30.085938 8.953125 -29.703125 C 9.003906 -29.328125 9.066406 -28.953125 9.140625 -28.578125 C 9.222656 -28.203125 9.296875 -27.820312 9.359375 -27.4375 C 9.421875 -26.96875 9.460938 -26.523438 9.484375 -26.109375 C 9.503906 -25.703125 9.550781 -25.269531 9.625 -24.8125 C 9.707031 -24.519531 9.785156 -24.207031 9.859375 -23.875 C 9.929688 -23.539062 9.988281 -23.203125 10.03125 -22.859375 C 10.082031 -22.523438 10.109375 -22.210938 10.109375 -21.921875 C 10.109375 -21.640625 10.132812 -21.328125 10.1875 -20.984375 C 10.207031 -20.523438 10.242188 -20.09375 10.296875 -19.6875 C 10.359375 -19.289062 10.425781 -18.851562 10.5 -18.375 C 10.625 -17.53125 10.789062 -16.78125 11 -16.125 C 11.207031 -15.46875 11.378906 -14.992188 11.515625 -14.703125 C 11.554688 -14.628906 11.648438 -14.394531 11.796875 -14 C 11.941406 -13.613281 12.195312 -13.273438 12.5625 -12.984375 C 12.9375 -12.691406 13.421875 -12.59375 14.015625 -12.6875 C 14.515625 -12.757812 14.859375 -12.910156 15.046875 -13.140625 C 15.523438 -13.742188 15.796875 -14.546875 15.859375 -15.546875 C 15.921875 -16.554688 15.898438 -17.5625 15.796875 -18.5625 C 15.691406 -19.5625 15.609375 -20.289062 15.546875 -20.75 C 15.390625 -21.769531 15.238281 -22.6875 15.09375 -23.5 C 14.945312 -24.320312 14.816406 -25.269531 14.703125 -26.34375 C 14.628906 -27.113281 14.554688 -27.796875 14.484375 -28.390625 C 14.421875 -28.984375 14.332031 -29.660156 14.21875 -30.421875 Z M 14.21875 -30.421875 "/></g></g></g><g fill="#f5eded" fill-opacity="1"><g transform="translate(215.61659, 188.815927)"><g><path d="M 26.625 -27.640625 C 26.769531 -26.492188 26.910156 -25.460938 27.046875 -24.546875 C 27.191406 -23.640625 27.300781 -22.609375 27.375 -21.453125 C 27.4375 -20.597656 27.46875 -19.488281 27.46875 -18.125 C 27.476562 -16.769531 27.445312 -15.40625 27.375 -14.03125 C 27.300781 -12.65625 27.125 -11.523438 26.84375 -10.640625 C 26.613281 -9.703125 26.316406 -8.894531 25.953125 -8.21875 C 25.597656 -7.550781 25.273438 -7.003906 24.984375 -6.578125 C 24.066406 -5.328125 22.878906 -4.257812 21.421875 -3.375 C 19.960938 -2.5 18.003906 -1.898438 15.546875 -1.578125 C 13.203125 -1.265625 11.144531 -1.425781 9.375 -2.0625 C 7.601562 -2.707031 6.1875 -3.492188 5.125 -4.421875 C 4 -5.441406 3.015625 -7 2.171875 -9.09375 C 1.335938 -11.1875 0.625 -13.679688 0.03125 -16.578125 C -0.113281 -17.378906 -0.222656 -18.085938 -0.296875 -18.703125 C -0.378906 -19.316406 -0.492188 -20.03125 -0.640625 -20.84375 C -0.773438 -21.457031 -0.882812 -22.019531 -0.96875 -22.53125 C -1.0625 -23.039062 -1.148438 -23.613281 -1.234375 -24.25 C -1.285156 -24.632812 -1.34375 -25.34375 -1.40625 -26.375 C -1.476562 -27.40625 -1.539062 -28.539062 -1.59375 -29.78125 C -1.644531 -31.019531 -1.675781 -32.15625 -1.6875 -33.1875 C -1.695312 -34.21875 -1.6875 -34.9375 -1.65625 -35.34375 C -1.550781 -36.257812 -1.378906 -37.113281 -1.140625 -37.90625 C -0.898438 -38.695312 -0.707031 -39.25 -0.5625 -39.5625 C 0.15625 -41.550781 1.320312 -43.300781 2.9375 -44.8125 C 4.5625 -46.320312 6.960938 -47.285156 10.140625 -47.703125 C 13.242188 -48.109375 15.757812 -47.785156 17.6875 -46.734375 C 19.613281 -45.691406 21.148438 -44.164062 22.296875 -42.15625 C 23.441406 -40.15625 24.347656 -37.925781 25.015625 -35.46875 C 25.453125 -33.789062 25.800781 -32.265625 26.0625 -30.890625 C 26.332031 -29.523438 26.503906 -28.550781 26.578125 -27.96875 Z M 14.765625 -30.171875 C 14.628906 -31.234375 14.4375 -32.265625 14.1875 -33.265625 C 13.945312 -34.265625 13.601562 -35.066406 13.15625 -35.671875 C 12.71875 -36.285156 12.113281 -36.546875 11.34375 -36.453125 L 11.21875 -36.4375 C 11.0625 -36.414062 10.898438 -36.347656 10.734375 -36.234375 C 10.578125 -36.128906 10.441406 -36.03125 10.328125 -35.9375 C 9.859375 -35.488281 9.5625 -34.832031 9.4375 -33.96875 C 9.320312 -33.101562 9.285156 -32.242188 9.328125 -31.390625 C 9.378906 -30.535156 9.429688 -29.921875 9.484375 -29.546875 C 9.535156 -29.160156 9.59375 -28.773438 9.65625 -28.390625 C 9.726562 -28.015625 9.789062 -27.632812 9.84375 -27.25 C 9.90625 -26.78125 9.941406 -26.34375 9.953125 -25.9375 C 9.960938 -25.53125 10 -25.09375 10.0625 -24.625 C 10.144531 -24.34375 10.21875 -24.03125 10.28125 -23.6875 C 10.34375 -23.34375 10.398438 -23.003906 10.453125 -22.671875 C 10.492188 -22.328125 10.507812 -22.015625 10.5 -21.734375 C 10.5 -21.453125 10.519531 -21.144531 10.5625 -20.8125 C 10.570312 -20.34375 10.601562 -19.90625 10.65625 -19.5 C 10.707031 -19.101562 10.765625 -18.664062 10.828125 -18.1875 C 10.941406 -17.34375 11.097656 -16.585938 11.296875 -15.921875 C 11.492188 -15.253906 11.648438 -14.78125 11.765625 -14.5 C 11.816406 -14.414062 11.910156 -14.175781 12.046875 -13.78125 C 12.179688 -13.394531 12.429688 -13.050781 12.796875 -12.75 C 13.160156 -12.445312 13.640625 -12.335938 14.234375 -12.421875 C 14.742188 -12.484375 15.09375 -12.632812 15.28125 -12.875 C 15.757812 -13.46875 16.039062 -14.265625 16.125 -15.265625 C 16.207031 -16.265625 16.207031 -17.265625 16.125 -18.265625 C 16.039062 -19.265625 15.972656 -20 15.921875 -20.46875 C 15.785156 -21.488281 15.648438 -22.410156 15.515625 -23.234375 C 15.378906 -24.066406 15.269531 -25.015625 15.1875 -26.078125 C 15.125 -26.847656 15.0625 -27.53125 15 -28.125 C 14.945312 -28.71875 14.867188 -29.398438 14.765625 -30.171875 Z M 14.765625 -30.171875 "/></g></g></g></svg>