<svg xmlns="http://www.w3.org/2000/svg" xmlns:xlink="http://www.w3.org/1999/xlink" width="528" zoomAndPan="magnify" viewBox="0 0 396 368.999991" height="492" preserveAspectRatio="xMidYMid meet" version="1.0"><defs><g/><clipPath id="38f5310933"><path d="M 0 0 L 395.25 0 L 395.25 369 L 0 369 Z M 0 0 " clip-rule="nonzero"/></clipPath></defs><g clip-path="url(#38f5310933)"><path fill="#7fa1c3" d="M 343.207031 225.800781 C 331.882812 212.011719 306.769531 220.875 294.953125 207.582031 C 286.582031 198.71875 289.535156 183.453125 296.921875 173.605469 C 304.308594 163.757812 315.140625 157.355469 324.003906 148.984375 C 330.40625 143.074219 335.820312 135.195312 336.804688 126.824219 C 338.28125 117.960938 334.34375 108.113281 326.464844 104.667969 C 321.050781 102.207031 314.15625 102.699219 308.246094 104.175781 C 291.503906 107.621094 272.792969 112.054688 259.5 101.714844 C 239.800781 85.957031 245.21875 53.457031 228.96875 35.238281 C 228.476562 34.746094 227.984375 34.253906 227.492188 33.761719 C 206.316406 13.082031 192.039062 39.671875 182.683594 59.367188 C 180.714844 63.796875 178.742188 68.230469 177.265625 71.183594 C 162.988281 99.742188 131.472656 89.894531 112.269531 71.675781 C 104.882812 64.78125 97.003906 57.398438 87.15625 54.441406 C 77.308594 51.488281 64.996094 54.933594 61.058594 64.289062 C 53.179688 82.507812 74.351562 101.222656 79.769531 116.484375 C 83.710938 127.320312 84.695312 140.613281 78.785156 150.953125 C 70.414062 166.21875 51.703125 172.128906 36.4375 180.5 C 21.664062 188.871094 8.371094 202.164062 4.433594 218.90625 C 0.492188 235.648438 7.878906 255.34375 23.636719 262.238281 C 42.839844 270.117188 65.488281 257.804688 84.695312 265.683594 C 98.972656 271.59375 106.851562 286.859375 111.285156 301.628906 C 115.222656 316.402344 117.191406 332.160156 125.070312 345.945312 C 132.457031 359.242188 148.707031 370.074219 163.480469 364.660156 C 167.417969 363.179688 170.371094 361.210938 173.328125 358.257812 C 177.757812 353.824219 181.207031 347.425781 183.175781 341.515625 C 186.621094 331.667969 188.589844 321.328125 193.023438 311.476562 C 209.273438 278.488281 245.21875 278.488281 275.746094 282.425781 C 296.429688 284.886719 318.09375 278.488281 333.359375 264.699219 C 344.683594 254.359375 352.5625 237.125 343.207031 225.800781 Z M 334.34375 35.730469 C 330.40625 31.300781 324.988281 28.835938 319.078125 28.835938 C 315.140625 28.835938 311.199219 29.328125 307.261719 30.808594 C 305.785156 31.300781 303.816406 31.792969 302.335938 32.777344 C 286.582031 40.164062 266.882812 60.84375 269.347656 79.554688 C 269.839844 81.523438 270.332031 83.988281 272.300781 84.972656 C 274.269531 85.957031 277.226562 84.972656 279.195312 83.988281 C 279.6875 83.988281 280.179688 83.496094 280.671875 83.496094 C 298.890625 75.617188 326.464844 79.554688 336.3125 58.382812 C 339.761719 50.996094 339.269531 41.640625 334.34375 35.730469 Z M 54.164062 124.855469 C 52.6875 122.886719 51.210938 121.410156 49.242188 119.441406 C 41.363281 113.039062 31.023438 109.097656 21.171875 109.59375 C 16.25 109.59375 10.832031 111.070312 6.894531 114.023438 C 2.953125 116.976562 0.492188 122.394531 0.984375 127.320312 C 1.96875 132.734375 6.402344 136.183594 11.816406 137.660156 C 13.789062 138.152344 16.25 138.644531 18.21875 138.644531 C 25.605469 138.644531 32.992188 136.183594 40.378906 135.6875 C 44.316406 135.6875 54.164062 138.644531 57.121094 136.183594 C 60.074219 133.71875 56.132812 127.320312 54.164062 124.855469 Z M 281.65625 348.410156 C 281.164062 344.960938 280.671875 342.007812 279.195312 338.5625 C 278.703125 337.574219 278.210938 337.082031 278.210938 336.097656 C 272.300781 325.265625 262.453125 317.386719 251.621094 311.972656 C 248.664062 310.492188 235.371094 304.585938 227.984375 305.570312 C 225.03125 306.0625 223.058594 307.046875 223.058594 310 C 223.058594 310.984375 223.550781 311.972656 224.042969 312.957031 C 228.476562 322.804688 231.921875 330.683594 232.414062 341.515625 C 232.910156 350.871094 231.429688 361.210938 236.847656 369.582031 C 241.773438 376.96875 251.128906 381.398438 260.484375 379.429688 C 275.253906 376.96875 283.132812 362.6875 281.65625 348.410156 Z M 70.90625 283.410156 C 69.921875 283.410156 69.429688 283.410156 68.445312 283.902344 C 66.476562 284.394531 64.996094 284.886719 63.027344 285.382812 C 58.105469 286.859375 53.179688 289.320312 48.75 292.273438 C 39.886719 298.183594 32.5 306.0625 27.574219 314.925781 C 23.636719 322.3125 21.171875 330.683594 23.144531 338.5625 C 24.621094 346.4375 31.023438 353.824219 39.390625 354.808594 C 40.378906 354.808594 41.363281 354.808594 42.347656 354.808594 C 50.71875 354.316406 58.105469 347.425781 61.058594 339.546875 C 64.996094 330.683594 64.996094 320.835938 65.488281 311.476562 C 66.476562 302.121094 68.445312 291.78125 74.847656 284.886719 C 77.308594 283.410156 70.90625 283.410156 70.90625 283.410156 Z M 153.628906 59.367188 C 153.136719 57.890625 152.644531 55.917969 151.660156 54.441406 C 149.199219 47.546875 148.214844 39.671875 148.707031 32.285156 C 149.199219 24.898438 151.660156 17.511719 151.167969 10.125 C 151.167969 2.738281 147.722656 -5.632812 140.828125 -8.585938 C 132.457031 -12.03125 122.609375 -6.125 119.164062 2.246094 C 115.714844 10.617188 117.191406 19.972656 120.640625 28.34375 C 125.070312 40.164062 134.917969 56.410156 147.230469 62.320312 C 153.628906 64.289062 154.617188 62.8125 153.628906 59.367188 Z M 394.910156 190.839844 C 394.417969 186.898438 391.957031 182.960938 389.492188 179.511719 C 389.492188 179.511719 389 179.019531 389 179.019531 C 384.570312 173.113281 378.167969 168.1875 370.78125 165.726562 C 360.933594 162.773438 350.59375 164.25 341.238281 167.695312 C 336.3125 169.664062 306.277344 183.453125 315.632812 190.347656 C 317.109375 191.332031 319.078125 191.824219 320.554688 191.824219 C 321.542969 191.824219 323.019531 191.824219 324.496094 191.824219 C 335.820312 192.316406 347.148438 194.777344 357.488281 199.703125 C 362.902344 202.164062 368.320312 205.609375 374.230469 207.089844 C 380.136719 208.566406 387.03125 207.582031 391.464844 203.148438 C 394.417969 200.195312 395.402344 195.269531 394.910156 190.839844 Z M 394.910156 190.839844 " fill-opacity="1" fill-rule="nonzero"/></g><path fill="#7fa1c3" d="M 228.96875 35.238281 C 224.539062 34.253906 219.121094 34.746094 215.179688 37.207031 C 206.8125 42.132812 202.378906 51.488281 199.917969 60.84375 C 197.453125 70.199219 195.976562 80.046875 192.039062 88.910156 C 183.175781 106.144531 161.015625 115.992188 142.304688 111.070312 C 133.441406 108.605469 122.609375 103.683594 115.222656 109.59375 C 108.328125 115.5 111.285156 126.332031 112.761719 135.195312 C 114.730469 149.476562 111.285156 164.742188 103.40625 176.066406 C 96.019531 186.40625 84.695312 196.746094 87.15625 209.058594 C 89.617188 220.382812 101.929688 225.800781 110.792969 233.1875 C 124.085938 244.511719 129.503906 262.730469 130.980469 279.964844 C 132.949219 297.199219 131.472656 314.925781 134.917969 331.667969 C 136.398438 340.039062 139.351562 348.410156 145.261719 354.808594 C 151.167969 361.210938 160.523438 364.164062 168.402344 360.71875 C 169.878906 360.226562 171.355469 359.242188 172.835938 357.765625 C 170.371094 360.71875 166.925781 362.6875 162.988281 364.164062 C 148.214844 369.582031 132.457031 359.242188 124.578125 345.453125 C 117.191406 332.160156 115.222656 316.402344 110.792969 301.136719 C 106.359375 286.367188 98.480469 271.101562 84.203125 265.191406 C 64.996094 257.3125 41.855469 270.117188 23.144531 261.746094 C 7.386719 254.851562 0 235.15625 3.9375 218.414062 C 7.878906 201.671875 21.171875 188.375 35.945312 180.007812 C 51.210938 171.636719 69.921875 165.726562 78.292969 150.460938 C 83.710938 140.121094 83.214844 127.320312 79.277344 115.992188 C 73.859375 100.726562 52.6875 82.015625 60.566406 63.796875 C 64.503906 54.441406 76.816406 50.996094 86.664062 53.949219 C 96.511719 56.90625 104.390625 63.796875 111.777344 71.183594 C 130.980469 89.402344 162.492188 99.742188 176.773438 70.691406 C 178.25 67.738281 180.222656 63.304688 182.191406 58.875 C 191.546875 39.175781 205.824219 13.082031 227 33.269531 C 227.984375 34.253906 228.476562 34.746094 228.96875 35.238281 Z M 153.628906 59.367188 C 152.644531 57.890625 151.660156 56.90625 151.167969 55.425781 C 141.8125 44.101562 133.933594 30.808594 132.949219 16.527344 C 132.457031 7.171875 135.410156 -2.183594 141.320312 -9.078125 C 132.949219 -12.523438 123.101562 -6.617188 119.65625 1.753906 C 116.207031 10.125 117.683594 19.480469 121.132812 27.851562 C 125.5625 39.671875 135.410156 55.917969 147.722656 61.828125 C 153.628906 64.289062 154.617188 62.8125 153.628906 59.367188 Z M 21.171875 110.085938 C 16.25 110.085938 10.832031 111.5625 6.894531 114.515625 C 2.953125 117.46875 0.492188 122.886719 0.984375 127.8125 C 1.96875 133.226562 6.402344 136.675781 11.816406 138.152344 C 13.789062 134.703125 14.773438 130.765625 17.234375 127.8125 C 21.171875 121.410156 29.542969 117.960938 36.929688 117.46875 C 40.871094 117.46875 45.300781 118.949219 49.242188 119.933594 C 41.363281 113.53125 31.023438 109.59375 21.171875 110.085938 Z M 63.519531 285.382812 C 58.597656 286.859375 53.671875 289.320312 49.242188 292.273438 C 40.378906 298.183594 32.992188 306.0625 28.066406 314.925781 C 24.128906 322.3125 21.664062 330.683594 23.636719 338.5625 C 25.113281 346.4375 31.515625 353.824219 39.886719 354.808594 C 40.871094 354.808594 41.855469 354.808594 42.839844 354.808594 C 37.914062 341.515625 38.40625 325.757812 44.316406 312.957031 C 48.75 302.613281 56.132812 296.707031 64.011719 289.320312 C 66.476562 287.351562 67.953125 284.886719 68.9375 283.410156 C 66.96875 284.394531 64.996094 284.886719 63.519531 285.382812 Z M 281.65625 348.410156 C 280.179688 352.347656 277.71875 356.289062 274.761719 359.734375 C 267.375 367.613281 253.097656 370.074219 245.710938 362.195312 C 236.355469 352.347656 243.25 335.605469 236.355469 323.789062 C 233.894531 318.863281 228.96875 315.417969 227.492188 310 C 227 309.015625 227.492188 307.539062 227.492188 305.570312 C 224.539062 306.0625 222.566406 307.046875 222.566406 310 C 222.566406 310.984375 223.058594 311.972656 223.550781 312.957031 C 227.984375 322.804688 231.429688 330.683594 231.921875 341.515625 C 232.414062 350.871094 230.9375 361.210938 236.355469 369.582031 C 241.277344 376.96875 250.636719 381.398438 259.992188 379.429688 C 275.253906 376.96875 283.132812 362.6875 281.65625 348.410156 Z M 389 179.019531 C 384.570312 173.113281 378.167969 168.1875 370.78125 165.726562 C 360.933594 162.773438 350.59375 164.25 341.238281 167.695312 C 336.3125 169.664062 306.277344 183.453125 315.632812 190.347656 C 317.109375 191.332031 319.078125 191.824219 320.554688 191.824219 C 332.375 180.5 348.625 174.097656 364.875 174.589844 C 373.242188 174.589844 381.121094 176.558594 389 180.007812 C 389.492188 179.019531 389 179.019531 389 179.019531 Z M 302.335938 32.285156 C 286.582031 39.671875 266.882812 60.351562 269.347656 79.0625 C 269.839844 81.03125 270.332031 83.496094 272.300781 84.480469 C 274.269531 85.464844 277.226562 84.480469 279.195312 83.496094 C 279.6875 83.496094 280.179688 83 280.671875 83 C 282.148438 80.539062 283.132812 77.09375 284.117188 74.136719 C 288.550781 59.859375 292.488281 45.085938 302.828125 34.253906 C 304.308594 32.777344 305.292969 31.792969 306.769531 30.3125 C 305.292969 31.300781 303.816406 31.792969 302.335938 32.285156 Z M 302.335938 32.285156 " fill-opacity="1" fill-rule="nonzero"/><path fill="#7fa1c3" d="M 261.46875 138.644531 C 258.511719 140.121094 255.558594 140.613281 251.621094 139.628906 C 249.15625 139.136719 246.695312 138.152344 244.726562 136.675781 C 240.292969 134.703125 236.355469 131.257812 233.402344 127.8125 C 229.953125 123.871094 227.492188 119.441406 226.015625 114.023438 C 225.523438 111.5625 225.03125 109.097656 225.03125 106.636719 C 225.03125 105.160156 225.03125 103.683594 225.523438 102.207031 C 226.015625 100.730469 227 99.742188 227.492188 98.757812 C 228.96875 96.789062 231.921875 96.296875 233.402344 98.757812 C 233.402344 98.757812 234.386719 99.742188 233.894531 99.25 C 234.386719 99.742188 234.878906 100.234375 235.371094 100.730469 C 235.863281 101.714844 236.355469 103.191406 236.847656 104.175781 C 237.339844 105.160156 237.339844 106.144531 237.832031 107.128906 C 237.832031 107.621094 238.324219 108.113281 238.324219 108.605469 C 238.324219 108.605469 238.324219 109.097656 238.816406 109.59375 C 238.816406 110.085938 239.308594 110.085938 239.308594 110.578125 C 239.308594 111.070312 239.800781 111.5625 239.800781 112.054688 C 240.292969 113.039062 240.785156 114.023438 241.277344 114.515625 C 241.769531 115.007812 242.265625 115.992188 242.757812 116.484375 C 242.757812 116.484375 243.25 116.976562 243.25 117.46875 C 243.742188 117.960938 243.742188 117.960938 244.234375 118.457031 C 244.726562 118.949219 245.710938 119.933594 246.203125 120.425781 C 246.203125 120.425781 247.1875 121.410156 247.1875 121.410156 C 247.1875 121.410156 246.695312 120.917969 246.695312 120.917969 C 247.1875 120.917969 247.1875 121.410156 247.679688 121.410156 C 249.15625 122.394531 251.128906 123.378906 252.605469 124.363281 C 253.097656 124.363281 253.589844 124.855469 253.589844 124.855469 C 255.066406 125.347656 256.542969 125.839844 257.527344 126.332031 C 257.527344 126.332031 257.035156 126.332031 257.035156 125.839844 C 257.527344 125.839844 258.019531 126.332031 258.511719 126.332031 C 259.003906 126.824219 259.5 126.824219 259.992188 127.320312 C 259.5 127.320312 262.453125 129.289062 260.976562 128.304688 C 261.46875 128.796875 261.960938 129.289062 262.945312 129.78125 C 264.914062 132.734375 264.421875 137.660156 261.46875 138.644531 Z M 283.132812 126.332031 C 276.730469 126.332031 276.730469 136.183594 283.132812 136.183594 C 289.535156 136.183594 289.535156 126.332031 283.132812 126.332031 Z M 307.261719 243.035156 C 301.84375 240.570312 295.445312 245.496094 290.027344 246.972656 C 284.117188 248.449219 277.71875 248.941406 271.316406 249.433594 C 257.527344 249.925781 243.25 248.941406 229.460938 251.898438 C 206.8125 256.820312 188.097656 271.101562 175.789062 290.304688 C 174.3125 292.765625 178.25 296.214844 180.222656 293.75 C 194.992188 276.023438 218.136719 263.714844 241.277344 262.238281 C 255.066406 261.746094 268.363281 263.714844 281.65625 262.238281 C 291.011719 261.253906 309.230469 259.285156 310.214844 247.464844 C 310.707031 245.496094 309.230469 244.019531 307.261719 243.035156 Z M 330.40625 236.140625 C 330.40625 235.15625 329.914062 234.664062 329.417969 234.171875 C 328.925781 233.679688 328.433594 233.1875 327.941406 233.1875 C 327.449219 232.695312 326.957031 232.695312 325.972656 232.695312 C 324.988281 232.695312 324.496094 232.695312 323.511719 233.1875 C 323.019531 233.679688 322.527344 233.679688 322.035156 234.171875 C 321.542969 234.664062 321.542969 234.664062 321.542969 235.15625 C 321.542969 235.15625 321.542969 235.648438 321.050781 235.648438 C 321.050781 235.648438 321.050781 235.648438 321.050781 236.140625 C 321.050781 236.140625 321.050781 236.632812 320.554688 236.632812 C 320.554688 237.125 320.554688 237.617188 320.0625 238.109375 C 320.0625 238.601562 320.0625 239.09375 320.0625 240.078125 C 320.0625 240.570312 320.0625 241.0625 320.554688 241.558594 L 321.050781 242.542969 C 321.542969 243.035156 322.035156 243.035156 322.527344 243.527344 C 323.019531 243.527344 323.019531 244.019531 323.511719 244.019531 C 324.003906 244.019531 324.496094 244.019531 325.480469 244.019531 C 325.972656 244.019531 325.972656 243.527344 326.464844 243.527344 C 326.957031 243.035156 327.449219 242.542969 327.941406 242.050781 C 328.433594 241.0625 328.925781 240.570312 328.925781 239.585938 C 328.925781 239.585938 328.925781 239.09375 328.925781 239.09375 C 328.925781 239.09375 328.925781 239.09375 328.925781 238.601562 C 328.925781 238.109375 328.925781 237.617188 328.925781 236.632812 C 330.898438 236.632812 330.898438 236.632812 330.40625 236.140625 Z M 326.464844 47.054688 C 326.464844 48.042969 326.464844 49.027344 325.972656 50.011719 C 325.972656 50.503906 325.480469 51.488281 324.988281 51.980469 C 324.003906 52.964844 323.019531 53.949219 321.542969 54.441406 C 321.542969 54.441406 321.050781 54.441406 321.050781 54.441406 C 321.050781 54.441406 320.554688 54.441406 320.554688 54.441406 C 319.078125 54.933594 317.109375 54.441406 316.125 53.457031 C 315.140625 52.472656 314.648438 51.488281 314.648438 50.011719 C 314.648438 49.027344 314.648438 48.042969 314.648438 47.546875 C 314.648438 47.546875 314.648438 47.054688 314.648438 47.054688 C 314.648438 47.054688 314.648438 46.5625 314.648438 46.5625 C 314.648438 46.5625 314.648438 46.070312 314.648438 46.070312 C 314.648438 45.578125 314.648438 45.085938 314.15625 45.085938 C 314.15625 45.085938 314.15625 45.578125 314.648438 45.578125 C 314.648438 45.085938 314.15625 44.59375 314.15625 44.101562 C 314.15625 43.609375 313.664062 43.117188 313.664062 42.625 C 313.664062 42.625 313.664062 42.625 313.664062 42.132812 C 313.664062 42.132812 313.664062 41.640625 313.664062 41.640625 C 313.171875 40.65625 313.171875 39.671875 313.664062 38.683594 C 314.15625 37.699219 314.648438 37.207031 315.632812 36.714844 C 317.601562 36.222656 319.570312 36.222656 321.050781 37.207031 C 322.035156 37.699219 322.527344 38.191406 323.019531 38.683594 C 324.003906 39.671875 324.496094 40.65625 324.988281 42.132812 C 326.464844 44.101562 326.957031 45.578125 326.464844 47.054688 Z M 145.753906 7.664062 C 145.753906 6.679688 145.261719 5.695312 145.261719 4.21875 C 145.261719 3.722656 144.765625 3.230469 144.273438 2.738281 C 143.78125 2.246094 143.289062 2.246094 142.796875 2.246094 C 142.304688 2.246094 141.8125 2.246094 141.320312 2.738281 C 140.828125 3.230469 140.335938 3.722656 140.335938 4.21875 C 140.335938 5.203125 139.84375 6.1875 139.84375 7.664062 C 139.84375 8.15625 139.84375 8.648438 139.84375 9.140625 C 139.84375 9.632812 139.84375 9.632812 139.84375 10.125 C 139.84375 10.617188 139.84375 11.601562 140.335938 12.09375 C 140.828125 12.585938 140.828125 13.082031 141.8125 13.574219 C 142.304688 14.066406 142.796875 14.066406 143.289062 14.066406 C 143.78125 14.066406 144.273438 14.066406 144.765625 13.574219 C 145.261719 13.574219 145.753906 12.585938 146.246094 12.09375 C 146.738281 11.601562 146.738281 11.109375 146.738281 10.125 C 146.738281 9.632812 146.738281 9.632812 146.738281 9.140625 C 145.753906 8.648438 145.753906 8.15625 145.753906 7.664062 Z M 385.0625 193.300781 C 383.585938 191.824219 381.613281 191.332031 379.644531 191.824219 C 379.152344 191.824219 378.167969 192.316406 377.675781 192.316406 C 377.675781 192.316406 377.183594 192.316406 377.183594 192.316406 C 377.183594 192.316406 377.183594 192.316406 376.691406 192.316406 C 376.691406 192.316406 376.199219 192.316406 376.199219 192.316406 C 375.707031 192.316406 375.214844 192.316406 374.230469 192.316406 C 373.738281 192.316406 373.738281 192.316406 373.242188 192.316406 C 371.765625 191.824219 370.289062 191.824219 369.304688 191.332031 C 368.8125 191.332031 368.8125 191.332031 368.320312 190.839844 C 368.320312 190.839844 367.828125 190.839844 367.828125 190.839844 C 367.335938 190.347656 366.351562 190.347656 365.859375 189.855469 C 364.875 188.871094 362.410156 189.363281 361.425781 190.347656 C 360.441406 191.332031 359.949219 193.300781 360.933594 194.777344 C 361.917969 196.253906 362.902344 197.238281 363.886719 198.226562 C 365.367188 199.703125 366.84375 200.195312 368.8125 201.179688 C 371.765625 202.164062 374.722656 202.65625 378.167969 202.164062 C 380.136719 201.671875 382.601562 201.179688 384.078125 199.703125 C 386.539062 197.238281 386.539062 194.777344 385.0625 193.300781 Z M 377.183594 192.316406 C 377.183594 191.824219 377.183594 191.824219 377.183594 192.316406 C 377.675781 191.824219 377.183594 191.824219 377.183594 192.316406 Z M 265.40625 333.144531 C 265.40625 332.160156 264.914062 331.175781 264.421875 330.683594 C 263.4375 329.203125 262.453125 328.21875 261.46875 327.234375 C 260.976562 326.742188 260.484375 326.25 259.992188 326.25 C 259.5 325.757812 259.003906 325.265625 258.511719 325.265625 C 258.019531 325.265625 258.019531 324.773438 257.527344 324.773438 C 256.050781 324.28125 254.574219 323.789062 253.097656 323.296875 C 252.113281 322.804688 250.636719 323.296875 250.140625 324.773438 C 249.648438 325.757812 249.648438 327.234375 250.636719 328.21875 C 251.621094 329.203125 252.605469 329.699219 253.097656 330.683594 C 253.589844 331.175781 254.082031 331.667969 254.574219 332.160156 C 255.066406 332.652344 255.558594 333.144531 256.050781 333.636719 C 257.035156 334.621094 257.527344 335.605469 258.511719 336.589844 C 259.5 337.574219 260.976562 338.5625 262.453125 339.054688 C 263.929688 339.546875 265.40625 338.5625 265.40625 337.082031 C 265.40625 336.589844 265.40625 336.097656 265.40625 335.605469 C 265.898438 334.128906 265.40625 333.636719 265.40625 333.144531 Z M 266.882812 342.5 C 262.945312 342.5 262.945312 348.410156 266.882812 348.410156 C 270.824219 348.902344 270.824219 342.5 266.882812 342.5 Z M 53.671875 323.789062 C 53.671875 323.789062 54.164062 323.296875 53.671875 323.789062 Z M 58.105469 315.417969 C 56.132812 315.417969 54.65625 316.894531 54.65625 318.863281 C 54.65625 319.355469 54.65625 319.355469 54.65625 319.847656 C 54.65625 319.847656 54.65625 319.847656 54.65625 320.339844 C 54.65625 320.835938 54.65625 321.820312 54.164062 322.3125 C 54.164062 322.804688 53.671875 323.789062 53.671875 324.28125 C 53.671875 324.28125 53.671875 324.773438 53.671875 324.773438 C 53.671875 325.265625 53.179688 325.265625 53.179688 325.757812 C 52.6875 326.25 52.6875 326.742188 52.195312 327.234375 C 52.195312 327.234375 51.703125 327.726562 51.703125 327.726562 C 51.703125 327.726562 52.195312 327.234375 51.703125 327.726562 C 51.703125 327.726562 51.703125 327.726562 51.703125 328.21875 C 51.210938 328.710938 50.71875 329.203125 50.226562 329.699219 C 49.734375 330.191406 49.242188 331.175781 48.75 331.667969 C 47.761719 332.652344 48.253906 334.621094 49.242188 335.605469 C 50.226562 336.589844 51.703125 337.574219 53.179688 337.082031 C 53.671875 337.082031 54.164062 336.589844 54.65625 336.589844 C 55.148438 336.097656 55.640625 336.097656 56.132812 335.605469 C 56.625 335.113281 57.613281 334.128906 58.105469 333.144531 C 59.089844 332.160156 59.582031 330.683594 60.566406 329.203125 C 62.042969 326.25 62.535156 322.804688 62.535156 319.355469 C 61.550781 316.894531 60.074219 315.417969 58.105469 315.417969 Z M 51.703125 327.234375 Z M 42.839844 125.839844 C 42.347656 125.347656 41.855469 124.855469 41.363281 124.855469 C 39.886719 124.855469 38.898438 124.363281 37.421875 124.855469 C 36.4375 125.347656 35.453125 125.347656 34.960938 125.839844 C 34.46875 125.839844 34.46875 126.332031 33.976562 126.332031 C 33.976562 126.332031 33.484375 126.332031 33.484375 126.332031 L 31.023438 126.824219 C 29.050781 127.320312 29.542969 130.273438 31.515625 130.273438 C 32.5 130.273438 32.992188 130.273438 33.976562 130.273438 C 33.976562 130.273438 34.46875 130.273438 34.46875 130.273438 C 34.960938 130.273438 34.960938 130.273438 35.453125 130.273438 C 36.4375 130.273438 37.421875 130.765625 38.40625 130.765625 C 39.886719 130.765625 40.871094 130.273438 41.855469 129.78125 C 42.347656 129.78125 42.839844 129.289062 42.839844 128.796875 C 43.332031 128.304688 43.332031 127.320312 43.332031 126.824219 C 43.332031 126.332031 42.839844 125.839844 42.839844 125.839844 Z M 42.839844 125.839844 " fill-opacity="1" fill-rule="nonzero"/><g fill="#f5eded" fill-opacity="0.4"><g transform="translate(82.094313, 222.290888)"><g><path d="M 25.75 -21.828125 C 25.757812 -21.742188 25.828125 -21.175781 25.953125 -20.125 C 26.078125 -19.082031 26.132812 -17.867188 26.125 -16.484375 C 26.125 -15.109375 25.929688 -13.8125 25.546875 -12.59375 C 25.191406 -11.457031 24.609375 -10.226562 23.796875 -8.90625 C 22.992188 -7.582031 21.898438 -6.382812 20.515625 -5.3125 C 19.128906 -4.238281 17.394531 -3.472656 15.3125 -3.015625 C 14.769531 -2.890625 14.289062 -2.800781 13.875 -2.75 C 13.46875 -2.707031 13.164062 -2.6875 12.96875 -2.6875 C 12.050781 -2.613281 11.253906 -2.566406 10.578125 -2.546875 C 9.910156 -2.523438 9.238281 -2.601562 8.5625 -2.78125 C 7.882812 -2.957031 7.019531 -3.242188 5.96875 -3.640625 C 5.53125 -3.804688 5.019531 -4.015625 4.4375 -4.265625 C 3.863281 -4.523438 3.144531 -5.023438 2.28125 -5.765625 C 1.570312 -6.367188 1.097656 -6.859375 0.859375 -7.234375 C 0.628906 -7.617188 0.476562 -7.957031 0.40625 -8.25 C 0.226562 -9.082031 0.332031 -9.738281 0.71875 -10.21875 C 1.113281 -10.707031 1.4375 -11.085938 1.6875 -11.359375 C 2.03125 -11.785156 2.3125 -12.1875 2.53125 -12.5625 C 2.757812 -12.945312 3.023438 -13.351562 3.328125 -13.78125 C 3.484375 -14.019531 3.601562 -14.242188 3.6875 -14.453125 C 3.769531 -14.671875 3.894531 -14.894531 4.0625 -15.125 C 4.46875 -15.519531 4.878906 -15.757812 5.296875 -15.84375 C 5.890625 -15.925781 6.390625 -15.738281 6.796875 -15.28125 C 7.203125 -14.832031 7.4375 -14.566406 7.5 -14.484375 C 7.757812 -14.328125 7.894531 -14.21875 7.90625 -14.15625 C 7.914062 -14.101562 8.09375 -14 8.4375 -13.84375 C 9.082031 -13.550781 9.632812 -13.398438 10.09375 -13.390625 C 10.550781 -13.378906 11.023438 -13.429688 11.515625 -13.546875 C 12.898438 -13.847656 13.789062 -14.582031 14.1875 -15.75 C 14.582031 -16.914062 14.664062 -18.019531 14.4375 -19.0625 C 14.113281 -20.519531 13.59375 -21.585938 12.875 -22.265625 C 12.15625 -22.941406 11.382812 -23.351562 10.5625 -23.5 C 9.738281 -23.644531 8.976562 -23.671875 8.28125 -23.578125 C 7.582031 -23.492188 7.0625 -23.414062 6.71875 -23.34375 C 6.21875 -23.238281 5.882812 -23.117188 5.71875 -22.984375 C 5.550781 -22.859375 5.304688 -22.71875 4.984375 -22.5625 C 4.753906 -22.414062 4.570312 -22.25 4.4375 -22.0625 C 4.300781 -21.882812 4.109375 -21.769531 3.859375 -21.71875 C 3.578125 -21.601562 3.144531 -21.664062 2.5625 -21.90625 C 1.976562 -22.15625 1.554688 -22.40625 1.296875 -22.65625 C 1.179688 -22.726562 1.085938 -22.863281 1.015625 -23.0625 C 0.953125 -23.269531 0.910156 -23.429688 0.890625 -23.546875 L 0.59375 -24.859375 C 0.28125 -26.285156 0.0351562 -27.5625 -0.140625 -28.6875 C -0.328125 -29.8125 -0.570312 -31.0625 -0.875 -32.4375 C -1.039062 -33.195312 -1.203125 -33.875 -1.359375 -34.46875 C -1.523438 -35.070312 -1.6875 -35.726562 -1.84375 -36.4375 C -1.9375 -36.851562 -2.003906 -37.21875 -2.046875 -37.53125 C -2.085938 -37.851562 -2.132812 -38.226562 -2.1875 -38.65625 C -2.289062 -39.238281 -2.390625 -39.75 -2.484375 -40.1875 C -2.578125 -40.625 -2.6875 -41.117188 -2.8125 -41.671875 C -2.863281 -41.921875 -2.921875 -42.148438 -2.984375 -42.359375 C -3.046875 -42.566406 -3.109375 -42.796875 -3.171875 -43.046875 L -3.1875 -43.109375 C -3.34375 -43.816406 -3.191406 -44.484375 -2.734375 -45.109375 C -2.285156 -45.742188 -1.734375 -46.132812 -1.078125 -46.28125 C -0.703125 -46.363281 -0.359375 -46.414062 -0.046875 -46.4375 C 0.253906 -46.457031 0.613281 -46.515625 1.03125 -46.609375 C 1.820312 -46.785156 2.53125 -46.929688 3.15625 -47.046875 C 3.789062 -47.160156 4.503906 -47.332031 5.296875 -47.5625 C 5.878906 -47.6875 6.40625 -47.820312 6.875 -47.96875 C 7.351562 -48.125 7.878906 -48.265625 8.453125 -48.390625 C 9.003906 -48.515625 9.476562 -48.609375 9.875 -48.671875 C 10.28125 -48.742188 10.734375 -48.832031 11.234375 -48.9375 L 14.4375 -49.65625 C 14.644531 -49.695312 14.835938 -49.757812 15.015625 -49.84375 C 15.191406 -49.925781 15.40625 -50 15.65625 -50.0625 C 16.28125 -50.195312 16.75 -50.109375 17.0625 -49.796875 C 17.375 -49.492188 17.585938 -49.171875 17.703125 -48.828125 C 17.816406 -48.484375 17.878906 -48.289062 17.890625 -48.25 C 17.984375 -47.832031 18.054688 -47.460938 18.109375 -47.140625 C 18.171875 -46.828125 18.242188 -46.460938 18.328125 -46.046875 C 18.453125 -45.503906 18.570312 -44.992188 18.6875 -44.515625 C 18.8125 -44.035156 18.941406 -43.503906 19.078125 -42.921875 C 19.253906 -42.128906 19.28125 -41.507812 19.15625 -41.0625 C 19.039062 -40.625 18.671875 -40.332031 18.046875 -40.1875 C 16.710938 -39.894531 15.492188 -39.648438 14.390625 -39.453125 C 13.296875 -39.253906 12.078125 -39.003906 10.734375 -38.703125 C 10.117188 -38.566406 9.539062 -38.425781 9 -38.28125 C 8.457031 -38.144531 8.101562 -37.960938 7.9375 -37.734375 C 7.757812 -37.535156 7.664062 -37.3125 7.65625 -37.0625 C 7.644531 -36.820312 7.671875 -36.554688 7.734375 -36.265625 L 7.8125 -35.9375 C 7.875 -35.644531 8.015625 -35.238281 8.234375 -34.71875 C 8.460938 -34.195312 8.867188 -34.003906 9.453125 -34.140625 C 9.617188 -34.171875 9.773438 -34.210938 9.921875 -34.265625 C 10.066406 -34.328125 10.21875 -34.375 10.375 -34.40625 C 12.175781 -34.8125 13.691406 -34.90625 14.921875 -34.6875 C 16.160156 -34.476562 17.253906 -34.0625 18.203125 -33.4375 C 19.148438 -32.820312 20.046875 -32.101562 20.890625 -31.28125 C 21.804688 -30.4375 22.492188 -29.691406 22.953125 -29.046875 C 23.410156 -28.398438 23.722656 -27.875 23.890625 -27.46875 C 24.253906 -26.851562 24.566406 -26.101562 24.828125 -25.21875 C 25.085938 -24.34375 25.304688 -23.554688 25.484375 -22.859375 C 25.660156 -22.171875 25.75 -21.828125 25.75 -21.828125 Z M 25.75 -21.828125 "/></g></g></g><g fill="#f5eded" fill-opacity="0.4"><g transform="translate(113.044449, 215.411557)"><g><path d="M 24.609375 -29.4375 C 24.835938 -28.300781 25.050781 -27.285156 25.25 -26.390625 C 25.457031 -25.492188 25.640625 -24.472656 25.796875 -23.328125 C 25.921875 -22.484375 26.03125 -21.378906 26.125 -20.015625 C 26.226562 -18.660156 26.289062 -17.296875 26.3125 -15.921875 C 26.332031 -14.546875 26.238281 -13.40625 26.03125 -12.5 C 25.875 -11.5625 25.632812 -10.738281 25.3125 -10.03125 C 25 -9.332031 24.710938 -8.765625 24.453125 -8.328125 C 23.617188 -7.015625 22.503906 -5.863281 21.109375 -4.875 C 19.722656 -3.894531 17.816406 -3.160156 15.390625 -2.671875 C 13.078125 -2.203125 11.015625 -2.21875 9.203125 -2.71875 C 7.398438 -3.226562 5.9375 -3.910156 4.8125 -4.765625 C 3.601562 -5.703125 2.507812 -7.1875 1.53125 -9.21875 C 0.550781 -11.257812 -0.335938 -13.703125 -1.140625 -16.546875 C -1.335938 -17.328125 -1.5 -18.019531 -1.625 -18.625 C -1.75 -19.238281 -1.914062 -19.941406 -2.125 -20.734375 C -2.300781 -21.347656 -2.445312 -21.90625 -2.5625 -22.40625 C -2.6875 -22.914062 -2.8125 -23.484375 -2.9375 -24.109375 C -3.007812 -24.484375 -3.113281 -25.179688 -3.25 -26.203125 C -3.394531 -27.222656 -3.539062 -28.347656 -3.6875 -29.578125 C -3.832031 -30.816406 -3.941406 -31.953125 -4.015625 -32.984375 C -4.097656 -34.015625 -4.140625 -34.734375 -4.140625 -35.140625 C -4.097656 -36.066406 -3.988281 -36.929688 -3.8125 -37.734375 C -3.632812 -38.535156 -3.484375 -39.097656 -3.359375 -39.421875 C -2.773438 -41.460938 -1.726562 -43.289062 -0.21875 -44.90625 C 1.289062 -46.53125 3.617188 -47.660156 6.765625 -48.296875 C 9.828125 -48.921875 12.351562 -48.78125 14.34375 -47.875 C 16.34375 -46.96875 17.988281 -45.550781 19.28125 -43.625 C 20.570312 -41.707031 21.628906 -39.546875 22.453125 -37.140625 C 23.015625 -35.492188 23.472656 -34 23.828125 -32.65625 C 24.179688 -31.3125 24.414062 -30.347656 24.53125 -29.765625 Z M 12.609375 -31.140625 C 12.390625 -32.191406 12.125 -33.207031 11.8125 -34.1875 C 11.507812 -35.175781 11.113281 -35.957031 10.625 -36.53125 C 10.132812 -37.101562 9.507812 -37.3125 8.75 -37.15625 L 8.640625 -37.125 C 8.472656 -37.09375 8.3125 -37.019531 8.15625 -36.90625 C 8.007812 -36.789062 7.882812 -36.679688 7.78125 -36.578125 C 7.34375 -36.097656 7.09375 -35.421875 7.03125 -34.546875 C 6.96875 -33.679688 6.988281 -32.820312 7.09375 -31.96875 C 7.207031 -31.125 7.300781 -30.515625 7.375 -30.140625 C 7.445312 -29.765625 7.53125 -29.390625 7.625 -29.015625 C 7.726562 -28.640625 7.820312 -28.265625 7.90625 -27.890625 C 8 -27.429688 8.0625 -26.992188 8.09375 -26.578125 C 8.132812 -26.171875 8.203125 -25.738281 8.296875 -25.28125 C 8.398438 -25 8.492188 -24.691406 8.578125 -24.359375 C 8.671875 -24.023438 8.753906 -23.691406 8.828125 -23.359375 C 8.890625 -23.023438 8.925781 -22.71875 8.9375 -22.4375 C 8.957031 -22.15625 9 -21.84375 9.0625 -21.5 C 9.101562 -21.03125 9.164062 -20.597656 9.25 -20.203125 C 9.332031 -19.804688 9.421875 -19.375 9.515625 -18.90625 C 9.679688 -18.0625 9.882812 -17.316406 10.125 -16.671875 C 10.375 -16.023438 10.570312 -15.566406 10.71875 -15.296875 C 10.78125 -15.222656 10.890625 -14.992188 11.046875 -14.609375 C 11.210938 -14.222656 11.484375 -13.894531 11.859375 -13.625 C 12.242188 -13.351562 12.734375 -13.28125 13.328125 -13.40625 C 13.828125 -13.5 14.164062 -13.671875 14.34375 -13.921875 C 14.78125 -14.535156 15.003906 -15.34375 15.015625 -16.34375 C 15.035156 -17.351562 14.960938 -18.351562 14.796875 -19.34375 C 14.640625 -20.34375 14.515625 -21.078125 14.421875 -21.546875 C 14.222656 -22.554688 14.023438 -23.460938 13.828125 -24.265625 C 13.640625 -25.078125 13.460938 -26.015625 13.296875 -27.078125 C 13.191406 -27.847656 13.085938 -28.53125 12.984375 -29.125 C 12.890625 -29.71875 12.765625 -30.390625 12.609375 -31.140625 Z M 12.609375 -31.140625 "/></g></g></g><g fill="#f5eded" fill-opacity="0.4"><g transform="translate(144.113315, 209.090055)"><g><path d="M 25.140625 -29 C 25.347656 -27.851562 25.546875 -26.828125 25.734375 -25.921875 C 25.921875 -25.023438 26.078125 -24.003906 26.203125 -22.859375 C 26.316406 -22.015625 26.410156 -20.910156 26.484375 -19.546875 C 26.566406 -18.191406 26.601562 -16.828125 26.59375 -15.453125 C 26.59375 -14.078125 26.476562 -12.929688 26.25 -12.015625 C 26.082031 -11.078125 25.832031 -10.265625 25.5 -9.578125 C 25.164062 -8.890625 24.867188 -8.328125 24.609375 -7.890625 C 23.742188 -6.585938 22.601562 -5.457031 21.1875 -4.5 C 19.78125 -3.539062 17.859375 -2.832031 15.421875 -2.375 C 13.109375 -1.945312 11.050781 -2.003906 9.25 -2.546875 C 7.445312 -3.097656 5.992188 -3.8125 4.890625 -4.6875 C 3.710938 -5.632812 2.644531 -7.132812 1.6875 -9.1875 C 0.738281 -11.238281 -0.0976562 -13.695312 -0.828125 -16.5625 C -1.015625 -17.351562 -1.164062 -18.050781 -1.28125 -18.65625 C -1.394531 -19.269531 -1.546875 -19.976562 -1.734375 -20.78125 C -1.898438 -21.394531 -2.039062 -21.953125 -2.15625 -22.453125 C -2.269531 -22.953125 -2.382812 -23.515625 -2.5 -24.140625 C -2.570312 -24.523438 -2.664062 -25.226562 -2.78125 -26.25 C -2.90625 -27.28125 -3.03125 -28.410156 -3.15625 -29.640625 C -3.28125 -30.878906 -3.367188 -32.015625 -3.421875 -33.046875 C -3.484375 -34.085938 -3.507812 -34.800781 -3.5 -35.1875 C -3.4375 -36.125 -3.3125 -36.992188 -3.125 -37.796875 C -2.9375 -38.597656 -2.78125 -39.15625 -2.65625 -39.46875 C -2.03125 -41.5 -0.945312 -43.3125 0.59375 -44.90625 C 2.132812 -46.5 4.484375 -47.585938 7.640625 -48.171875 C 10.710938 -48.734375 13.234375 -48.539062 15.203125 -47.59375 C 17.179688 -46.65625 18.796875 -45.210938 20.046875 -43.265625 C 21.304688 -41.328125 22.332031 -39.148438 23.125 -36.734375 C 23.644531 -35.085938 24.070312 -33.582031 24.40625 -32.21875 C 24.738281 -30.863281 24.960938 -29.894531 25.078125 -29.3125 Z M 13.171875 -30.90625 C 12.972656 -31.957031 12.726562 -32.976562 12.4375 -33.96875 C 12.144531 -34.957031 11.757812 -35.742188 11.28125 -36.328125 C 10.800781 -36.910156 10.179688 -37.132812 9.421875 -37 L 9.296875 -36.96875 C 9.128906 -36.9375 8.96875 -36.863281 8.8125 -36.75 C 8.664062 -36.632812 8.535156 -36.523438 8.421875 -36.421875 C 7.984375 -35.953125 7.722656 -35.285156 7.640625 -34.421875 C 7.566406 -33.554688 7.578125 -32.695312 7.671875 -31.84375 C 7.765625 -31 7.847656 -30.382812 7.921875 -30 C 7.992188 -29.625 8.070312 -29.25 8.15625 -28.875 C 8.25 -28.5 8.332031 -28.125 8.40625 -27.75 C 8.488281 -27.28125 8.546875 -26.84375 8.578125 -26.4375 C 8.609375 -26.03125 8.664062 -25.59375 8.75 -25.125 C 8.851562 -24.84375 8.941406 -24.535156 9.015625 -24.203125 C 9.097656 -23.867188 9.171875 -23.535156 9.234375 -23.203125 C 9.296875 -22.859375 9.332031 -22.546875 9.34375 -22.265625 C 9.351562 -21.984375 9.390625 -21.671875 9.453125 -21.328125 C 9.484375 -20.859375 9.535156 -20.425781 9.609375 -20.03125 C 9.679688 -19.632812 9.765625 -19.195312 9.859375 -18.71875 C 10.015625 -17.882812 10.207031 -17.140625 10.4375 -16.484375 C 10.664062 -15.835938 10.851562 -15.367188 11 -15.078125 C 11.050781 -15.003906 11.15625 -14.773438 11.3125 -14.390625 C 11.46875 -14.015625 11.734375 -13.6875 12.109375 -13.40625 C 12.484375 -13.125 12.96875 -13.039062 13.5625 -13.15625 C 14.0625 -13.25 14.40625 -13.421875 14.59375 -13.671875 C 15.039062 -14.273438 15.28125 -15.082031 15.3125 -16.09375 C 15.34375 -17.101562 15.285156 -18.101562 15.140625 -19.09375 C 15.003906 -20.082031 14.894531 -20.8125 14.8125 -21.28125 C 14.625 -22.289062 14.441406 -23.203125 14.265625 -24.015625 C 14.085938 -24.828125 13.925781 -25.769531 13.78125 -26.84375 C 13.6875 -27.601562 13.59375 -28.28125 13.5 -28.875 C 13.414062 -29.46875 13.304688 -30.144531 13.171875 -30.90625 Z M 13.171875 -30.90625 "/></g></g></g><g fill="#f5eded" fill-opacity="0.4"><g transform="translate(175.110849, 203.420253)"><g><path d="M 11.46875 -4.953125 C 11.675781 -3.734375 11.519531 -2.90625 11 -2.46875 C 10.488281 -2.039062 9.9375 -1.773438 9.34375 -1.671875 L 6.5 -1.1875 C 5.488281 -1.007812 4.570312 -0.859375 3.75 -0.734375 C 2.925781 -0.617188 2.253906 -0.679688 1.734375 -0.921875 C 1.210938 -1.160156 0.878906 -1.703125 0.734375 -2.546875 C 0.679688 -2.878906 0.640625 -3.171875 0.609375 -3.421875 C 0.585938 -3.679688 0.550781 -3.976562 0.5 -4.3125 C 0.414062 -4.78125 0.328125 -5.222656 0.234375 -5.640625 C 0.140625 -6.066406 0.0546875 -6.515625 -0.015625 -6.984375 C -0.078125 -7.316406 -0.132812 -7.628906 -0.1875 -7.921875 C -0.238281 -8.210938 -0.269531 -8.507812 -0.28125 -8.8125 C -0.289062 -9.15625 -0.300781 -9.550781 -0.3125 -10 C -0.320312 -10.457031 -0.164062 -10.878906 0.15625 -11.265625 C 0.488281 -11.648438 1.070312 -11.910156 1.90625 -12.046875 C 2.332031 -12.117188 2.71875 -12.175781 3.0625 -12.21875 C 3.40625 -12.257812 3.785156 -12.3125 4.203125 -12.375 C 4.828125 -12.488281 5.390625 -12.597656 5.890625 -12.703125 C 6.398438 -12.816406 6.992188 -12.929688 7.671875 -13.046875 C 8.554688 -13.191406 9.175781 -13.097656 9.53125 -12.765625 C 9.894531 -12.441406 10.132812 -12 10.25 -11.4375 C 10.375 -10.875 10.476562 -10.34375 10.5625 -9.84375 C 10.664062 -9.28125 10.738281 -8.785156 10.78125 -8.359375 C 10.832031 -7.941406 10.910156 -7.453125 11.015625 -6.890625 C 11.066406 -6.566406 11.140625 -6.25 11.234375 -5.9375 C 11.328125 -5.625 11.40625 -5.296875 11.46875 -4.953125 Z M 11.46875 -4.953125 "/></g></g></g><g fill="#f5eded" fill-opacity="0.4"><g transform="translate(188.290381, 201.096981)"><g><path d="M 25.859375 -28.34375 C 26.035156 -27.195312 26.207031 -26.171875 26.375 -25.265625 C 26.539062 -24.367188 26.675781 -23.34375 26.78125 -22.1875 C 26.863281 -21.332031 26.925781 -20.222656 26.96875 -18.859375 C 27.019531 -17.503906 27.019531 -16.140625 26.96875 -14.765625 C 26.925781 -13.390625 26.785156 -12.25 26.546875 -11.34375 C 26.347656 -10.40625 26.070312 -9.597656 25.71875 -8.921875 C 25.375 -8.242188 25.066406 -7.6875 24.796875 -7.25 C 23.910156 -5.988281 22.75 -4.894531 21.3125 -3.96875 C 19.882812 -3.039062 17.945312 -2.378906 15.5 -1.984375 C 13.164062 -1.617188 11.101562 -1.726562 9.3125 -2.3125 C 7.53125 -2.90625 6.097656 -3.65625 5.015625 -4.5625 C 3.847656 -5.550781 2.816406 -7.082031 1.921875 -9.15625 C 1.035156 -11.226562 0.253906 -13.703125 -0.421875 -16.578125 C -0.585938 -17.367188 -0.71875 -18.070312 -0.8125 -18.6875 C -0.90625 -19.300781 -1.039062 -20.015625 -1.21875 -20.828125 C -1.363281 -21.441406 -1.488281 -22 -1.59375 -22.5 C -1.695312 -23.007812 -1.796875 -23.578125 -1.890625 -24.203125 C -1.953125 -24.578125 -2.03125 -25.28125 -2.125 -26.3125 C -2.21875 -27.34375 -2.304688 -28.476562 -2.390625 -29.71875 C -2.484375 -30.957031 -2.546875 -32.09375 -2.578125 -33.125 C -2.609375 -34.164062 -2.613281 -34.882812 -2.59375 -35.28125 C -2.53125 -36.207031 -2.382812 -37.066406 -2.15625 -37.859375 C -1.9375 -38.648438 -1.769531 -39.207031 -1.65625 -39.53125 C -0.976562 -41.539062 0.144531 -43.320312 1.71875 -44.875 C 3.300781 -46.4375 5.675781 -47.46875 8.84375 -47.96875 C 11.925781 -48.457031 14.445312 -48.203125 16.40625 -47.203125 C 18.363281 -46.210938 19.941406 -44.726562 21.140625 -42.75 C 22.347656 -40.78125 23.316406 -38.578125 24.046875 -36.140625 C 24.535156 -34.472656 24.925781 -32.957031 25.21875 -31.59375 C 25.519531 -30.226562 25.71875 -29.253906 25.8125 -28.671875 Z M 13.953125 -30.5625 C 13.773438 -31.625 13.554688 -32.648438 13.296875 -33.640625 C 13.035156 -34.640625 12.671875 -35.4375 12.203125 -36.03125 C 11.734375 -36.632812 11.117188 -36.875 10.359375 -36.75 L 10.234375 -36.734375 C 10.078125 -36.703125 9.914062 -36.628906 9.75 -36.515625 C 9.59375 -36.410156 9.457031 -36.304688 9.34375 -36.203125 C 8.894531 -35.734375 8.617188 -35.066406 8.515625 -34.203125 C 8.410156 -33.335938 8.394531 -32.476562 8.46875 -31.625 C 8.550781 -30.78125 8.625 -30.171875 8.6875 -29.796875 C 8.75 -29.410156 8.816406 -29.023438 8.890625 -28.640625 C 8.972656 -28.265625 9.046875 -27.890625 9.109375 -27.515625 C 9.179688 -27.046875 9.226562 -26.609375 9.25 -26.203125 C 9.269531 -25.796875 9.316406 -25.363281 9.390625 -24.90625 C 9.484375 -24.613281 9.566406 -24.296875 9.640625 -23.953125 C 9.710938 -23.617188 9.773438 -23.28125 9.828125 -22.9375 C 9.890625 -22.601562 9.921875 -22.296875 9.921875 -22.015625 C 9.921875 -21.734375 9.945312 -21.425781 10 -21.09375 C 10.019531 -20.613281 10.0625 -20.171875 10.125 -19.765625 C 10.1875 -19.367188 10.253906 -18.9375 10.328125 -18.46875 C 10.460938 -17.625 10.632812 -16.875 10.84375 -16.21875 C 11.0625 -15.5625 11.234375 -15.09375 11.359375 -14.8125 C 11.421875 -14.726562 11.523438 -14.492188 11.671875 -14.109375 C 11.828125 -13.722656 12.085938 -13.382812 12.453125 -13.09375 C 12.816406 -12.8125 13.300781 -12.71875 13.90625 -12.8125 C 14.40625 -12.882812 14.75 -13.039062 14.9375 -13.28125 C 15.394531 -13.882812 15.65625 -14.6875 15.71875 -15.6875 C 15.78125 -16.695312 15.75 -17.703125 15.625 -18.703125 C 15.507812 -19.703125 15.414062 -20.4375 15.34375 -20.90625 C 15.1875 -21.914062 15.03125 -22.828125 14.875 -23.640625 C 14.726562 -24.460938 14.59375 -25.410156 14.46875 -26.484375 C 14.382812 -27.242188 14.304688 -27.921875 14.234375 -28.515625 C 14.160156 -29.117188 14.066406 -29.800781 13.953125 -30.5625 Z M 13.953125 -30.5625 "/></g></g></g><g fill="#f5eded" fill-opacity="0.4"><g transform="translate(219.604565, 196.131362)"><g><path d="M 26.359375 -27.875 C 26.523438 -26.726562 26.679688 -25.703125 26.828125 -24.796875 C 26.972656 -23.890625 27.085938 -22.859375 27.171875 -21.703125 C 27.253906 -20.847656 27.300781 -19.738281 27.3125 -18.375 C 27.332031 -17.007812 27.304688 -15.644531 27.234375 -14.28125 C 27.171875 -12.914062 27.007812 -11.785156 26.75 -10.890625 C 26.53125 -9.941406 26.242188 -9.128906 25.890625 -8.453125 C 25.535156 -7.785156 25.210938 -7.234375 24.921875 -6.796875 C 24.015625 -5.546875 22.832031 -4.472656 21.375 -3.578125 C 19.925781 -2.679688 17.972656 -2.0625 15.515625 -1.71875 C 13.191406 -1.382812 11.140625 -1.53125 9.359375 -2.15625 C 7.585938 -2.78125 6.160156 -3.550781 5.078125 -4.46875 C 3.941406 -5.476562 2.941406 -7.023438 2.078125 -9.109375 C 1.222656 -11.203125 0.492188 -13.691406 -0.109375 -16.578125 C -0.265625 -17.378906 -0.382812 -18.085938 -0.46875 -18.703125 C -0.550781 -19.316406 -0.671875 -20.023438 -0.828125 -20.828125 C -0.972656 -21.460938 -1.085938 -22.03125 -1.171875 -22.53125 C -1.265625 -23.039062 -1.359375 -23.609375 -1.453125 -24.234375 C -1.503906 -24.617188 -1.566406 -25.328125 -1.640625 -26.359375 C -1.710938 -27.390625 -1.785156 -28.523438 -1.859375 -29.765625 C -1.929688 -31.003906 -1.972656 -32.140625 -1.984375 -33.171875 C -2.003906 -34.210938 -2 -34.925781 -1.96875 -35.3125 C -1.875 -36.238281 -1.710938 -37.097656 -1.484375 -37.890625 C -1.253906 -38.679688 -1.070312 -39.238281 -0.9375 -39.5625 C -0.226562 -41.5625 0.925781 -43.320312 2.53125 -44.84375 C 4.144531 -46.375 6.539062 -47.359375 9.71875 -47.796875 C 12.8125 -48.234375 15.328125 -47.9375 17.265625 -46.90625 C 19.203125 -45.875 20.753906 -44.359375 21.921875 -42.359375 C 23.085938 -40.367188 24.015625 -38.144531 24.703125 -35.6875 C 25.160156 -34.019531 25.523438 -32.5 25.796875 -31.125 C 26.066406 -29.757812 26.238281 -28.785156 26.3125 -28.203125 Z M 14.5 -30.3125 C 14.351562 -31.375 14.15625 -32.40625 13.90625 -33.40625 C 13.65625 -34.40625 13.300781 -35.207031 12.84375 -35.8125 C 12.382812 -36.414062 11.773438 -36.664062 11.015625 -36.5625 L 10.890625 -36.546875 C 10.722656 -36.523438 10.5625 -36.457031 10.40625 -36.34375 C 10.25 -36.238281 10.117188 -36.132812 10.015625 -36.03125 C 9.546875 -35.570312 9.253906 -34.910156 9.140625 -34.046875 C 9.023438 -33.191406 8.992188 -32.332031 9.046875 -31.46875 C 9.109375 -30.613281 9.164062 -30 9.21875 -29.625 C 9.269531 -29.238281 9.332031 -28.859375 9.40625 -28.484375 C 9.476562 -28.109375 9.539062 -27.726562 9.59375 -27.34375 C 9.664062 -26.875 9.707031 -26.4375 9.71875 -26.03125 C 9.726562 -25.625 9.769531 -25.191406 9.84375 -24.734375 C 9.925781 -24.429688 10 -24.113281 10.0625 -23.78125 C 10.132812 -23.445312 10.191406 -23.109375 10.234375 -22.765625 C 10.285156 -22.421875 10.304688 -22.109375 10.296875 -21.828125 C 10.296875 -21.554688 10.320312 -21.25 10.375 -20.90625 C 10.382812 -20.4375 10.414062 -20 10.46875 -19.59375 C 10.53125 -19.1875 10.59375 -18.75 10.65625 -18.28125 C 10.78125 -17.4375 10.941406 -16.679688 11.140625 -16.015625 C 11.347656 -15.359375 11.515625 -14.882812 11.640625 -14.59375 C 11.691406 -14.519531 11.785156 -14.285156 11.921875 -13.890625 C 12.066406 -13.503906 12.320312 -13.164062 12.6875 -12.875 C 13.050781 -12.582031 13.53125 -12.476562 14.125 -12.5625 C 14.632812 -12.625 14.984375 -12.769531 15.171875 -13 C 15.640625 -13.601562 15.910156 -14.40625 15.984375 -15.40625 C 16.066406 -16.40625 16.0625 -17.40625 15.96875 -18.40625 C 15.875 -19.414062 15.796875 -20.15625 15.734375 -20.625 C 15.585938 -21.644531 15.441406 -22.5625 15.296875 -23.375 C 15.160156 -24.195312 15.046875 -25.144531 14.953125 -26.21875 C 14.890625 -26.976562 14.828125 -27.65625 14.765625 -28.25 C 14.703125 -28.851562 14.613281 -29.539062 14.5 -30.3125 Z M 14.5 -30.3125 "/></g></g></g><g fill="#f5eded" fill-opacity="0.4"><g transform="translate(251.003013, 191.729798)"><g><path d="M 26.875 -27.40625 C 27.007812 -26.257812 27.144531 -25.226562 27.28125 -24.3125 C 27.414062 -23.394531 27.507812 -22.359375 27.5625 -21.203125 C 27.625 -20.347656 27.648438 -19.238281 27.640625 -17.875 C 27.628906 -16.519531 27.578125 -15.15625 27.484375 -13.78125 C 27.398438 -12.414062 27.21875 -11.289062 26.9375 -10.40625 C 26.707031 -9.46875 26.40625 -8.660156 26.03125 -7.984375 C 25.664062 -7.316406 25.335938 -6.769531 25.046875 -6.34375 C 24.117188 -5.113281 22.921875 -4.0625 21.453125 -3.1875 C 19.984375 -2.320312 18.019531 -1.738281 15.5625 -1.4375 C 13.21875 -1.144531 11.164062 -1.328125 9.40625 -1.984375 C 7.644531 -2.640625 6.226562 -3.4375 5.15625 -4.375 C 4.039062 -5.394531 3.070312 -6.957031 2.25 -9.0625 C 1.4375 -11.164062 0.75 -13.671875 0.1875 -16.578125 C 0.0390625 -17.378906 -0.0664062 -18.085938 -0.140625 -18.703125 C -0.210938 -19.316406 -0.320312 -20.03125 -0.46875 -20.84375 C -0.59375 -21.46875 -0.695312 -22.035156 -0.78125 -22.546875 C -0.863281 -23.054688 -0.941406 -23.628906 -1.015625 -24.265625 C -1.066406 -24.640625 -1.117188 -25.34375 -1.171875 -26.375 C -1.234375 -27.40625 -1.285156 -28.539062 -1.328125 -29.78125 C -1.367188 -31.03125 -1.382812 -32.171875 -1.375 -33.203125 C -1.375 -34.242188 -1.359375 -34.957031 -1.328125 -35.34375 C -1.222656 -36.269531 -1.046875 -37.125 -0.796875 -37.90625 C -0.554688 -38.695312 -0.363281 -39.25 -0.21875 -39.5625 C 0.519531 -41.550781 1.707031 -43.289062 3.34375 -44.78125 C 4.976562 -46.269531 7.382812 -47.210938 10.5625 -47.609375 C 13.664062 -47.984375 16.175781 -47.640625 18.09375 -46.578125 C 20.019531 -45.515625 21.546875 -43.972656 22.671875 -41.953125 C 23.804688 -39.941406 24.691406 -37.703125 25.328125 -35.234375 C 25.753906 -33.554688 26.09375 -32.03125 26.34375 -30.65625 C 26.59375 -29.289062 26.753906 -28.316406 26.828125 -27.734375 Z M 15.03125 -30.046875 C 14.90625 -31.109375 14.722656 -32.140625 14.484375 -33.140625 C 14.253906 -34.148438 13.921875 -34.960938 13.484375 -35.578125 C 13.046875 -36.191406 12.441406 -36.453125 11.671875 -36.359375 L 11.5625 -36.34375 C 11.394531 -36.320312 11.226562 -36.257812 11.0625 -36.15625 C 10.90625 -36.050781 10.769531 -35.945312 10.65625 -35.84375 C 10.175781 -35.394531 9.875 -34.738281 9.75 -33.875 C 9.625 -33.019531 9.578125 -32.164062 9.609375 -31.3125 C 9.648438 -30.457031 9.695312 -29.835938 9.75 -29.453125 C 9.789062 -29.066406 9.84375 -28.6875 9.90625 -28.3125 C 9.976562 -27.9375 10.039062 -27.554688 10.09375 -27.171875 C 10.144531 -26.703125 10.175781 -26.265625 10.1875 -25.859375 C 10.195312 -25.453125 10.226562 -25.015625 10.28125 -24.546875 C 10.363281 -24.242188 10.4375 -23.925781 10.5 -23.59375 C 10.5625 -23.257812 10.613281 -22.921875 10.65625 -22.578125 C 10.695312 -22.234375 10.710938 -21.921875 10.703125 -21.640625 C 10.691406 -21.367188 10.707031 -21.0625 10.75 -20.71875 C 10.75 -20.238281 10.773438 -19.796875 10.828125 -19.390625 C 10.878906 -18.992188 10.929688 -18.554688 10.984375 -18.078125 C 11.085938 -17.234375 11.234375 -16.476562 11.421875 -15.8125 C 11.617188 -15.15625 11.78125 -14.679688 11.90625 -14.390625 C 11.957031 -14.304688 12.046875 -14.066406 12.171875 -13.671875 C 12.304688 -13.285156 12.550781 -12.941406 12.90625 -12.640625 C 13.269531 -12.335938 13.753906 -12.222656 14.359375 -12.296875 C 14.859375 -12.359375 15.207031 -12.503906 15.40625 -12.734375 C 15.894531 -13.328125 16.179688 -14.125 16.265625 -15.125 C 16.359375 -16.125 16.363281 -17.125 16.28125 -18.125 C 16.207031 -19.132812 16.144531 -19.867188 16.09375 -20.328125 C 15.96875 -21.359375 15.84375 -22.285156 15.71875 -23.109375 C 15.59375 -23.929688 15.488281 -24.878906 15.40625 -25.953125 C 15.351562 -26.710938 15.300781 -27.390625 15.25 -27.984375 C 15.195312 -28.585938 15.125 -29.273438 15.03125 -30.046875 Z M 15.03125 -30.046875 "/></g></g></g><g fill="#f5eded" fill-opacity="1"><g transform="translate(78.816617, 219.97305)"><g><path d="M 25.75 -21.828125 C 25.757812 -21.742188 25.828125 -21.175781 25.953125 -20.125 C 26.078125 -19.082031 26.132812 -17.867188 26.125 -16.484375 C 26.125 -15.109375 25.929688 -13.8125 25.546875 -12.59375 C 25.191406 -11.457031 24.609375 -10.226562 23.796875 -8.90625 C 22.992188 -7.582031 21.898438 -6.382812 20.515625 -5.3125 C 19.128906 -4.238281 17.394531 -3.472656 15.3125 -3.015625 C 14.769531 -2.890625 14.289062 -2.800781 13.875 -2.75 C 13.46875 -2.707031 13.164062 -2.6875 12.96875 -2.6875 C 12.050781 -2.613281 11.253906 -2.566406 10.578125 -2.546875 C 9.910156 -2.523438 9.238281 -2.601562 8.5625 -2.78125 C 7.882812 -2.957031 7.019531 -3.242188 5.96875 -3.640625 C 5.53125 -3.804688 5.019531 -4.015625 4.4375 -4.265625 C 3.863281 -4.523438 3.144531 -5.023438 2.28125 -5.765625 C 1.570312 -6.367188 1.097656 -6.859375 0.859375 -7.234375 C 0.628906 -7.617188 0.476562 -7.957031 0.40625 -8.25 C 0.226562 -9.082031 0.332031 -9.738281 0.71875 -10.21875 C 1.113281 -10.707031 1.4375 -11.085938 1.6875 -11.359375 C 2.03125 -11.785156 2.3125 -12.1875 2.53125 -12.5625 C 2.757812 -12.945312 3.023438 -13.351562 3.328125 -13.78125 C 3.484375 -14.019531 3.601562 -14.242188 3.6875 -14.453125 C 3.769531 -14.671875 3.894531 -14.894531 4.0625 -15.125 C 4.46875 -15.519531 4.878906 -15.757812 5.296875 -15.84375 C 5.890625 -15.925781 6.390625 -15.738281 6.796875 -15.28125 C 7.203125 -14.832031 7.4375 -14.566406 7.5 -14.484375 C 7.757812 -14.328125 7.894531 -14.21875 7.90625 -14.15625 C 7.914062 -14.101562 8.09375 -14 8.4375 -13.84375 C 9.082031 -13.550781 9.632812 -13.398438 10.09375 -13.390625 C 10.550781 -13.378906 11.023438 -13.429688 11.515625 -13.546875 C 12.898438 -13.847656 13.789062 -14.582031 14.1875 -15.75 C 14.582031 -16.914062 14.664062 -18.019531 14.4375 -19.0625 C 14.113281 -20.519531 13.59375 -21.585938 12.875 -22.265625 C 12.15625 -22.941406 11.382812 -23.351562 10.5625 -23.5 C 9.738281 -23.644531 8.976562 -23.671875 8.28125 -23.578125 C 7.582031 -23.492188 7.0625 -23.414062 6.71875 -23.34375 C 6.21875 -23.238281 5.882812 -23.117188 5.71875 -22.984375 C 5.550781 -22.859375 5.304688 -22.71875 4.984375 -22.5625 C 4.753906 -22.414062 4.570312 -22.25 4.4375 -22.0625 C 4.300781 -21.882812 4.109375 -21.769531 3.859375 -21.71875 C 3.578125 -21.601562 3.144531 -21.664062 2.5625 -21.90625 C 1.976562 -22.15625 1.554688 -22.40625 1.296875 -22.65625 C 1.179688 -22.726562 1.085938 -22.863281 1.015625 -23.0625 C 0.953125 -23.269531 0.910156 -23.429688 0.890625 -23.546875 L 0.59375 -24.859375 C 0.28125 -26.285156 0.0351562 -27.5625 -0.140625 -28.6875 C -0.328125 -29.8125 -0.570312 -31.0625 -0.875 -32.4375 C -1.039062 -33.195312 -1.203125 -33.875 -1.359375 -34.46875 C -1.523438 -35.070312 -1.6875 -35.726562 -1.84375 -36.4375 C -1.9375 -36.851562 -2.003906 -37.21875 -2.046875 -37.53125 C -2.085938 -37.851562 -2.132812 -38.226562 -2.1875 -38.65625 C -2.289062 -39.238281 -2.390625 -39.75 -2.484375 -40.1875 C -2.578125 -40.625 -2.6875 -41.117188 -2.8125 -41.671875 C -2.863281 -41.921875 -2.921875 -42.148438 -2.984375 -42.359375 C -3.046875 -42.566406 -3.109375 -42.796875 -3.171875 -43.046875 L -3.1875 -43.109375 C -3.34375 -43.816406 -3.191406 -44.484375 -2.734375 -45.109375 C -2.285156 -45.742188 -1.734375 -46.132812 -1.078125 -46.28125 C -0.703125 -46.363281 -0.359375 -46.414062 -0.046875 -46.4375 C 0.253906 -46.457031 0.613281 -46.515625 1.03125 -46.609375 C 1.820312 -46.785156 2.53125 -46.929688 3.15625 -47.046875 C 3.789062 -47.160156 4.503906 -47.332031 5.296875 -47.5625 C 5.878906 -47.6875 6.40625 -47.820312 6.875 -47.96875 C 7.351562 -48.125 7.878906 -48.265625 8.453125 -48.390625 C 9.003906 -48.515625 9.476562 -48.609375 9.875 -48.671875 C 10.28125 -48.742188 10.734375 -48.832031 11.234375 -48.9375 L 14.4375 -49.65625 C 14.644531 -49.695312 14.835938 -49.757812 15.015625 -49.84375 C 15.191406 -49.925781 15.40625 -50 15.65625 -50.0625 C 16.28125 -50.195312 16.75 -50.109375 17.0625 -49.796875 C 17.375 -49.492188 17.585938 -49.171875 17.703125 -48.828125 C 17.816406 -48.484375 17.878906 -48.289062 17.890625 -48.25 C 17.984375 -47.832031 18.054688 -47.460938 18.109375 -47.140625 C 18.171875 -46.828125 18.242188 -46.460938 18.328125 -46.046875 C 18.453125 -45.503906 18.570312 -44.992188 18.6875 -44.515625 C 18.8125 -44.035156 18.941406 -43.503906 19.078125 -42.921875 C 19.253906 -42.128906 19.28125 -41.507812 19.15625 -41.0625 C 19.039062 -40.625 18.671875 -40.332031 18.046875 -40.1875 C 16.710938 -39.894531 15.492188 -39.648438 14.390625 -39.453125 C 13.296875 -39.253906 12.078125 -39.003906 10.734375 -38.703125 C 10.117188 -38.566406 9.539062 -38.425781 9 -38.28125 C 8.457031 -38.144531 8.101562 -37.960938 7.9375 -37.734375 C 7.757812 -37.535156 7.664062 -37.3125 7.65625 -37.0625 C 7.644531 -36.820312 7.671875 -36.554688 7.734375 -36.265625 L 7.8125 -35.9375 C 7.875 -35.644531 8.015625 -35.238281 8.234375 -34.71875 C 8.460938 -34.195312 8.867188 -34.003906 9.453125 -34.140625 C 9.617188 -34.171875 9.773438 -34.210938 9.921875 -34.265625 C 10.066406 -34.328125 10.21875 -34.375 10.375 -34.40625 C 12.175781 -34.8125 13.691406 -34.90625 14.921875 -34.6875 C 16.160156 -34.476562 17.253906 -34.0625 18.203125 -33.4375 C 19.148438 -32.820312 20.046875 -32.101562 20.890625 -31.28125 C 21.804688 -30.4375 22.492188 -29.691406 22.953125 -29.046875 C 23.410156 -28.398438 23.722656 -27.875 23.890625 -27.46875 C 24.253906 -26.851562 24.566406 -26.101562 24.828125 -25.21875 C 25.085938 -24.34375 25.304688 -23.554688 25.484375 -22.859375 C 25.660156 -22.171875 25.75 -21.828125 25.75 -21.828125 Z M 25.75 -21.828125 "/></g></g></g><g fill="#f5eded" fill-opacity="1"><g transform="translate(109.766758, 213.093707)"><g><path d="M 24.609375 -29.4375 C 24.835938 -28.300781 25.050781 -27.285156 25.25 -26.390625 C 25.457031 -25.492188 25.640625 -24.472656 25.796875 -23.328125 C 25.921875 -22.484375 26.03125 -21.378906 26.125 -20.015625 C 26.226562 -18.660156 26.289062 -17.296875 26.3125 -15.921875 C 26.332031 -14.546875 26.238281 -13.40625 26.03125 -12.5 C 25.875 -11.5625 25.632812 -10.738281 25.3125 -10.03125 C 25 -9.332031 24.710938 -8.765625 24.453125 -8.328125 C 23.617188 -7.015625 22.503906 -5.863281 21.109375 -4.875 C 19.722656 -3.894531 17.816406 -3.160156 15.390625 -2.671875 C 13.078125 -2.203125 11.015625 -2.21875 9.203125 -2.71875 C 7.398438 -3.226562 5.9375 -3.910156 4.8125 -4.765625 C 3.601562 -5.703125 2.507812 -7.1875 1.53125 -9.21875 C 0.550781 -11.257812 -0.335938 -13.703125 -1.140625 -16.546875 C -1.335938 -17.328125 -1.5 -18.019531 -1.625 -18.625 C -1.75 -19.238281 -1.914062 -19.941406 -2.125 -20.734375 C -2.300781 -21.347656 -2.445312 -21.90625 -2.5625 -22.40625 C -2.6875 -22.914062 -2.8125 -23.484375 -2.9375 -24.109375 C -3.007812 -24.484375 -3.113281 -25.179688 -3.25 -26.203125 C -3.394531 -27.222656 -3.539062 -28.347656 -3.6875 -29.578125 C -3.832031 -30.816406 -3.941406 -31.953125 -4.015625 -32.984375 C -4.097656 -34.015625 -4.140625 -34.734375 -4.140625 -35.140625 C -4.097656 -36.066406 -3.988281 -36.929688 -3.8125 -37.734375 C -3.632812 -38.535156 -3.484375 -39.097656 -3.359375 -39.421875 C -2.773438 -41.460938 -1.726562 -43.289062 -0.21875 -44.90625 C 1.289062 -46.53125 3.617188 -47.660156 6.765625 -48.296875 C 9.828125 -48.921875 12.351562 -48.78125 14.34375 -47.875 C 16.34375 -46.96875 17.988281 -45.550781 19.28125 -43.625 C 20.570312 -41.707031 21.628906 -39.546875 22.453125 -37.140625 C 23.015625 -35.492188 23.472656 -34 23.828125 -32.65625 C 24.179688 -31.3125 24.414062 -30.347656 24.53125 -29.765625 Z M 12.609375 -31.140625 C 12.390625 -32.191406 12.125 -33.207031 11.8125 -34.1875 C 11.507812 -35.175781 11.113281 -35.957031 10.625 -36.53125 C 10.132812 -37.101562 9.507812 -37.3125 8.75 -37.15625 L 8.640625 -37.125 C 8.472656 -37.09375 8.3125 -37.019531 8.15625 -36.90625 C 8.007812 -36.789062 7.882812 -36.679688 7.78125 -36.578125 C 7.34375 -36.097656 7.09375 -35.421875 7.03125 -34.546875 C 6.96875 -33.679688 6.988281 -32.820312 7.09375 -31.96875 C 7.207031 -31.125 7.300781 -30.515625 7.375 -30.140625 C 7.445312 -29.765625 7.53125 -29.390625 7.625 -29.015625 C 7.726562 -28.640625 7.820312 -28.265625 7.90625 -27.890625 C 8 -27.429688 8.0625 -26.992188 8.09375 -26.578125 C 8.132812 -26.171875 8.203125 -25.738281 8.296875 -25.28125 C 8.398438 -25 8.492188 -24.691406 8.578125 -24.359375 C 8.671875 -24.023438 8.753906 -23.691406 8.828125 -23.359375 C 8.890625 -23.023438 8.925781 -22.71875 8.9375 -22.4375 C 8.957031 -22.15625 9 -21.84375 9.0625 -21.5 C 9.101562 -21.03125 9.164062 -20.597656 9.25 -20.203125 C 9.332031 -19.804688 9.421875 -19.375 9.515625 -18.90625 C 9.679688 -18.0625 9.882812 -17.316406 10.125 -16.671875 C 10.375 -16.023438 10.570312 -15.566406 10.71875 -15.296875 C 10.78125 -15.222656 10.890625 -14.992188 11.046875 -14.609375 C 11.210938 -14.222656 11.484375 -13.894531 11.859375 -13.625 C 12.242188 -13.351562 12.734375 -13.28125 13.328125 -13.40625 C 13.828125 -13.5 14.164062 -13.671875 14.34375 -13.921875 C 14.78125 -14.535156 15.003906 -15.34375 15.015625 -16.34375 C 15.035156 -17.351562 14.960938 -18.351562 14.796875 -19.34375 C 14.640625 -20.34375 14.515625 -21.078125 14.421875 -21.546875 C 14.222656 -22.554688 14.023438 -23.460938 13.828125 -24.265625 C 13.640625 -25.078125 13.460938 -26.015625 13.296875 -27.078125 C 13.191406 -27.847656 13.085938 -28.53125 12.984375 -29.125 C 12.890625 -29.71875 12.765625 -30.390625 12.609375 -31.140625 Z M 12.609375 -31.140625 "/></g></g></g><g fill="#f5eded" fill-opacity="1"><g transform="translate(140.835626, 206.772217)"><g><path d="M 25.140625 -29 C 25.347656 -27.851562 25.546875 -26.828125 25.734375 -25.921875 C 25.921875 -25.023438 26.078125 -24.003906 26.203125 -22.859375 C 26.316406 -22.015625 26.410156 -20.910156 26.484375 -19.546875 C 26.566406 -18.191406 26.601562 -16.828125 26.59375 -15.453125 C 26.59375 -14.078125 26.476562 -12.929688 26.25 -12.015625 C 26.082031 -11.078125 25.832031 -10.265625 25.5 -9.578125 C 25.164062 -8.890625 24.867188 -8.328125 24.609375 -7.890625 C 23.742188 -6.585938 22.601562 -5.457031 21.1875 -4.5 C 19.78125 -3.539062 17.859375 -2.832031 15.421875 -2.375 C 13.109375 -1.945312 11.050781 -2.003906 9.25 -2.546875 C 7.445312 -3.097656 5.992188 -3.8125 4.890625 -4.6875 C 3.710938 -5.632812 2.644531 -7.132812 1.6875 -9.1875 C 0.738281 -11.238281 -0.0976562 -13.695312 -0.828125 -16.5625 C -1.015625 -17.351562 -1.164062 -18.050781 -1.28125 -18.65625 C -1.394531 -19.269531 -1.546875 -19.976562 -1.734375 -20.78125 C -1.898438 -21.394531 -2.039062 -21.953125 -2.15625 -22.453125 C -2.269531 -22.953125 -2.382812 -23.515625 -2.5 -24.140625 C -2.570312 -24.523438 -2.664062 -25.226562 -2.78125 -26.25 C -2.90625 -27.28125 -3.03125 -28.410156 -3.15625 -29.640625 C -3.28125 -30.878906 -3.367188 -32.015625 -3.421875 -33.046875 C -3.484375 -34.085938 -3.507812 -34.800781 -3.5 -35.1875 C -3.4375 -36.125 -3.3125 -36.992188 -3.125 -37.796875 C -2.9375 -38.597656 -2.78125 -39.15625 -2.65625 -39.46875 C -2.03125 -41.5 -0.945312 -43.3125 0.59375 -44.90625 C 2.132812 -46.5 4.484375 -47.585938 7.640625 -48.171875 C 10.710938 -48.734375 13.234375 -48.539062 15.203125 -47.59375 C 17.179688 -46.65625 18.796875 -45.210938 20.046875 -43.265625 C 21.304688 -41.328125 22.332031 -39.148438 23.125 -36.734375 C 23.644531 -35.085938 24.070312 -33.582031 24.40625 -32.21875 C 24.738281 -30.863281 24.960938 -29.894531 25.078125 -29.3125 Z M 13.171875 -30.90625 C 12.972656 -31.957031 12.726562 -32.976562 12.4375 -33.96875 C 12.144531 -34.957031 11.757812 -35.742188 11.28125 -36.328125 C 10.800781 -36.910156 10.179688 -37.132812 9.421875 -37 L 9.296875 -36.96875 C 9.128906 -36.9375 8.96875 -36.863281 8.8125 -36.75 C 8.664062 -36.632812 8.535156 -36.523438 8.421875 -36.421875 C 7.984375 -35.953125 7.722656 -35.285156 7.640625 -34.421875 C 7.566406 -33.554688 7.578125 -32.695312 7.671875 -31.84375 C 7.765625 -31 7.847656 -30.382812 7.921875 -30 C 7.992188 -29.625 8.070312 -29.25 8.15625 -28.875 C 8.25 -28.5 8.332031 -28.125 8.40625 -27.75 C 8.488281 -27.28125 8.546875 -26.84375 8.578125 -26.4375 C 8.609375 -26.03125 8.664062 -25.59375 8.75 -25.125 C 8.851562 -24.84375 8.941406 -24.535156 9.015625 -24.203125 C 9.097656 -23.867188 9.171875 -23.535156 9.234375 -23.203125 C 9.296875 -22.859375 9.332031 -22.546875 9.34375 -22.265625 C 9.351562 -21.984375 9.390625 -21.671875 9.453125 -21.328125 C 9.484375 -20.859375 9.535156 -20.425781 9.609375 -20.03125 C 9.679688 -19.632812 9.765625 -19.195312 9.859375 -18.71875 C 10.015625 -17.882812 10.207031 -17.140625 10.4375 -16.484375 C 10.664062 -15.835938 10.851562 -15.367188 11 -15.078125 C 11.050781 -15.003906 11.15625 -14.773438 11.3125 -14.390625 C 11.46875 -14.015625 11.734375 -13.6875 12.109375 -13.40625 C 12.484375 -13.125 12.96875 -13.039062 13.5625 -13.15625 C 14.0625 -13.25 14.40625 -13.421875 14.59375 -13.671875 C 15.039062 -14.273438 15.28125 -15.082031 15.3125 -16.09375 C 15.34375 -17.101562 15.285156 -18.101562 15.140625 -19.09375 C 15.003906 -20.082031 14.894531 -20.8125 14.8125 -21.28125 C 14.625 -22.289062 14.441406 -23.203125 14.265625 -24.015625 C 14.085938 -24.828125 13.925781 -25.769531 13.78125 -26.84375 C 13.6875 -27.601562 13.59375 -28.28125 13.5 -28.875 C 13.414062 -29.46875 13.304688 -30.144531 13.171875 -30.90625 Z M 13.171875 -30.90625 "/></g></g></g><g fill="#f5eded" fill-opacity="1"><g transform="translate(171.833159, 201.102403)"><g><path d="M 11.46875 -4.953125 C 11.675781 -3.734375 11.519531 -2.90625 11 -2.46875 C 10.488281 -2.039062 9.9375 -1.773438 9.34375 -1.671875 L 6.5 -1.1875 C 5.488281 -1.007812 4.570312 -0.859375 3.75 -0.734375 C 2.925781 -0.617188 2.253906 -0.679688 1.734375 -0.921875 C 1.210938 -1.160156 0.878906 -1.703125 0.734375 -2.546875 C 0.679688 -2.878906 0.640625 -3.171875 0.609375 -3.421875 C 0.585938 -3.679688 0.550781 -3.976562 0.5 -4.3125 C 0.414062 -4.78125 0.328125 -5.222656 0.234375 -5.640625 C 0.140625 -6.066406 0.0546875 -6.515625 -0.015625 -6.984375 C -0.078125 -7.316406 -0.132812 -7.628906 -0.1875 -7.921875 C -0.238281 -8.210938 -0.269531 -8.507812 -0.28125 -8.8125 C -0.289062 -9.15625 -0.300781 -9.550781 -0.3125 -10 C -0.320312 -10.457031 -0.164062 -10.878906 0.15625 -11.265625 C 0.488281 -11.648438 1.070312 -11.910156 1.90625 -12.046875 C 2.332031 -12.117188 2.71875 -12.175781 3.0625 -12.21875 C 3.40625 -12.257812 3.785156 -12.3125 4.203125 -12.375 C 4.828125 -12.488281 5.390625 -12.597656 5.890625 -12.703125 C 6.398438 -12.816406 6.992188 -12.929688 7.671875 -13.046875 C 8.554688 -13.191406 9.175781 -13.097656 9.53125 -12.765625 C 9.894531 -12.441406 10.132812 -12 10.25 -11.4375 C 10.375 -10.875 10.476562 -10.34375 10.5625 -9.84375 C 10.664062 -9.28125 10.738281 -8.785156 10.78125 -8.359375 C 10.832031 -7.941406 10.910156 -7.453125 11.015625 -6.890625 C 11.066406 -6.566406 11.140625 -6.25 11.234375 -5.9375 C 11.328125 -5.625 11.40625 -5.296875 11.46875 -4.953125 Z M 11.46875 -4.953125 "/></g></g></g><g fill="#f5eded" fill-opacity="1"><g transform="translate(185.012675, 198.779145)"><g><path d="M 25.859375 -28.34375 C 26.035156 -27.195312 26.207031 -26.171875 26.375 -25.265625 C 26.539062 -24.367188 26.675781 -23.34375 26.78125 -22.1875 C 26.863281 -21.332031 26.925781 -20.222656 26.96875 -18.859375 C 27.019531 -17.503906 27.019531 -16.140625 26.96875 -14.765625 C 26.925781 -13.390625 26.785156 -12.25 26.546875 -11.34375 C 26.347656 -10.40625 26.070312 -9.597656 25.71875 -8.921875 C 25.375 -8.242188 25.066406 -7.6875 24.796875 -7.25 C 23.910156 -5.988281 22.75 -4.894531 21.3125 -3.96875 C 19.882812 -3.039062 17.945312 -2.378906 15.5 -1.984375 C 13.164062 -1.617188 11.101562 -1.726562 9.3125 -2.3125 C 7.53125 -2.90625 6.097656 -3.65625 5.015625 -4.5625 C 3.847656 -5.550781 2.816406 -7.082031 1.921875 -9.15625 C 1.035156 -11.226562 0.253906 -13.703125 -0.421875 -16.578125 C -0.585938 -17.367188 -0.71875 -18.070312 -0.8125 -18.6875 C -0.90625 -19.300781 -1.039062 -20.015625 -1.21875 -20.828125 C -1.363281 -21.441406 -1.488281 -22 -1.59375 -22.5 C -1.695312 -23.007812 -1.796875 -23.578125 -1.890625 -24.203125 C -1.953125 -24.578125 -2.03125 -25.28125 -2.125 -26.3125 C -2.21875 -27.34375 -2.304688 -28.476562 -2.390625 -29.71875 C -2.484375 -30.957031 -2.546875 -32.09375 -2.578125 -33.125 C -2.609375 -34.164062 -2.613281 -34.882812 -2.59375 -35.28125 C -2.53125 -36.207031 -2.382812 -37.066406 -2.15625 -37.859375 C -1.9375 -38.648438 -1.769531 -39.207031 -1.65625 -39.53125 C -0.976562 -41.539062 0.144531 -43.320312 1.71875 -44.875 C 3.300781 -46.4375 5.675781 -47.46875 8.84375 -47.96875 C 11.925781 -48.457031 14.445312 -48.203125 16.40625 -47.203125 C 18.363281 -46.210938 19.941406 -44.726562 21.140625 -42.75 C 22.347656 -40.78125 23.316406 -38.578125 24.046875 -36.140625 C 24.535156 -34.472656 24.925781 -32.957031 25.21875 -31.59375 C 25.519531 -30.226562 25.71875 -29.253906 25.8125 -28.671875 Z M 13.953125 -30.5625 C 13.773438 -31.625 13.554688 -32.648438 13.296875 -33.640625 C 13.035156 -34.640625 12.671875 -35.4375 12.203125 -36.03125 C 11.734375 -36.632812 11.117188 -36.875 10.359375 -36.75 L 10.234375 -36.734375 C 10.078125 -36.703125 9.914062 -36.628906 9.75 -36.515625 C 9.59375 -36.410156 9.457031 -36.304688 9.34375 -36.203125 C 8.894531 -35.734375 8.617188 -35.066406 8.515625 -34.203125 C 8.410156 -33.335938 8.394531 -32.476562 8.46875 -31.625 C 8.550781 -30.78125 8.625 -30.171875 8.6875 -29.796875 C 8.75 -29.410156 8.816406 -29.023438 8.890625 -28.640625 C 8.972656 -28.265625 9.046875 -27.890625 9.109375 -27.515625 C 9.179688 -27.046875 9.226562 -26.609375 9.25 -26.203125 C 9.269531 -25.796875 9.316406 -25.363281 9.390625 -24.90625 C 9.484375 -24.613281 9.566406 -24.296875 9.640625 -23.953125 C 9.710938 -23.617188 9.773438 -23.28125 9.828125 -22.9375 C 9.890625 -22.601562 9.921875 -22.296875 9.921875 -22.015625 C 9.921875 -21.734375 9.945312 -21.425781 10 -21.09375 C 10.019531 -20.613281 10.0625 -20.171875 10.125 -19.765625 C 10.1875 -19.367188 10.253906 -18.9375 10.328125 -18.46875 C 10.460938 -17.625 10.632812 -16.875 10.84375 -16.21875 C 11.0625 -15.5625 11.234375 -15.09375 11.359375 -14.8125 C 11.421875 -14.726562 11.523438 -14.492188 11.671875 -14.109375 C 11.828125 -13.722656 12.085938 -13.382812 12.453125 -13.09375 C 12.816406 -12.8125 13.300781 -12.71875 13.90625 -12.8125 C 14.40625 -12.882812 14.75 -13.039062 14.9375 -13.28125 C 15.394531 -13.882812 15.65625 -14.6875 15.71875 -15.6875 C 15.78125 -16.695312 15.75 -17.703125 15.625 -18.703125 C 15.507812 -19.703125 15.414062 -20.4375 15.34375 -20.90625 C 15.1875 -21.914062 15.03125 -22.828125 14.875 -23.640625 C 14.726562 -24.460938 14.59375 -25.410156 14.46875 -26.484375 C 14.382812 -27.242188 14.304688 -27.921875 14.234375 -28.515625 C 14.160156 -29.117188 14.066406 -29.800781 13.953125 -30.5625 Z M 13.953125 -30.5625 "/></g></g></g><g fill="#f5eded" fill-opacity="1"><g transform="translate(216.326876, 193.813509)"><g><path d="M 26.359375 -27.875 C 26.523438 -26.726562 26.679688 -25.703125 26.828125 -24.796875 C 26.972656 -23.890625 27.085938 -22.859375 27.171875 -21.703125 C 27.253906 -20.847656 27.300781 -19.738281 27.3125 -18.375 C 27.332031 -17.007812 27.304688 -15.644531 27.234375 -14.28125 C 27.171875 -12.914062 27.007812 -11.785156 26.75 -10.890625 C 26.53125 -9.941406 26.242188 -9.128906 25.890625 -8.453125 C 25.535156 -7.785156 25.210938 -7.234375 24.921875 -6.796875 C 24.015625 -5.546875 22.832031 -4.472656 21.375 -3.578125 C 19.925781 -2.679688 17.972656 -2.0625 15.515625 -1.71875 C 13.191406 -1.382812 11.140625 -1.53125 9.359375 -2.15625 C 7.585938 -2.78125 6.160156 -3.550781 5.078125 -4.46875 C 3.941406 -5.476562 2.941406 -7.023438 2.078125 -9.109375 C 1.222656 -11.203125 0.492188 -13.691406 -0.109375 -16.578125 C -0.265625 -17.378906 -0.382812 -18.085938 -0.46875 -18.703125 C -0.550781 -19.316406 -0.671875 -20.023438 -0.828125 -20.828125 C -0.972656 -21.460938 -1.085938 -22.03125 -1.171875 -22.53125 C -1.265625 -23.039062 -1.359375 -23.609375 -1.453125 -24.234375 C -1.503906 -24.617188 -1.566406 -25.328125 -1.640625 -26.359375 C -1.710938 -27.390625 -1.785156 -28.523438 -1.859375 -29.765625 C -1.929688 -31.003906 -1.972656 -32.140625 -1.984375 -33.171875 C -2.003906 -34.210938 -2 -34.925781 -1.96875 -35.3125 C -1.875 -36.238281 -1.710938 -37.097656 -1.484375 -37.890625 C -1.253906 -38.679688 -1.070312 -39.238281 -0.9375 -39.5625 C -0.226562 -41.5625 0.925781 -43.320312 2.53125 -44.84375 C 4.144531 -46.375 6.539062 -47.359375 9.71875 -47.796875 C 12.8125 -48.234375 15.328125 -47.9375 17.265625 -46.90625 C 19.203125 -45.875 20.753906 -44.359375 21.921875 -42.359375 C 23.085938 -40.367188 24.015625 -38.144531 24.703125 -35.6875 C 25.160156 -34.019531 25.523438 -32.5 25.796875 -31.125 C 26.066406 -29.757812 26.238281 -28.785156 26.3125 -28.203125 Z M 14.5 -30.3125 C 14.351562 -31.375 14.15625 -32.40625 13.90625 -33.40625 C 13.65625 -34.40625 13.300781 -35.207031 12.84375 -35.8125 C 12.382812 -36.414062 11.773438 -36.664062 11.015625 -36.5625 L 10.890625 -36.546875 C 10.722656 -36.523438 10.5625 -36.457031 10.40625 -36.34375 C 10.25 -36.238281 10.117188 -36.132812 10.015625 -36.03125 C 9.546875 -35.570312 9.253906 -34.910156 9.140625 -34.046875 C 9.023438 -33.191406 8.992188 -32.332031 9.046875 -31.46875 C 9.109375 -30.613281 9.164062 -30 9.21875 -29.625 C 9.269531 -29.238281 9.332031 -28.859375 9.40625 -28.484375 C 9.476562 -28.109375 9.539062 -27.726562 9.59375 -27.34375 C 9.664062 -26.875 9.707031 -26.4375 9.71875 -26.03125 C 9.726562 -25.625 9.769531 -25.191406 9.84375 -24.734375 C 9.925781 -24.429688 10 -24.113281 10.0625 -23.78125 C 10.132812 -23.445312 10.191406 -23.109375 10.234375 -22.765625 C 10.285156 -22.421875 10.304688 -22.109375 10.296875 -21.828125 C 10.296875 -21.554688 10.320312 -21.25 10.375 -20.90625 C 10.382812 -20.4375 10.414062 -20 10.46875 -19.59375 C 10.53125 -19.1875 10.59375 -18.75 10.65625 -18.28125 C 10.78125 -17.4375 10.941406 -16.679688 11.140625 -16.015625 C 11.347656 -15.359375 11.515625 -14.882812 11.640625 -14.59375 C 11.691406 -14.519531 11.785156 -14.285156 11.921875 -13.890625 C 12.066406 -13.503906 12.320312 -13.164062 12.6875 -12.875 C 13.050781 -12.582031 13.53125 -12.476562 14.125 -12.5625 C 14.632812 -12.625 14.984375 -12.769531 15.171875 -13 C 15.640625 -13.601562 15.910156 -14.40625 15.984375 -15.40625 C 16.066406 -16.40625 16.0625 -17.40625 15.96875 -18.40625 C 15.875 -19.414062 15.796875 -20.15625 15.734375 -20.625 C 15.585938 -21.644531 15.441406 -22.5625 15.296875 -23.375 C 15.160156 -24.195312 15.046875 -25.144531 14.953125 -26.21875 C 14.890625 -26.976562 14.828125 -27.65625 14.765625 -28.25 C 14.703125 -28.851562 14.613281 -29.539062 14.5 -30.3125 Z M 14.5 -30.3125 "/></g></g></g><g fill="#f5eded" fill-opacity="1"><g transform="translate(247.725323, 189.411945)"><g><path d="M 26.875 -27.40625 C 27.007812 -26.257812 27.144531 -25.226562 27.28125 -24.3125 C 27.414062 -23.394531 27.507812 -22.359375 27.5625 -21.203125 C 27.625 -20.347656 27.648438 -19.238281 27.640625 -17.875 C 27.628906 -16.519531 27.578125 -15.15625 27.484375 -13.78125 C 27.398438 -12.414062 27.21875 -11.289062 26.9375 -10.40625 C 26.707031 -9.46875 26.40625 -8.660156 26.03125 -7.984375 C 25.664062 -7.316406 25.335938 -6.769531 25.046875 -6.34375 C 24.117188 -5.113281 22.921875 -4.0625 21.453125 -3.1875 C 19.984375 -2.320312 18.019531 -1.738281 15.5625 -1.4375 C 13.21875 -1.144531 11.164062 -1.328125 9.40625 -1.984375 C 7.644531 -2.640625 6.226562 -3.4375 5.15625 -4.375 C 4.039062 -5.394531 3.070312 -6.957031 2.25 -9.0625 C 1.4375 -11.164062 0.75 -13.671875 0.1875 -16.578125 C 0.0390625 -17.378906 -0.0664062 -18.085938 -0.140625 -18.703125 C -0.210938 -19.316406 -0.320312 -20.03125 -0.46875 -20.84375 C -0.59375 -21.46875 -0.695312 -22.035156 -0.78125 -22.546875 C -0.863281 -23.054688 -0.941406 -23.628906 -1.015625 -24.265625 C -1.066406 -24.640625 -1.117188 -25.34375 -1.171875 -26.375 C -1.234375 -27.40625 -1.285156 -28.539062 -1.328125 -29.78125 C -1.367188 -31.03125 -1.382812 -32.171875 -1.375 -33.203125 C -1.375 -34.242188 -1.359375 -34.957031 -1.328125 -35.34375 C -1.222656 -36.269531 -1.046875 -37.125 -0.796875 -37.90625 C -0.554688 -38.695312 -0.363281 -39.25 -0.21875 -39.5625 C 0.519531 -41.550781 1.707031 -43.289062 3.34375 -44.78125 C 4.976562 -46.269531 7.382812 -47.210938 10.5625 -47.609375 C 13.664062 -47.984375 16.175781 -47.640625 18.09375 -46.578125 C 20.019531 -45.515625 21.546875 -43.972656 22.671875 -41.953125 C 23.804688 -39.941406 24.691406 -37.703125 25.328125 -35.234375 C 25.753906 -33.554688 26.09375 -32.03125 26.34375 -30.65625 C 26.59375 -29.289062 26.753906 -28.316406 26.828125 -27.734375 Z M 15.03125 -30.046875 C 14.90625 -31.109375 14.722656 -32.140625 14.484375 -33.140625 C 14.253906 -34.148438 13.921875 -34.960938 13.484375 -35.578125 C 13.046875 -36.191406 12.441406 -36.453125 11.671875 -36.359375 L 11.5625 -36.34375 C 11.394531 -36.320312 11.226562 -36.257812 11.0625 -36.15625 C 10.90625 -36.050781 10.769531 -35.945312 10.65625 -35.84375 C 10.175781 -35.394531 9.875 -34.738281 9.75 -33.875 C 9.625 -33.019531 9.578125 -32.164062 9.609375 -31.3125 C 9.648438 -30.457031 9.695312 -29.835938 9.75 -29.453125 C 9.789062 -29.066406 9.84375 -28.6875 9.90625 -28.3125 C 9.976562 -27.9375 10.039062 -27.554688 10.09375 -27.171875 C 10.144531 -26.703125 10.175781 -26.265625 10.1875 -25.859375 C 10.195312 -25.453125 10.226562 -25.015625 10.28125 -24.546875 C 10.363281 -24.242188 10.4375 -23.925781 10.5 -23.59375 C 10.5625 -23.257812 10.613281 -22.921875 10.65625 -22.578125 C 10.695312 -22.234375 10.710938 -21.921875 10.703125 -21.640625 C 10.691406 -21.367188 10.707031 -21.0625 10.75 -20.71875 C 10.75 -20.238281 10.773438 -19.796875 10.828125 -19.390625 C 10.878906 -18.992188 10.929688 -18.554688 10.984375 -18.078125 C 11.085938 -17.234375 11.234375 -16.476562 11.421875 -15.8125 C 11.617188 -15.15625 11.78125 -14.679688 11.90625 -14.390625 C 11.957031 -14.304688 12.046875 -14.066406 12.171875 -13.671875 C 12.304688 -13.285156 12.550781 -12.941406 12.90625 -12.640625 C 13.269531 -12.335938 13.753906 -12.222656 14.359375 -12.296875 C 14.859375 -12.359375 15.207031 -12.503906 15.40625 -12.734375 C 15.894531 -13.328125 16.179688 -14.125 16.265625 -15.125 C 16.359375 -16.125 16.363281 -17.125 16.28125 -18.125 C 16.207031 -19.132812 16.144531 -19.867188 16.09375 -20.328125 C 15.96875 -21.359375 15.84375 -22.285156 15.71875 -23.109375 C 15.59375 -23.929688 15.488281 -24.878906 15.40625 -25.953125 C 15.351562 -26.710938 15.300781 -27.390625 15.25 -27.984375 C 15.195312 -28.585938 15.125 -29.273438 15.03125 -30.046875 Z M 15.03125 -30.046875 "/></g></g></g></svg>