<svg xmlns="http://www.w3.org/2000/svg" xmlns:xlink="http://www.w3.org/1999/xlink" width="441" zoomAndPan="magnify" viewBox="0 0 330.75 356.999992" height="476" preserveAspectRatio="xMidYMid meet" version="1.0"><defs><g/><clipPath id="a5ad366e27"><path d="M 0 3 L 330.5 3 L 330.5 355 L 0 355 Z M 0 3 " clip-rule="nonzero"/></clipPath><clipPath id="f8ac1bbe26"><path d="M 13 14 L 330.5 14 L 330.5 326 L 13 326 Z M 13 14 " clip-rule="nonzero"/></clipPath></defs><g clip-path="url(#a5ad366e27)"><path fill="#7fa1c3" d="M 296.164062 215.386719 C 285.964844 202.972656 263.355469 210.953125 252.714844 198.980469 C 245.175781 191 247.835938 177.257812 254.488281 168.390625 C 261.136719 159.523438 270.890625 153.757812 278.871094 146.222656 C 284.636719 140.902344 289.511719 133.808594 290.398438 126.269531 C 291.730469 118.289062 288.183594 109.421875 281.089844 106.320312 C 276.210938 104.101562 270.003906 104.546875 264.683594 105.875 C 249.609375 108.980469 232.761719 112.96875 220.792969 103.660156 C 203.058594 89.472656 207.933594 60.210938 193.304688 43.804688 C 192.859375 43.363281 192.417969 42.917969 191.972656 42.476562 C 172.910156 23.855469 160.050781 47.796875 151.628906 65.53125 C 149.855469 69.519531 148.082031 73.511719 146.753906 76.171875 C 133.894531 101.886719 105.519531 93.019531 88.230469 76.613281 C 81.578125 70.40625 74.484375 63.757812 65.617188 61.097656 C 56.75 58.4375 45.667969 61.539062 42.121094 69.964844 C 35.027344 86.367188 54.089844 103.214844 58.96875 116.960938 C 62.515625 126.714844 63.402344 138.683594 58.082031 147.996094 C 50.542969 161.738281 33.695312 167.058594 19.953125 174.597656 C 6.652344 182.132812 -5.320312 194.105469 -8.867188 209.179688 C -12.414062 224.253906 -5.761719 241.984375 8.425781 248.191406 C 25.714844 255.285156 46.109375 244.203125 63.402344 251.296875 C 76.257812 256.617188 83.351562 270.359375 87.34375 283.660156 C 90.890625 296.960938 92.664062 311.148438 99.757812 323.5625 C 106.40625 335.535156 121.039062 345.289062 134.339844 340.410156 C 137.886719 339.082031 140.546875 337.308594 143.207031 334.648438 C 147.195312 330.65625 150.300781 324.894531 152.074219 319.574219 C 155.175781 310.707031 156.949219 301.394531 160.9375 292.527344 C 175.570312 262.824219 207.933594 262.824219 235.421875 266.371094 C 254.042969 268.585938 273.550781 262.824219 287.296875 250.410156 C 297.492188 241.097656 304.585938 225.582031 296.164062 215.386719 Z M 288.183594 44.25 C 284.636719 40.257812 279.757812 38.042969 274.4375 38.042969 C 270.890625 38.042969 267.34375 38.484375 263.796875 39.816406 C 262.46875 40.257812 260.695312 40.703125 259.363281 41.589844 C 245.175781 48.238281 227.441406 66.859375 229.660156 83.707031 C 230.101562 85.480469 230.546875 87.699219 232.320312 88.585938 C 234.09375 89.472656 236.753906 88.585938 238.527344 87.699219 C 238.96875 87.699219 239.414062 87.253906 239.855469 87.253906 C 256.261719 80.160156 281.089844 83.707031 289.957031 64.644531 C 293.058594 57.992188 292.617188 49.570312 288.183594 44.25 Z M 35.914062 124.496094 C 34.582031 122.722656 33.253906 121.394531 31.480469 119.621094 C 24.386719 113.855469 15.074219 110.308594 6.207031 110.753906 C 1.773438 110.753906 -3.101562 112.082031 -6.648438 114.742188 C -10.195312 117.402344 -12.414062 122.28125 -11.96875 126.714844 C -11.082031 131.589844 -7.09375 134.695312 -2.214844 136.023438 C -0.441406 136.46875 1.773438 136.910156 3.546875 136.910156 C 10.199219 136.910156 16.847656 134.695312 23.5 134.25 C 27.046875 134.25 35.914062 136.910156 38.574219 134.695312 C 41.234375 132.476562 37.6875 126.714844 35.914062 124.496094 Z M 240.742188 325.78125 C 240.300781 322.675781 239.855469 320.015625 238.527344 316.914062 C 238.082031 316.027344 237.640625 315.582031 237.640625 314.695312 C 232.320312 304.941406 223.453125 297.847656 213.699219 292.972656 C 211.039062 291.640625 199.066406 286.320312 192.417969 287.207031 C 189.757812 287.652344 187.984375 288.539062 187.984375 291.199219 C 187.984375 292.085938 188.425781 292.972656 188.871094 293.859375 C 192.859375 302.726562 195.964844 309.820312 196.40625 319.574219 C 196.851562 327.996094 195.519531 337.308594 200.398438 344.84375 C 204.832031 351.496094 213.253906 355.484375 221.679688 353.710938 C 234.980469 351.496094 242.074219 338.636719 240.742188 325.78125 Z M 50.988281 267.257812 C 50.101562 267.257812 49.65625 267.257812 48.769531 267.699219 C 46.996094 268.144531 45.667969 268.585938 43.894531 269.03125 C 39.460938 270.359375 35.027344 272.578125 31.035156 275.238281 C 23.054688 280.558594 16.40625 287.652344 11.972656 295.632812 C 8.425781 302.28125 6.207031 309.820312 7.980469 316.914062 C 9.3125 324.007812 15.074219 330.65625 22.613281 331.542969 C 23.5 331.542969 24.386719 331.542969 25.273438 331.542969 C 32.808594 331.101562 39.460938 324.894531 42.121094 317.800781 C 45.667969 309.820312 45.667969 300.953125 46.109375 292.527344 C 46.996094 284.105469 48.769531 274.792969 54.535156 268.585938 C 56.75 267.257812 50.988281 267.257812 50.988281 267.257812 Z M 125.472656 65.53125 C 125.027344 64.199219 124.585938 62.425781 123.699219 61.097656 C 121.480469 54.890625 120.59375 47.796875 121.039062 41.144531 C 121.480469 34.496094 123.699219 27.84375 123.253906 21.195312 C 123.253906 14.542969 120.152344 7.007812 113.945312 4.347656 C 106.40625 1.242188 97.539062 6.5625 94.4375 14.101562 C 91.332031 21.636719 92.664062 30.0625 95.765625 37.597656 C 99.757812 48.238281 108.625 62.871094 119.707031 68.191406 C 125.472656 69.964844 126.359375 68.632812 125.472656 65.53125 Z M 342.714844 183.90625 C 342.273438 180.359375 340.054688 176.8125 337.839844 173.710938 C 337.839844 173.710938 337.394531 173.265625 337.394531 173.265625 C 333.40625 167.945312 327.640625 163.511719 320.992188 161.296875 C 312.125 158.636719 302.8125 159.964844 294.390625 163.070312 C 289.957031 164.84375 262.910156 177.257812 271.335938 183.464844 C 272.664062 184.351562 274.4375 184.792969 275.769531 184.792969 C 276.65625 184.792969 277.984375 184.792969 279.316406 184.792969 C 289.511719 185.238281 299.710938 187.453125 309.019531 191.886719 C 313.898438 194.105469 318.773438 197.207031 324.09375 198.539062 C 329.414062 199.867188 335.621094 198.980469 339.613281 194.992188 C 342.273438 192.332031 343.160156 187.898438 342.714844 183.90625 Z M 342.714844 183.90625 " fill-opacity="1" fill-rule="nonzero"/><path fill="#7fa1c3" d="M 193.304688 43.804688 C 189.3125 42.917969 184.4375 43.363281 180.890625 45.578125 C 173.351562 50.011719 169.363281 58.4375 167.144531 66.859375 C 164.929688 75.285156 163.597656 84.152344 160.050781 92.132812 C 152.074219 107.648438 132.121094 116.515625 115.273438 112.082031 C 107.292969 109.867188 97.539062 105.433594 90.890625 110.753906 C 84.683594 116.074219 87.34375 125.828125 88.671875 133.808594 C 90.445312 146.664062 87.34375 160.410156 80.25 170.605469 C 73.597656 179.917969 63.402344 189.226562 65.617188 200.3125 C 67.835938 210.507812 78.917969 215.386719 86.898438 222.035156 C 98.871094 232.234375 103.746094 248.636719 105.078125 264.152344 C 106.851562 279.671875 105.519531 295.632812 108.625 310.707031 C 109.953125 318.242188 112.613281 325.78125 117.933594 331.542969 C 123.253906 337.308594 131.679688 339.96875 138.773438 336.863281 C 140.101562 336.421875 141.433594 335.535156 142.761719 334.203125 C 140.546875 336.863281 137.441406 338.636719 133.894531 339.96875 C 120.59375 344.84375 106.40625 335.535156 99.3125 323.121094 C 92.664062 311.148438 90.890625 296.960938 86.898438 283.21875 C 82.910156 269.917969 75.816406 256.171875 62.957031 250.851562 C 45.667969 243.757812 24.828125 255.285156 7.980469 247.75 C -6.207031 241.542969 -12.855469 223.808594 -9.308594 208.734375 C -5.761719 193.660156 6.207031 181.691406 19.507812 174.152344 C 33.253906 166.617188 50.101562 161.296875 57.636719 147.550781 C 62.515625 138.242188 62.070312 126.714844 58.523438 116.515625 C 53.648438 102.773438 34.582031 85.925781 41.675781 69.519531 C 45.222656 61.097656 56.308594 57.992188 65.175781 60.652344 C 74.042969 63.3125 81.136719 69.519531 87.785156 76.171875 C 105.078125 92.574219 133.453125 101.886719 146.308594 75.726562 C 147.640625 73.066406 149.414062 69.078125 151.1875 65.085938 C 159.609375 47.351562 172.464844 23.855469 191.53125 42.03125 C 192.417969 42.917969 192.859375 43.363281 193.304688 43.804688 Z M 125.472656 65.53125 C 124.585938 64.199219 123.699219 63.3125 123.253906 61.984375 C 114.832031 51.785156 107.738281 39.816406 106.851562 26.957031 C 106.40625 18.535156 109.066406 10.109375 114.386719 3.902344 C 106.851562 0.800781 97.984375 6.121094 94.878906 13.65625 C 91.777344 21.195312 93.105469 29.617188 96.210938 37.15625 C 100.199219 47.796875 109.066406 62.425781 120.152344 67.746094 C 125.472656 69.964844 126.359375 68.632812 125.472656 65.53125 Z M 6.207031 111.195312 C 1.773438 111.195312 -3.101562 112.527344 -6.648438 115.1875 C -10.195312 117.847656 -12.414062 122.722656 -11.96875 127.15625 C -11.082031 132.035156 -7.09375 135.136719 -2.214844 136.46875 C -0.441406 133.363281 0.445312 129.816406 2.660156 127.15625 C 6.207031 121.394531 13.746094 118.289062 20.394531 117.847656 C 23.941406 117.847656 27.933594 119.175781 31.480469 120.0625 C 24.386719 114.300781 15.074219 110.753906 6.207031 111.195312 Z M 44.335938 269.03125 C 39.902344 270.359375 35.46875 272.578125 31.480469 275.238281 C 23.5 280.558594 16.847656 287.652344 12.414062 295.632812 C 8.867188 302.28125 6.652344 309.820312 8.425781 316.914062 C 9.753906 324.007812 15.519531 330.65625 23.054688 331.542969 C 23.941406 331.542969 24.828125 331.542969 25.714844 331.542969 C 21.28125 319.574219 21.726562 305.386719 27.046875 293.859375 C 31.035156 284.546875 37.6875 279.226562 44.78125 272.578125 C 46.996094 270.804688 48.328125 268.585938 49.214844 267.257812 C 47.441406 268.144531 45.667969 268.585938 44.335938 269.03125 Z M 240.742188 325.78125 C 239.414062 329.328125 237.195312 332.875 234.535156 335.976562 C 227.886719 343.070312 215.027344 345.289062 208.378906 338.195312 C 199.953125 329.328125 206.160156 314.253906 199.953125 303.613281 C 197.738281 299.179688 193.304688 296.074219 191.972656 291.199219 C 191.53125 290.3125 191.972656 288.980469 191.972656 287.207031 C 189.3125 287.652344 187.539062 288.539062 187.539062 291.199219 C 187.539062 292.085938 187.984375 292.972656 188.425781 293.859375 C 192.417969 302.726562 195.519531 309.820312 195.964844 319.574219 C 196.40625 327.996094 195.078125 337.308594 199.953125 344.84375 C 204.386719 351.496094 212.8125 355.484375 221.234375 353.710938 C 234.980469 351.496094 242.074219 338.636719 240.742188 325.78125 Z M 337.394531 173.265625 C 333.40625 167.945312 327.640625 163.511719 320.992188 161.296875 C 312.125 158.636719 302.8125 159.964844 294.390625 163.070312 C 289.957031 164.84375 262.910156 177.257812 271.335938 183.464844 C 272.664062 184.351562 274.4375 184.792969 275.769531 184.792969 C 286.410156 174.597656 301.039062 168.832031 315.671875 169.277344 C 323.207031 169.277344 330.300781 171.050781 337.394531 174.152344 C 337.839844 173.265625 337.394531 173.265625 337.394531 173.265625 Z M 259.363281 41.144531 C 245.175781 47.796875 227.441406 66.417969 229.660156 83.265625 C 230.101562 85.039062 230.546875 87.253906 232.320312 88.140625 C 234.09375 89.027344 236.753906 88.140625 238.527344 87.253906 C 238.96875 87.253906 239.414062 86.8125 239.855469 86.8125 C 241.1875 84.59375 242.074219 81.492188 242.960938 78.832031 C 246.949219 65.972656 250.496094 52.671875 259.808594 42.917969 C 261.136719 41.589844 262.023438 40.703125 263.355469 39.371094 C 262.023438 40.257812 260.695312 40.703125 259.363281 41.144531 Z M 259.363281 41.144531 " fill-opacity="1" fill-rule="nonzero"/></g><g clip-path="url(#f8ac1bbe26)"><path fill="#7fa1c3" d="M 222.566406 136.910156 C 219.90625 138.242188 217.246094 138.683594 213.699219 137.796875 C 211.480469 137.355469 209.265625 136.46875 207.492188 135.136719 C 203.5 133.363281 199.953125 130.261719 197.292969 127.15625 C 194.191406 123.609375 191.972656 119.621094 190.644531 114.742188 C 190.199219 112.527344 189.757812 110.308594 189.757812 108.09375 C 189.757812 106.761719 189.757812 105.433594 190.199219 104.101562 C 190.644531 102.773438 191.53125 101.886719 191.972656 101 C 193.304688 99.226562 195.964844 98.78125 197.292969 101 C 197.292969 101 198.179688 101.886719 197.738281 101.441406 C 198.179688 101.886719 198.625 102.328125 199.066406 102.773438 C 199.511719 103.660156 199.953125 104.988281 200.398438 105.875 C 200.839844 106.761719 200.839844 107.648438 201.285156 108.535156 C 201.285156 108.980469 201.726562 109.421875 201.726562 109.867188 C 201.726562 109.867188 201.726562 110.308594 202.171875 110.753906 C 202.171875 111.195312 202.613281 111.195312 202.613281 111.640625 C 202.613281 112.082031 203.058594 112.527344 203.058594 112.96875 C 203.5 113.855469 203.945312 114.742188 204.386719 115.1875 C 204.832031 115.628906 205.273438 116.515625 205.71875 116.960938 C 205.71875 116.960938 206.160156 117.402344 206.160156 117.847656 C 206.605469 118.289062 206.605469 118.289062 207.046875 118.734375 C 207.492188 119.175781 208.378906 120.0625 208.820312 120.507812 C 208.820312 120.507812 209.707031 121.394531 209.707031 121.394531 C 209.707031 121.394531 209.265625 120.949219 209.265625 120.949219 C 209.707031 120.949219 209.707031 121.394531 210.152344 121.394531 C 211.480469 122.28125 213.253906 123.167969 214.585938 124.054688 C 215.027344 124.054688 215.472656 124.496094 215.472656 124.496094 C 216.800781 124.941406 218.132812 125.382812 219.019531 125.828125 C 219.019531 125.828125 218.574219 125.828125 218.574219 125.382812 C 219.019531 125.382812 219.460938 125.828125 219.90625 125.828125 C 220.347656 126.269531 220.792969 126.269531 221.234375 126.714844 C 220.792969 126.714844 223.453125 128.488281 222.121094 127.601562 C 222.566406 128.042969 223.007812 128.488281 223.894531 128.929688 C 225.667969 131.589844 225.226562 136.023438 222.566406 136.910156 Z M 242.074219 125.828125 C 236.308594 125.828125 236.308594 134.695312 242.074219 134.695312 C 247.835938 134.695312 247.835938 125.828125 242.074219 125.828125 Z M 263.796875 230.902344 C 258.921875 228.6875 253.15625 233.121094 248.28125 234.449219 C 242.960938 235.777344 237.195312 236.222656 231.433594 236.664062 C 219.019531 237.109375 206.160156 236.222656 193.746094 238.882812 C 173.351562 243.316406 156.507812 256.171875 145.421875 273.464844 C 144.09375 275.679688 147.640625 278.785156 149.414062 276.566406 C 162.710938 260.605469 183.550781 249.523438 204.386719 248.191406 C 216.800781 247.75 228.773438 249.523438 240.742188 248.191406 C 249.167969 247.304688 265.570312 245.53125 266.457031 234.890625 C 266.902344 233.121094 265.570312 231.789062 263.796875 230.902344 Z M 284.636719 224.695312 C 284.636719 223.808594 284.191406 223.367188 283.75 222.921875 C 283.304688 222.480469 282.863281 222.035156 282.417969 222.035156 C 281.976562 221.59375 281.53125 221.59375 280.644531 221.59375 C 279.757812 221.59375 279.316406 221.59375 278.429688 222.035156 C 277.984375 222.480469 277.542969 222.480469 277.097656 222.921875 C 276.65625 223.367188 276.65625 223.367188 276.65625 223.808594 C 276.65625 223.808594 276.65625 224.253906 276.210938 224.253906 C 276.210938 224.253906 276.210938 224.253906 276.210938 224.695312 C 276.210938 224.695312 276.210938 225.140625 275.769531 225.140625 C 275.769531 225.582031 275.769531 226.027344 275.324219 226.46875 C 275.324219 226.914062 275.324219 227.355469 275.324219 228.242188 C 275.324219 228.6875 275.324219 229.128906 275.769531 229.574219 L 276.210938 230.460938 C 276.65625 230.902344 277.097656 230.902344 277.542969 231.347656 C 277.984375 231.347656 277.984375 231.789062 278.429688 231.789062 C 278.871094 231.789062 279.316406 231.789062 280.203125 231.789062 C 280.644531 231.789062 280.644531 231.347656 281.089844 231.347656 C 281.53125 230.902344 281.976562 230.460938 282.417969 230.015625 C 282.863281 229.128906 283.304688 228.6875 283.304688 227.800781 C 283.304688 227.800781 283.304688 227.355469 283.304688 227.355469 C 283.304688 227.355469 283.304688 227.355469 283.304688 226.914062 C 283.304688 226.46875 283.304688 226.027344 283.304688 225.140625 C 285.078125 225.140625 285.078125 225.140625 284.636719 224.695312 Z M 281.089844 54.445312 C 281.089844 55.332031 281.089844 56.21875 280.644531 57.105469 C 280.644531 57.550781 280.203125 58.4375 279.757812 58.878906 C 278.871094 59.765625 277.984375 60.652344 276.65625 61.097656 C 276.65625 61.097656 276.210938 61.097656 276.210938 61.097656 C 276.210938 61.097656 275.769531 61.097656 275.769531 61.097656 C 274.4375 61.539062 272.664062 61.097656 271.777344 60.210938 C 270.890625 59.324219 270.449219 58.4375 270.449219 57.105469 C 270.449219 56.21875 270.449219 55.332031 270.449219 54.890625 C 270.449219 54.890625 270.449219 54.445312 270.449219 54.445312 C 270.449219 54.445312 270.449219 54.003906 270.449219 54.003906 C 270.449219 54.003906 270.449219 53.558594 270.449219 53.558594 C 270.449219 53.117188 270.449219 52.671875 270.003906 52.671875 C 270.003906 52.671875 270.003906 53.117188 270.449219 53.117188 C 270.449219 52.671875 270.003906 52.230469 270.003906 51.785156 C 270.003906 51.34375 269.5625 50.898438 269.5625 50.457031 C 269.5625 50.457031 269.5625 50.457031 269.5625 50.011719 C 269.5625 50.011719 269.5625 49.570312 269.5625 49.570312 C 269.117188 48.683594 269.117188 47.796875 269.5625 46.910156 C 270.003906 46.023438 270.449219 45.578125 271.335938 45.136719 C 273.109375 44.691406 274.882812 44.691406 276.210938 45.578125 C 277.097656 46.023438 277.542969 46.464844 277.984375 46.910156 C 278.871094 47.796875 279.316406 48.683594 279.757812 50.011719 C 281.089844 51.785156 281.53125 53.117188 281.089844 54.445312 Z M 118.378906 18.976562 C 118.378906 18.089844 117.933594 17.203125 117.933594 15.875 C 117.933594 15.429688 117.492188 14.988281 117.046875 14.542969 C 116.605469 14.101562 116.160156 14.101562 115.71875 14.101562 C 115.273438 14.101562 114.832031 14.101562 114.386719 14.542969 C 113.945312 14.988281 113.5 15.429688 113.5 15.875 C 113.5 16.761719 113.058594 17.648438 113.058594 18.976562 C 113.058594 19.421875 113.058594 19.863281 113.058594 20.308594 C 113.058594 20.75 113.058594 20.75 113.058594 21.195312 C 113.058594 21.636719 113.058594 22.523438 113.5 22.96875 C 113.945312 23.410156 113.945312 23.855469 114.832031 24.296875 C 115.273438 24.742188 115.71875 24.742188 116.160156 24.742188 C 116.605469 24.742188 117.046875 24.742188 117.492188 24.296875 C 117.933594 24.296875 118.378906 23.410156 118.820312 22.96875 C 119.265625 22.523438 119.265625 22.082031 119.265625 21.195312 C 119.265625 20.75 119.265625 20.75 119.265625 20.308594 C 118.378906 19.863281 118.378906 19.421875 118.378906 18.976562 Z M 333.847656 186.125 C 332.519531 184.792969 330.746094 184.351562 328.972656 184.792969 C 328.527344 184.792969 327.640625 185.238281 327.199219 185.238281 C 327.199219 185.238281 326.753906 185.238281 326.753906 185.238281 C 326.753906 185.238281 326.753906 185.238281 326.3125 185.238281 C 326.3125 185.238281 325.867188 185.238281 325.867188 185.238281 C 325.425781 185.238281 324.980469 185.238281 324.09375 185.238281 C 323.652344 185.238281 323.652344 185.238281 323.207031 185.238281 C 321.878906 184.792969 320.546875 184.792969 319.660156 184.351562 C 319.21875 184.351562 319.21875 184.351562 318.773438 183.90625 C 318.773438 183.90625 318.332031 183.90625 318.332031 183.90625 C 317.886719 183.464844 317 183.464844 316.558594 183.019531 C 315.671875 182.132812 313.453125 182.578125 312.566406 183.464844 C 311.679688 184.351562 311.238281 186.125 312.125 187.453125 C 313.011719 188.785156 313.898438 189.671875 314.785156 190.558594 C 316.113281 191.886719 317.445312 192.332031 319.21875 193.21875 C 321.878906 194.105469 324.539062 194.546875 327.640625 194.105469 C 329.414062 193.660156 331.632812 193.21875 332.960938 191.886719 C 335.179688 189.671875 335.179688 187.453125 333.847656 186.125 Z M 326.753906 185.238281 C 326.753906 184.792969 326.753906 184.792969 326.753906 185.238281 C 327.199219 184.792969 326.753906 184.792969 326.753906 185.238281 Z M 226.113281 312.035156 C 226.113281 311.148438 225.667969 310.261719 225.226562 309.820312 C 224.339844 308.488281 223.453125 307.601562 222.566406 306.714844 C 222.121094 306.273438 221.679688 305.828125 221.234375 305.828125 C 220.792969 305.386719 220.347656 304.941406 219.90625 304.941406 C 219.460938 304.941406 219.460938 304.5 219.019531 304.5 C 217.6875 304.054688 216.359375 303.613281 215.027344 303.167969 C 214.140625 302.726562 212.8125 303.167969 212.367188 304.5 C 211.925781 305.386719 211.925781 306.714844 212.8125 307.601562 C 213.699219 308.488281 214.585938 308.933594 215.027344 309.820312 C 215.472656 310.261719 215.914062 310.707031 216.359375 311.148438 C 216.800781 311.59375 217.246094 312.035156 217.6875 312.480469 C 218.574219 313.367188 219.019531 314.253906 219.90625 315.140625 C 220.792969 316.027344 222.121094 316.914062 223.453125 317.355469 C 224.78125 317.800781 226.113281 316.914062 226.113281 315.582031 C 226.113281 315.140625 226.113281 314.695312 226.113281 314.253906 C 226.554688 312.921875 226.113281 312.480469 226.113281 312.035156 Z M 227.441406 320.460938 C 223.894531 320.460938 223.894531 325.78125 227.441406 325.78125 C 230.988281 326.222656 230.988281 320.460938 227.441406 320.460938 Z M 35.46875 303.613281 C 35.46875 303.613281 35.914062 303.167969 35.46875 303.613281 Z M 39.460938 296.074219 C 37.6875 296.074219 36.355469 297.40625 36.355469 299.179688 C 36.355469 299.621094 36.355469 299.621094 36.355469 300.066406 C 36.355469 300.066406 36.355469 300.066406 36.355469 300.507812 C 36.355469 300.953125 36.355469 301.839844 35.914062 302.28125 C 35.914062 302.726562 35.46875 303.613281 35.46875 304.054688 C 35.46875 304.054688 35.46875 304.5 35.46875 304.5 C 35.46875 304.941406 35.027344 304.941406 35.027344 305.386719 C 34.582031 305.828125 34.582031 306.273438 34.140625 306.714844 C 34.140625 306.714844 33.695312 307.160156 33.695312 307.160156 C 33.695312 307.160156 34.140625 306.714844 33.695312 307.160156 C 33.695312 307.160156 33.695312 307.160156 33.695312 307.601562 C 33.253906 308.046875 32.808594 308.488281 32.367188 308.933594 C 31.921875 309.375 31.480469 310.261719 31.035156 310.707031 C 30.148438 311.59375 30.59375 313.367188 31.480469 314.253906 C 32.367188 315.140625 33.695312 316.027344 35.027344 315.582031 C 35.46875 315.582031 35.914062 315.140625 36.355469 315.140625 C 36.800781 314.695312 37.242188 314.695312 37.6875 314.253906 C 38.128906 313.808594 39.015625 312.921875 39.460938 312.035156 C 40.347656 311.148438 40.789062 309.820312 41.675781 308.488281 C 43.007812 305.828125 43.449219 302.726562 43.449219 299.621094 C 42.5625 297.40625 41.234375 296.074219 39.460938 296.074219 Z M 33.695312 306.714844 Z M 25.714844 125.382812 C 25.273438 124.941406 24.828125 124.496094 24.386719 124.496094 C 23.054688 124.496094 22.167969 124.054688 20.839844 124.496094 C 19.953125 124.941406 19.066406 124.941406 18.621094 125.382812 C 18.179688 125.382812 18.179688 125.828125 17.734375 125.828125 C 17.734375 125.828125 17.292969 125.828125 17.292969 125.828125 L 15.074219 126.269531 C 13.300781 126.714844 13.746094 129.375 15.519531 129.375 C 16.40625 129.375 16.847656 129.375 17.734375 129.375 C 17.734375 129.375 18.179688 129.375 18.179688 129.375 C 18.621094 129.375 18.621094 129.375 19.066406 129.375 C 19.953125 129.375 20.839844 129.816406 21.726562 129.816406 C 23.054688 129.816406 23.941406 129.375 24.828125 128.929688 C 25.273438 128.929688 25.714844 128.488281 25.714844 128.042969 C 26.160156 127.601562 26.160156 126.714844 26.160156 126.269531 C 26.160156 125.828125 25.714844 125.382812 25.714844 125.382812 Z M 25.714844 125.382812 " fill-opacity="1" fill-rule="nonzero"/></g><g fill="#f5eded" fill-opacity="0.4"><g transform="translate(80.185548, 209.934245)"><g><path d="M 26.125 -21.359375 C 26.132812 -21.273438 26.1875 -20.707031 26.28125 -19.65625 C 26.382812 -18.601562 26.425781 -17.382812 26.40625 -16 C 26.382812 -14.625 26.164062 -13.328125 25.75 -12.109375 C 25.382812 -10.984375 24.785156 -9.769531 23.953125 -8.46875 C 23.117188 -7.164062 22 -5.988281 20.59375 -4.9375 C 19.195312 -3.894531 17.453125 -3.160156 15.359375 -2.734375 C 14.816406 -2.617188 14.34375 -2.539062 13.9375 -2.5 C 13.53125 -2.46875 13.210938 -2.453125 12.984375 -2.453125 C 12.085938 -2.390625 11.296875 -2.351562 10.609375 -2.34375 C 9.929688 -2.34375 9.257812 -2.4375 8.59375 -2.625 C 7.925781 -2.8125 7.070312 -3.109375 6.03125 -3.515625 C 5.601562 -3.691406 5.097656 -3.914062 4.515625 -4.1875 C 3.929688 -4.457031 3.21875 -4.96875 2.375 -5.71875 C 1.6875 -6.3125 1.222656 -6.804688 0.984375 -7.203125 C 0.753906 -7.597656 0.613281 -7.941406 0.5625 -8.234375 C 0.382812 -9.066406 0.492188 -9.722656 0.890625 -10.203125 C 1.296875 -10.679688 1.628906 -11.050781 1.890625 -11.3125 C 2.242188 -11.75 2.535156 -12.148438 2.765625 -12.515625 C 2.992188 -12.878906 3.257812 -13.269531 3.5625 -13.6875 C 3.738281 -13.9375 3.867188 -14.171875 3.953125 -14.390625 C 4.035156 -14.609375 4.164062 -14.816406 4.34375 -15.015625 C 4.738281 -15.410156 5.144531 -15.65625 5.5625 -15.75 C 6.164062 -15.820312 6.664062 -15.625 7.0625 -15.15625 C 7.46875 -14.695312 7.695312 -14.425781 7.75 -14.34375 C 8.007812 -14.164062 8.144531 -14.046875 8.15625 -13.984375 C 8.164062 -13.929688 8.34375 -13.828125 8.6875 -13.671875 C 9.3125 -13.367188 9.851562 -13.207031 10.3125 -13.1875 C 10.769531 -13.175781 11.253906 -13.222656 11.765625 -13.328125 C 13.140625 -13.609375 14.035156 -14.320312 14.453125 -15.46875 C 14.878906 -16.625 14.988281 -17.726562 14.78125 -18.78125 C 14.476562 -20.25 13.972656 -21.328125 13.265625 -22.015625 C 12.566406 -22.703125 11.804688 -23.125 10.984375 -23.28125 C 10.171875 -23.445312 9.40625 -23.492188 8.6875 -23.421875 C 7.976562 -23.347656 7.457031 -23.273438 7.125 -23.203125 C 6.625 -23.097656 6.289062 -22.984375 6.125 -22.859375 C 5.957031 -22.734375 5.707031 -22.59375 5.375 -22.4375 C 5.15625 -22.3125 4.976562 -22.15625 4.84375 -21.96875 C 4.707031 -21.789062 4.507812 -21.675781 4.25 -21.625 C 3.957031 -21.519531 3.523438 -21.597656 2.953125 -21.859375 C 2.378906 -22.117188 1.957031 -22.367188 1.6875 -22.609375 C 1.582031 -22.679688 1.5 -22.816406 1.4375 -23.015625 C 1.375 -23.222656 1.328125 -23.390625 1.296875 -23.515625 L 1.03125 -24.828125 C 0.738281 -26.253906 0.507812 -27.53125 0.34375 -28.65625 C 0.1875 -29.789062 -0.03125 -31.046875 -0.3125 -32.421875 C -0.46875 -33.179688 -0.613281 -33.859375 -0.75 -34.453125 C -0.894531 -35.054688 -1.039062 -35.71875 -1.1875 -36.4375 C -1.269531 -36.851562 -1.332031 -37.222656 -1.375 -37.546875 C -1.425781 -37.867188 -1.472656 -38.238281 -1.515625 -38.65625 C -1.585938 -39.25 -1.664062 -39.765625 -1.75 -40.203125 C -1.84375 -40.640625 -1.945312 -41.132812 -2.0625 -41.6875 C -2.113281 -41.9375 -2.171875 -42.164062 -2.234375 -42.375 C -2.296875 -42.582031 -2.351562 -42.804688 -2.40625 -43.046875 L -2.421875 -43.109375 C -2.566406 -43.828125 -2.40625 -44.492188 -1.9375 -45.109375 C -1.476562 -45.734375 -0.914062 -46.117188 -0.25 -46.265625 C 0.132812 -46.335938 0.476562 -46.378906 0.78125 -46.390625 C 1.082031 -46.398438 1.445312 -46.453125 1.875 -46.546875 C 2.664062 -46.703125 3.378906 -46.832031 4.015625 -46.9375 C 4.648438 -47.050781 5.359375 -47.207031 6.140625 -47.40625 C 6.722656 -47.53125 7.25 -47.664062 7.71875 -47.8125 C 8.195312 -47.957031 8.726562 -48.085938 9.3125 -48.203125 C 9.863281 -48.316406 10.335938 -48.398438 10.734375 -48.453125 C 11.140625 -48.515625 11.59375 -48.597656 12.09375 -48.703125 L 15.296875 -49.359375 C 15.515625 -49.398438 15.710938 -49.457031 15.890625 -49.53125 C 16.078125 -49.613281 16.296875 -49.679688 16.546875 -49.734375 C 17.171875 -49.859375 17.628906 -49.765625 17.921875 -49.453125 C 18.222656 -49.140625 18.429688 -48.804688 18.546875 -48.453125 C 18.671875 -48.109375 18.738281 -47.921875 18.75 -47.890625 C 18.832031 -47.460938 18.894531 -47.085938 18.9375 -46.765625 C 18.976562 -46.453125 19.039062 -46.082031 19.125 -45.65625 C 19.226562 -45.113281 19.34375 -44.601562 19.46875 -44.125 C 19.59375 -43.644531 19.71875 -43.117188 19.84375 -42.546875 C 20 -41.742188 20.007812 -41.125 19.875 -40.6875 C 19.75 -40.25 19.375 -39.96875 18.75 -39.84375 C 17.40625 -39.5625 16.179688 -39.332031 15.078125 -39.15625 C 13.984375 -38.976562 12.765625 -38.753906 11.421875 -38.484375 C 10.796875 -38.347656 10.210938 -38.210938 9.671875 -38.078125 C 9.128906 -37.953125 8.773438 -37.785156 8.609375 -37.578125 C 8.429688 -37.359375 8.332031 -37.125 8.3125 -36.875 C 8.300781 -36.632812 8.320312 -36.367188 8.375 -36.078125 L 8.4375 -35.765625 C 8.5 -35.472656 8.632812 -35.0625 8.84375 -34.53125 C 9.0625 -34.007812 9.46875 -33.8125 10.0625 -33.9375 C 10.21875 -33.96875 10.367188 -34.007812 10.515625 -34.0625 C 10.671875 -34.113281 10.828125 -34.15625 10.984375 -34.1875 C 12.796875 -34.550781 14.3125 -34.617188 15.53125 -34.390625 C 16.757812 -34.171875 17.84375 -33.738281 18.78125 -33.09375 C 19.71875 -32.457031 20.597656 -31.71875 21.421875 -30.875 C 22.335938 -30.019531 23.015625 -29.265625 23.453125 -28.609375 C 23.898438 -27.953125 24.203125 -27.421875 24.359375 -27.015625 C 24.703125 -26.390625 25 -25.632812 25.25 -24.75 C 25.5 -23.863281 25.707031 -23.078125 25.875 -22.390625 C 26.039062 -21.703125 26.125 -21.359375 26.125 -21.359375 Z M 26.125 -21.359375 "/></g></g></g><g fill="#f5eded" fill-opacity="0.4"><g transform="translate(111.358992, 203.654268)"><g><path d="M 11.359375 -5.171875 C 11.585938 -3.953125 11.445312 -3.117188 10.9375 -2.671875 C 10.4375 -2.222656 9.894531 -1.945312 9.3125 -1.84375 L 6.484375 -1.296875 C 5.460938 -1.109375 4.539062 -0.945312 3.71875 -0.8125 C 2.90625 -0.675781 2.238281 -0.722656 1.71875 -0.953125 C 1.195312 -1.179688 0.859375 -1.710938 0.703125 -2.546875 C 0.628906 -2.890625 0.578125 -3.1875 0.546875 -3.4375 C 0.523438 -3.695312 0.484375 -3.992188 0.421875 -4.328125 C 0.335938 -4.796875 0.242188 -5.234375 0.140625 -5.640625 C 0.0351562 -6.054688 -0.0546875 -6.492188 -0.140625 -6.953125 C -0.203125 -7.296875 -0.257812 -7.613281 -0.3125 -7.90625 C -0.375 -8.207031 -0.410156 -8.507812 -0.421875 -8.8125 C -0.441406 -9.144531 -0.46875 -9.539062 -0.5 -10 C -0.53125 -10.457031 -0.382812 -10.875 -0.0625 -11.25 C 0.257812 -11.632812 0.847656 -11.910156 1.703125 -12.078125 C 2.117188 -12.160156 2.492188 -12.222656 2.828125 -12.265625 C 3.171875 -12.304688 3.550781 -12.363281 3.96875 -12.4375 C 4.601562 -12.5625 5.171875 -12.679688 5.671875 -12.796875 C 6.171875 -12.910156 6.753906 -13.035156 7.421875 -13.171875 C 8.304688 -13.335938 8.929688 -13.253906 9.296875 -12.921875 C 9.660156 -12.597656 9.90625 -12.15625 10.03125 -11.59375 C 10.164062 -11.03125 10.28125 -10.5 10.375 -10 C 10.476562 -9.457031 10.554688 -8.972656 10.609375 -8.546875 C 10.671875 -8.117188 10.753906 -7.628906 10.859375 -7.078125 C 10.921875 -6.742188 11.003906 -6.425781 11.109375 -6.125 C 11.210938 -5.820312 11.296875 -5.503906 11.359375 -5.171875 Z M 11.359375 -5.171875 "/></g></g></g><g fill="#f5eded" fill-opacity="0.4"><g transform="translate(124.178421, 201.15444)"><g><path d="M 25.34375 -28.796875 C 25.539062 -27.648438 25.726562 -26.625 25.90625 -25.71875 C 26.09375 -24.820312 26.242188 -23.800781 26.359375 -22.65625 C 26.472656 -21.800781 26.5625 -20.695312 26.625 -19.34375 C 26.6875 -17.988281 26.707031 -16.625 26.6875 -15.25 C 26.675781 -13.882812 26.554688 -12.742188 26.328125 -11.828125 C 26.140625 -10.878906 25.878906 -10.054688 25.546875 -9.359375 C 25.210938 -8.671875 24.914062 -8.113281 24.65625 -7.6875 C 23.78125 -6.40625 22.632812 -5.285156 21.21875 -4.328125 C 19.800781 -3.378906 17.875 -2.691406 15.4375 -2.265625 C 13.113281 -1.859375 11.054688 -1.929688 9.265625 -2.484375 C 7.472656 -3.046875 6.019531 -3.765625 4.90625 -4.640625 C 3.738281 -5.617188 2.691406 -7.128906 1.765625 -9.171875 C 0.835938 -11.222656 0.015625 -13.679688 -0.703125 -16.546875 C -0.890625 -17.347656 -1.035156 -18.054688 -1.140625 -18.671875 C -1.253906 -19.285156 -1.40625 -19.988281 -1.59375 -20.78125 C -1.75 -21.394531 -1.878906 -21.953125 -1.984375 -22.453125 C -2.097656 -22.953125 -2.210938 -23.515625 -2.328125 -24.140625 C -2.390625 -24.523438 -2.472656 -25.226562 -2.578125 -26.25 C -2.691406 -27.28125 -2.804688 -28.414062 -2.921875 -29.65625 C -3.035156 -30.894531 -3.117188 -32.03125 -3.171875 -33.0625 C -3.222656 -34.101562 -3.242188 -34.816406 -3.234375 -35.203125 C -3.179688 -36.117188 -3.050781 -36.976562 -2.84375 -37.78125 C -2.632812 -38.582031 -2.46875 -39.144531 -2.34375 -39.46875 C -1.707031 -41.488281 -0.617188 -43.285156 0.921875 -44.859375 C 2.472656 -46.441406 4.828125 -47.515625 7.984375 -48.078125 C 11.066406 -48.617188 13.59375 -48.410156 15.5625 -47.453125 C 17.53125 -46.503906 19.128906 -45.050781 20.359375 -43.09375 C 21.597656 -41.132812 22.601562 -38.945312 23.375 -36.53125 C 23.894531 -34.875 24.316406 -33.367188 24.640625 -32.015625 C 24.960938 -30.660156 25.179688 -29.6875 25.296875 -29.09375 Z M 13.390625 -30.796875 C 13.203125 -31.835938 12.960938 -32.851562 12.671875 -33.84375 C 12.390625 -34.832031 12.015625 -35.625 11.546875 -36.21875 C 11.078125 -36.8125 10.460938 -37.039062 9.703125 -36.90625 L 9.5625 -36.890625 C 9.40625 -36.859375 9.242188 -36.78125 9.078125 -36.65625 C 8.921875 -36.539062 8.789062 -36.429688 8.6875 -36.328125 C 8.25 -35.867188 7.984375 -35.203125 7.890625 -34.328125 C 7.804688 -33.460938 7.804688 -32.601562 7.890625 -31.75 C 7.984375 -30.90625 8.0625 -30.296875 8.125 -29.921875 C 8.195312 -29.535156 8.273438 -29.15625 8.359375 -28.78125 C 8.453125 -28.40625 8.53125 -28.03125 8.59375 -27.65625 C 8.675781 -27.1875 8.726562 -26.75 8.75 -26.34375 C 8.78125 -25.945312 8.835938 -25.515625 8.921875 -25.046875 C 9.015625 -24.753906 9.101562 -24.441406 9.1875 -24.109375 C 9.269531 -23.773438 9.34375 -23.4375 9.40625 -23.09375 C 9.457031 -22.757812 9.488281 -22.453125 9.5 -22.171875 C 9.507812 -21.898438 9.539062 -21.59375 9.59375 -21.25 C 9.632812 -20.78125 9.691406 -20.34375 9.765625 -19.9375 C 9.835938 -19.539062 9.914062 -19.113281 10 -18.65625 C 10.144531 -17.8125 10.328125 -17.054688 10.546875 -16.390625 C 10.773438 -15.734375 10.960938 -15.265625 11.109375 -14.984375 C 11.160156 -14.921875 11.257812 -14.695312 11.40625 -14.3125 C 11.5625 -13.925781 11.828125 -13.585938 12.203125 -13.296875 C 12.578125 -13.015625 13.0625 -12.925781 13.65625 -13.03125 C 14.15625 -13.125 14.5 -13.289062 14.6875 -13.53125 C 15.132812 -14.144531 15.375 -14.953125 15.40625 -15.953125 C 15.445312 -16.960938 15.40625 -17.960938 15.28125 -18.953125 C 15.15625 -19.953125 15.050781 -20.679688 14.96875 -21.140625 C 14.789062 -22.160156 14.617188 -23.078125 14.453125 -23.890625 C 14.285156 -24.710938 14.128906 -25.65625 13.984375 -26.71875 C 13.890625 -27.476562 13.800781 -28.15625 13.71875 -28.75 C 13.632812 -29.351562 13.523438 -30.035156 13.390625 -30.796875 Z M 13.390625 -30.796875 "/></g></g></g><g fill="#f5eded" fill-opacity="0.4"><g transform="translate(155.374635, 195.630494)"><g><path d="M 25.84375 -28.328125 C 26.03125 -27.179688 26.203125 -26.15625 26.359375 -25.25 C 26.523438 -24.351562 26.660156 -23.332031 26.765625 -22.1875 C 26.859375 -21.320312 26.925781 -20.210938 26.96875 -18.859375 C 27.007812 -17.503906 27.003906 -16.140625 26.953125 -14.765625 C 26.910156 -13.390625 26.769531 -12.25 26.53125 -11.34375 C 26.332031 -10.40625 26.0625 -9.59375 25.71875 -8.90625 C 25.375 -8.226562 25.0625 -7.664062 24.78125 -7.21875 C 23.894531 -5.96875 22.734375 -4.878906 21.296875 -3.953125 C 19.867188 -3.023438 17.929688 -2.367188 15.484375 -1.984375 C 13.148438 -1.617188 11.09375 -1.726562 9.3125 -2.3125 C 7.53125 -2.90625 6.09375 -3.648438 5 -4.546875 C 3.84375 -5.546875 2.816406 -7.078125 1.921875 -9.140625 C 1.035156 -11.210938 0.257812 -13.6875 -0.40625 -16.5625 C -0.582031 -17.351562 -0.71875 -18.054688 -0.8125 -18.671875 C -0.90625 -19.296875 -1.046875 -20.007812 -1.234375 -20.8125 C -1.367188 -21.425781 -1.488281 -21.984375 -1.59375 -22.484375 C -1.695312 -22.992188 -1.796875 -23.5625 -1.890625 -24.1875 C -1.953125 -24.5625 -2.03125 -25.257812 -2.125 -26.28125 C -2.21875 -27.3125 -2.304688 -28.445312 -2.390625 -29.6875 C -2.484375 -30.9375 -2.546875 -32.078125 -2.578125 -33.109375 C -2.609375 -34.148438 -2.613281 -34.867188 -2.59375 -35.265625 C -2.53125 -36.179688 -2.382812 -37.035156 -2.15625 -37.828125 C -1.9375 -38.617188 -1.765625 -39.175781 -1.640625 -39.5 C -0.972656 -41.507812 0.144531 -43.289062 1.71875 -44.84375 C 3.300781 -46.394531 5.675781 -47.425781 8.84375 -47.9375 C 11.925781 -48.425781 14.441406 -48.171875 16.390625 -47.171875 C 18.347656 -46.179688 19.925781 -44.695312 21.125 -42.71875 C 22.332031 -40.738281 23.304688 -38.53125 24.046875 -36.09375 C 24.523438 -34.445312 24.910156 -32.941406 25.203125 -31.578125 C 25.503906 -30.210938 25.703125 -29.234375 25.796875 -28.640625 Z M 13.9375 -30.546875 C 13.769531 -31.597656 13.550781 -32.617188 13.28125 -33.609375 C 13.019531 -34.597656 12.65625 -35.394531 12.1875 -36 C 11.726562 -36.613281 11.117188 -36.859375 10.359375 -36.734375 L 10.21875 -36.71875 C 10.0625 -36.6875 9.90625 -36.613281 9.75 -36.5 C 9.59375 -36.382812 9.457031 -36.273438 9.34375 -36.171875 C 8.90625 -35.703125 8.628906 -35.035156 8.515625 -34.171875 C 8.410156 -33.316406 8.394531 -32.460938 8.46875 -31.609375 C 8.539062 -30.753906 8.609375 -30.140625 8.671875 -29.765625 C 8.734375 -29.378906 8.800781 -29 8.875 -28.625 C 8.957031 -28.25 9.03125 -27.875 9.09375 -27.5 C 9.164062 -27.03125 9.210938 -26.59375 9.234375 -26.1875 C 9.265625 -25.78125 9.316406 -25.347656 9.390625 -24.890625 C 9.472656 -24.585938 9.550781 -24.269531 9.625 -23.9375 C 9.695312 -23.601562 9.765625 -23.265625 9.828125 -22.921875 C 9.878906 -22.585938 9.90625 -22.28125 9.90625 -22 C 9.90625 -21.71875 9.929688 -21.410156 9.984375 -21.078125 C 10.015625 -20.597656 10.0625 -20.15625 10.125 -19.75 C 10.1875 -19.351562 10.253906 -18.925781 10.328125 -18.46875 C 10.460938 -17.625 10.632812 -16.867188 10.84375 -16.203125 C 11.050781 -15.546875 11.226562 -15.078125 11.375 -14.796875 C 11.425781 -14.710938 11.523438 -14.476562 11.671875 -14.09375 C 11.816406 -13.707031 12.070312 -13.367188 12.4375 -13.078125 C 12.8125 -12.796875 13.296875 -12.695312 13.890625 -12.78125 C 14.390625 -12.863281 14.734375 -13.023438 14.921875 -13.265625 C 15.378906 -13.867188 15.640625 -14.671875 15.703125 -15.671875 C 15.765625 -16.679688 15.738281 -17.6875 15.625 -18.6875 C 15.507812 -19.6875 15.414062 -20.421875 15.34375 -20.890625 C 15.175781 -21.898438 15.019531 -22.8125 14.875 -23.625 C 14.726562 -24.445312 14.585938 -25.394531 14.453125 -26.46875 C 14.367188 -27.226562 14.289062 -27.90625 14.21875 -28.5 C 14.144531 -29.101562 14.050781 -29.785156 13.9375 -30.546875 Z M 13.9375 -30.546875 "/></g></g></g><g fill="#f5eded" fill-opacity="0.4"><g transform="translate(186.665185, 190.668609)"><g><path d="M 26.359375 -27.859375 C 26.515625 -26.710938 26.664062 -25.6875 26.8125 -24.78125 C 26.957031 -23.875 27.070312 -22.84375 27.15625 -21.6875 C 27.238281 -20.832031 27.285156 -19.722656 27.296875 -18.359375 C 27.316406 -17.003906 27.289062 -15.644531 27.21875 -14.28125 C 27.15625 -12.914062 26.992188 -11.78125 26.734375 -10.875 C 26.515625 -9.9375 26.226562 -9.128906 25.875 -8.453125 C 25.519531 -7.773438 25.195312 -7.21875 24.90625 -6.78125 C 24 -5.539062 22.816406 -4.46875 21.359375 -3.5625 C 19.910156 -2.664062 17.957031 -2.046875 15.5 -1.703125 C 13.175781 -1.378906 11.128906 -1.53125 9.359375 -2.15625 C 7.585938 -2.78125 6.160156 -3.550781 5.078125 -4.46875 C 3.941406 -5.476562 2.941406 -7.023438 2.078125 -9.109375 C 1.222656 -11.191406 0.492188 -13.675781 -0.109375 -16.5625 C -0.265625 -17.363281 -0.382812 -18.070312 -0.46875 -18.6875 C -0.550781 -19.3125 -0.675781 -20.019531 -0.84375 -20.8125 C -0.976562 -21.445312 -1.085938 -22.015625 -1.171875 -22.515625 C -1.265625 -23.023438 -1.359375 -23.59375 -1.453125 -24.21875 C -1.503906 -24.601562 -1.566406 -25.304688 -1.640625 -26.328125 C -1.710938 -27.359375 -1.785156 -28.492188 -1.859375 -29.734375 C -1.929688 -30.984375 -1.972656 -32.125 -1.984375 -33.15625 C -2.003906 -34.195312 -2 -34.910156 -1.96875 -35.296875 C -1.882812 -36.210938 -1.722656 -37.066406 -1.484375 -37.859375 C -1.253906 -38.648438 -1.070312 -39.207031 -0.9375 -39.53125 C -0.226562 -41.53125 0.925781 -43.289062 2.53125 -44.8125 C 4.132812 -46.332031 6.523438 -47.316406 9.703125 -47.765625 C 12.796875 -48.203125 15.3125 -47.90625 17.25 -46.875 C 19.1875 -45.84375 20.734375 -44.328125 21.890625 -42.328125 C 23.054688 -40.328125 23.988281 -38.101562 24.6875 -35.65625 C 25.144531 -34 25.507812 -32.484375 25.78125 -31.109375 C 26.050781 -29.742188 26.226562 -28.765625 26.3125 -28.171875 Z M 14.5 -30.296875 C 14.34375 -31.347656 14.140625 -32.375 13.890625 -33.375 C 13.640625 -34.375 13.285156 -35.175781 12.828125 -35.78125 C 12.378906 -36.394531 11.773438 -36.648438 11.015625 -36.546875 L 10.875 -36.53125 C 10.707031 -36.5 10.546875 -36.425781 10.390625 -36.3125 C 10.242188 -36.207031 10.113281 -36.101562 10 -36 C 9.539062 -35.539062 9.25 -34.882812 9.125 -34.03125 C 9.007812 -33.175781 8.976562 -32.316406 9.03125 -31.453125 C 9.09375 -30.597656 9.148438 -29.984375 9.203125 -29.609375 C 9.253906 -29.222656 9.316406 -28.84375 9.390625 -28.46875 C 9.460938 -28.09375 9.53125 -27.710938 9.59375 -27.328125 C 9.65625 -26.867188 9.691406 -26.429688 9.703125 -26.015625 C 9.722656 -25.609375 9.765625 -25.175781 9.828125 -24.71875 C 9.910156 -24.414062 9.984375 -24.097656 10.046875 -23.765625 C 10.117188 -23.429688 10.179688 -23.09375 10.234375 -22.75 C 10.273438 -22.40625 10.296875 -22.09375 10.296875 -21.8125 C 10.296875 -21.539062 10.316406 -21.234375 10.359375 -20.890625 C 10.378906 -20.421875 10.414062 -19.984375 10.46875 -19.578125 C 10.53125 -19.171875 10.59375 -18.738281 10.65625 -18.28125 C 10.78125 -17.4375 10.941406 -16.679688 11.140625 -16.015625 C 11.335938 -15.347656 11.503906 -14.867188 11.640625 -14.578125 C 11.691406 -14.503906 11.785156 -14.269531 11.921875 -13.875 C 12.054688 -13.488281 12.304688 -13.148438 12.671875 -12.859375 C 13.046875 -12.566406 13.523438 -12.460938 14.109375 -12.546875 C 14.617188 -12.609375 14.96875 -12.757812 15.15625 -13 C 15.625 -13.59375 15.894531 -14.390625 15.96875 -15.390625 C 16.050781 -16.390625 16.046875 -17.390625 15.953125 -18.390625 C 15.867188 -19.398438 15.789062 -20.140625 15.71875 -20.609375 C 15.582031 -21.628906 15.441406 -22.546875 15.296875 -23.359375 C 15.160156 -24.179688 15.039062 -25.128906 14.9375 -26.203125 C 14.875 -26.972656 14.8125 -27.65625 14.75 -28.25 C 14.6875 -28.84375 14.601562 -29.523438 14.5 -30.296875 Z M 14.5 -30.296875 "/></g></g></g><g fill="#f5eded" fill-opacity="1"><g transform="translate(76.91032, 207.618157)"><g><path d="M 26.125 -21.359375 C 26.132812 -21.273438 26.1875 -20.707031 26.28125 -19.65625 C 26.382812 -18.601562 26.425781 -17.382812 26.40625 -16 C 26.382812 -14.625 26.164062 -13.328125 25.75 -12.109375 C 25.382812 -10.984375 24.785156 -9.769531 23.953125 -8.46875 C 23.117188 -7.164062 22 -5.988281 20.59375 -4.9375 C 19.195312 -3.894531 17.453125 -3.160156 15.359375 -2.734375 C 14.816406 -2.617188 14.34375 -2.539062 13.9375 -2.5 C 13.53125 -2.46875 13.210938 -2.453125 12.984375 -2.453125 C 12.085938 -2.390625 11.296875 -2.351562 10.609375 -2.34375 C 9.929688 -2.34375 9.257812 -2.4375 8.59375 -2.625 C 7.925781 -2.8125 7.070312 -3.109375 6.03125 -3.515625 C 5.601562 -3.691406 5.097656 -3.914062 4.515625 -4.1875 C 3.929688 -4.457031 3.21875 -4.96875 2.375 -5.71875 C 1.6875 -6.3125 1.222656 -6.804688 0.984375 -7.203125 C 0.753906 -7.597656 0.613281 -7.941406 0.5625 -8.234375 C 0.382812 -9.066406 0.492188 -9.722656 0.890625 -10.203125 C 1.296875 -10.679688 1.628906 -11.050781 1.890625 -11.3125 C 2.242188 -11.75 2.535156 -12.148438 2.765625 -12.515625 C 2.992188 -12.878906 3.257812 -13.269531 3.5625 -13.6875 C 3.738281 -13.9375 3.867188 -14.171875 3.953125 -14.390625 C 4.035156 -14.609375 4.164062 -14.816406 4.34375 -15.015625 C 4.738281 -15.410156 5.144531 -15.65625 5.5625 -15.75 C 6.164062 -15.820312 6.664062 -15.625 7.0625 -15.15625 C 7.46875 -14.695312 7.695312 -14.425781 7.75 -14.34375 C 8.007812 -14.164062 8.144531 -14.046875 8.15625 -13.984375 C 8.164062 -13.929688 8.34375 -13.828125 8.6875 -13.671875 C 9.3125 -13.367188 9.851562 -13.207031 10.3125 -13.1875 C 10.769531 -13.175781 11.253906 -13.222656 11.765625 -13.328125 C 13.140625 -13.609375 14.035156 -14.320312 14.453125 -15.46875 C 14.878906 -16.625 14.988281 -17.726562 14.78125 -18.78125 C 14.476562 -20.25 13.972656 -21.328125 13.265625 -22.015625 C 12.566406 -22.703125 11.804688 -23.125 10.984375 -23.28125 C 10.171875 -23.445312 9.40625 -23.492188 8.6875 -23.421875 C 7.976562 -23.347656 7.457031 -23.273438 7.125 -23.203125 C 6.625 -23.097656 6.289062 -22.984375 6.125 -22.859375 C 5.957031 -22.734375 5.707031 -22.59375 5.375 -22.4375 C 5.15625 -22.3125 4.976562 -22.15625 4.84375 -21.96875 C 4.707031 -21.789062 4.507812 -21.675781 4.25 -21.625 C 3.957031 -21.519531 3.523438 -21.597656 2.953125 -21.859375 C 2.378906 -22.117188 1.957031 -22.367188 1.6875 -22.609375 C 1.582031 -22.679688 1.5 -22.816406 1.4375 -23.015625 C 1.375 -23.222656 1.328125 -23.390625 1.296875 -23.515625 L 1.03125 -24.828125 C 0.738281 -26.253906 0.507812 -27.53125 0.34375 -28.65625 C 0.1875 -29.789062 -0.03125 -31.046875 -0.3125 -32.421875 C -0.46875 -33.179688 -0.613281 -33.859375 -0.75 -34.453125 C -0.894531 -35.054688 -1.039062 -35.71875 -1.1875 -36.4375 C -1.269531 -36.851562 -1.332031 -37.222656 -1.375 -37.546875 C -1.425781 -37.867188 -1.472656 -38.238281 -1.515625 -38.65625 C -1.585938 -39.25 -1.664062 -39.765625 -1.75 -40.203125 C -1.84375 -40.640625 -1.945312 -41.132812 -2.0625 -41.6875 C -2.113281 -41.9375 -2.171875 -42.164062 -2.234375 -42.375 C -2.296875 -42.582031 -2.351562 -42.804688 -2.40625 -43.046875 L -2.421875 -43.109375 C -2.566406 -43.828125 -2.40625 -44.492188 -1.9375 -45.109375 C -1.476562 -45.734375 -0.914062 -46.117188 -0.25 -46.265625 C 0.132812 -46.335938 0.476562 -46.378906 0.78125 -46.390625 C 1.082031 -46.398438 1.445312 -46.453125 1.875 -46.546875 C 2.664062 -46.703125 3.378906 -46.832031 4.015625 -46.9375 C 4.648438 -47.050781 5.359375 -47.207031 6.140625 -47.40625 C 6.722656 -47.53125 7.25 -47.664062 7.71875 -47.8125 C 8.195312 -47.957031 8.726562 -48.085938 9.3125 -48.203125 C 9.863281 -48.316406 10.335938 -48.398438 10.734375 -48.453125 C 11.140625 -48.515625 11.59375 -48.597656 12.09375 -48.703125 L 15.296875 -49.359375 C 15.515625 -49.398438 15.710938 -49.457031 15.890625 -49.53125 C 16.078125 -49.613281 16.296875 -49.679688 16.546875 -49.734375 C 17.171875 -49.859375 17.628906 -49.765625 17.921875 -49.453125 C 18.222656 -49.140625 18.429688 -48.804688 18.546875 -48.453125 C 18.671875 -48.109375 18.738281 -47.921875 18.75 -47.890625 C 18.832031 -47.460938 18.894531 -47.085938 18.9375 -46.765625 C 18.976562 -46.453125 19.039062 -46.082031 19.125 -45.65625 C 19.226562 -45.113281 19.34375 -44.601562 19.46875 -44.125 C 19.59375 -43.644531 19.71875 -43.117188 19.84375 -42.546875 C 20 -41.742188 20.007812 -41.125 19.875 -40.6875 C 19.75 -40.25 19.375 -39.96875 18.75 -39.84375 C 17.40625 -39.5625 16.179688 -39.332031 15.078125 -39.15625 C 13.984375 -38.976562 12.765625 -38.753906 11.421875 -38.484375 C 10.796875 -38.347656 10.210938 -38.210938 9.671875 -38.078125 C 9.128906 -37.953125 8.773438 -37.785156 8.609375 -37.578125 C 8.429688 -37.359375 8.332031 -37.125 8.3125 -36.875 C 8.300781 -36.632812 8.320312 -36.367188 8.375 -36.078125 L 8.4375 -35.765625 C 8.5 -35.472656 8.632812 -35.0625 8.84375 -34.53125 C 9.0625 -34.007812 9.46875 -33.8125 10.0625 -33.9375 C 10.21875 -33.96875 10.367188 -34.007812 10.515625 -34.0625 C 10.671875 -34.113281 10.828125 -34.15625 10.984375 -34.1875 C 12.796875 -34.550781 14.3125 -34.617188 15.53125 -34.390625 C 16.757812 -34.171875 17.84375 -33.738281 18.78125 -33.09375 C 19.71875 -32.457031 20.597656 -31.71875 21.421875 -30.875 C 22.335938 -30.019531 23.015625 -29.265625 23.453125 -28.609375 C 23.898438 -27.953125 24.203125 -27.421875 24.359375 -27.015625 C 24.703125 -26.390625 25 -25.632812 25.25 -24.75 C 25.5 -23.863281 25.707031 -23.078125 25.875 -22.390625 C 26.039062 -21.703125 26.125 -21.359375 26.125 -21.359375 Z M 26.125 -21.359375 "/></g></g></g><g fill="#f5eded" fill-opacity="1"><g transform="translate(108.083778, 201.338183)"><g><path d="M 11.359375 -5.171875 C 11.585938 -3.953125 11.445312 -3.117188 10.9375 -2.671875 C 10.4375 -2.222656 9.894531 -1.945312 9.3125 -1.84375 L 6.484375 -1.296875 C 5.460938 -1.109375 4.539062 -0.945312 3.71875 -0.8125 C 2.90625 -0.675781 2.238281 -0.722656 1.71875 -0.953125 C 1.195312 -1.179688 0.859375 -1.710938 0.703125 -2.546875 C 0.628906 -2.890625 0.578125 -3.1875 0.546875 -3.4375 C 0.523438 -3.695312 0.484375 -3.992188 0.421875 -4.328125 C 0.335938 -4.796875 0.242188 -5.234375 0.140625 -5.640625 C 0.0351562 -6.054688 -0.0546875 -6.492188 -0.140625 -6.953125 C -0.203125 -7.296875 -0.257812 -7.613281 -0.3125 -7.90625 C -0.375 -8.207031 -0.410156 -8.507812 -0.421875 -8.8125 C -0.441406 -9.144531 -0.46875 -9.539062 -0.5 -10 C -0.53125 -10.457031 -0.382812 -10.875 -0.0625 -11.25 C 0.257812 -11.632812 0.847656 -11.910156 1.703125 -12.078125 C 2.117188 -12.160156 2.492188 -12.222656 2.828125 -12.265625 C 3.171875 -12.304688 3.550781 -12.363281 3.96875 -12.4375 C 4.601562 -12.5625 5.171875 -12.679688 5.671875 -12.796875 C 6.171875 -12.910156 6.753906 -13.035156 7.421875 -13.171875 C 8.304688 -13.335938 8.929688 -13.253906 9.296875 -12.921875 C 9.660156 -12.597656 9.90625 -12.15625 10.03125 -11.59375 C 10.164062 -11.03125 10.28125 -10.5 10.375 -10 C 10.476562 -9.457031 10.554688 -8.972656 10.609375 -8.546875 C 10.671875 -8.117188 10.753906 -7.628906 10.859375 -7.078125 C 10.921875 -6.742188 11.003906 -6.425781 11.109375 -6.125 C 11.210938 -5.820312 11.296875 -5.503906 11.359375 -5.171875 Z M 11.359375 -5.171875 "/></g></g></g><g fill="#f5eded" fill-opacity="1"><g transform="translate(120.903191, 198.838355)"><g><path d="M 25.34375 -28.796875 C 25.539062 -27.648438 25.726562 -26.625 25.90625 -25.71875 C 26.09375 -24.820312 26.242188 -23.800781 26.359375 -22.65625 C 26.472656 -21.800781 26.5625 -20.695312 26.625 -19.34375 C 26.6875 -17.988281 26.707031 -16.625 26.6875 -15.25 C 26.675781 -13.882812 26.554688 -12.742188 26.328125 -11.828125 C 26.140625 -10.878906 25.878906 -10.054688 25.546875 -9.359375 C 25.210938 -8.671875 24.914062 -8.113281 24.65625 -7.6875 C 23.78125 -6.40625 22.632812 -5.285156 21.21875 -4.328125 C 19.800781 -3.378906 17.875 -2.691406 15.4375 -2.265625 C 13.113281 -1.859375 11.054688 -1.929688 9.265625 -2.484375 C 7.472656 -3.046875 6.019531 -3.765625 4.90625 -4.640625 C 3.738281 -5.617188 2.691406 -7.128906 1.765625 -9.171875 C 0.835938 -11.222656 0.015625 -13.679688 -0.703125 -16.546875 C -0.890625 -17.347656 -1.035156 -18.054688 -1.140625 -18.671875 C -1.253906 -19.285156 -1.40625 -19.988281 -1.59375 -20.78125 C -1.75 -21.394531 -1.878906 -21.953125 -1.984375 -22.453125 C -2.097656 -22.953125 -2.210938 -23.515625 -2.328125 -24.140625 C -2.390625 -24.523438 -2.472656 -25.226562 -2.578125 -26.25 C -2.691406 -27.28125 -2.804688 -28.414062 -2.921875 -29.65625 C -3.035156 -30.894531 -3.117188 -32.03125 -3.171875 -33.0625 C -3.222656 -34.101562 -3.242188 -34.816406 -3.234375 -35.203125 C -3.179688 -36.117188 -3.050781 -36.976562 -2.84375 -37.78125 C -2.632812 -38.582031 -2.46875 -39.144531 -2.34375 -39.46875 C -1.707031 -41.488281 -0.617188 -43.285156 0.921875 -44.859375 C 2.472656 -46.441406 4.828125 -47.515625 7.984375 -48.078125 C 11.066406 -48.617188 13.59375 -48.410156 15.5625 -47.453125 C 17.53125 -46.503906 19.128906 -45.050781 20.359375 -43.09375 C 21.597656 -41.132812 22.601562 -38.945312 23.375 -36.53125 C 23.894531 -34.875 24.316406 -33.367188 24.640625 -32.015625 C 24.960938 -30.660156 25.179688 -29.6875 25.296875 -29.09375 Z M 13.390625 -30.796875 C 13.203125 -31.835938 12.960938 -32.851562 12.671875 -33.84375 C 12.390625 -34.832031 12.015625 -35.625 11.546875 -36.21875 C 11.078125 -36.8125 10.460938 -37.039062 9.703125 -36.90625 L 9.5625 -36.890625 C 9.40625 -36.859375 9.242188 -36.78125 9.078125 -36.65625 C 8.921875 -36.539062 8.789062 -36.429688 8.6875 -36.328125 C 8.25 -35.867188 7.984375 -35.203125 7.890625 -34.328125 C 7.804688 -33.460938 7.804688 -32.601562 7.890625 -31.75 C 7.984375 -30.90625 8.0625 -30.296875 8.125 -29.921875 C 8.195312 -29.535156 8.273438 -29.15625 8.359375 -28.78125 C 8.453125 -28.40625 8.53125 -28.03125 8.59375 -27.65625 C 8.675781 -27.1875 8.726562 -26.75 8.75 -26.34375 C 8.78125 -25.945312 8.835938 -25.515625 8.921875 -25.046875 C 9.015625 -24.753906 9.101562 -24.441406 9.1875 -24.109375 C 9.269531 -23.773438 9.34375 -23.4375 9.40625 -23.09375 C 9.457031 -22.757812 9.488281 -22.453125 9.5 -22.171875 C 9.507812 -21.898438 9.539062 -21.59375 9.59375 -21.25 C 9.632812 -20.78125 9.691406 -20.34375 9.765625 -19.9375 C 9.835938 -19.539062 9.914062 -19.113281 10 -18.65625 C 10.144531 -17.8125 10.328125 -17.054688 10.546875 -16.390625 C 10.773438 -15.734375 10.960938 -15.265625 11.109375 -14.984375 C 11.160156 -14.921875 11.257812 -14.695312 11.40625 -14.3125 C 11.5625 -13.925781 11.828125 -13.585938 12.203125 -13.296875 C 12.578125 -13.015625 13.0625 -12.925781 13.65625 -13.03125 C 14.15625 -13.125 14.5 -13.289062 14.6875 -13.53125 C 15.132812 -14.144531 15.375 -14.953125 15.40625 -15.953125 C 15.445312 -16.960938 15.40625 -17.960938 15.28125 -18.953125 C 15.15625 -19.953125 15.050781 -20.679688 14.96875 -21.140625 C 14.789062 -22.160156 14.617188 -23.078125 14.453125 -23.890625 C 14.285156 -24.710938 14.128906 -25.65625 13.984375 -26.71875 C 13.890625 -27.476562 13.800781 -28.15625 13.71875 -28.75 C 13.632812 -29.351562 13.523438 -30.035156 13.390625 -30.796875 Z M 13.390625 -30.796875 "/></g></g></g><g fill="#f5eded" fill-opacity="1"><g transform="translate(152.099421, 193.314406)"><g><path d="M 25.84375 -28.328125 C 26.03125 -27.179688 26.203125 -26.15625 26.359375 -25.25 C 26.523438 -24.351562 26.660156 -23.332031 26.765625 -22.1875 C 26.859375 -21.320312 26.925781 -20.210938 26.96875 -18.859375 C 27.007812 -17.503906 27.003906 -16.140625 26.953125 -14.765625 C 26.910156 -13.390625 26.769531 -12.25 26.53125 -11.34375 C 26.332031 -10.40625 26.0625 -9.59375 25.71875 -8.90625 C 25.375 -8.226562 25.0625 -7.664062 24.78125 -7.21875 C 23.894531 -5.96875 22.734375 -4.878906 21.296875 -3.953125 C 19.867188 -3.023438 17.929688 -2.367188 15.484375 -1.984375 C 13.148438 -1.617188 11.09375 -1.726562 9.3125 -2.3125 C 7.53125 -2.90625 6.09375 -3.648438 5 -4.546875 C 3.84375 -5.546875 2.816406 -7.078125 1.921875 -9.140625 C 1.035156 -11.210938 0.257812 -13.6875 -0.40625 -16.5625 C -0.582031 -17.351562 -0.71875 -18.054688 -0.8125 -18.671875 C -0.90625 -19.296875 -1.046875 -20.007812 -1.234375 -20.8125 C -1.367188 -21.425781 -1.488281 -21.984375 -1.59375 -22.484375 C -1.695312 -22.992188 -1.796875 -23.5625 -1.890625 -24.1875 C -1.953125 -24.5625 -2.03125 -25.257812 -2.125 -26.28125 C -2.21875 -27.3125 -2.304688 -28.445312 -2.390625 -29.6875 C -2.484375 -30.9375 -2.546875 -32.078125 -2.578125 -33.109375 C -2.609375 -34.148438 -2.613281 -34.867188 -2.59375 -35.265625 C -2.53125 -36.179688 -2.382812 -37.035156 -2.15625 -37.828125 C -1.9375 -38.617188 -1.765625 -39.175781 -1.640625 -39.5 C -0.972656 -41.507812 0.144531 -43.289062 1.71875 -44.84375 C 3.300781 -46.394531 5.675781 -47.425781 8.84375 -47.9375 C 11.925781 -48.425781 14.441406 -48.171875 16.390625 -47.171875 C 18.347656 -46.179688 19.925781 -44.695312 21.125 -42.71875 C 22.332031 -40.738281 23.304688 -38.53125 24.046875 -36.09375 C 24.523438 -34.445312 24.910156 -32.941406 25.203125 -31.578125 C 25.503906 -30.210938 25.703125 -29.234375 25.796875 -28.640625 Z M 13.9375 -30.546875 C 13.769531 -31.597656 13.550781 -32.617188 13.28125 -33.609375 C 13.019531 -34.597656 12.65625 -35.394531 12.1875 -36 C 11.726562 -36.613281 11.117188 -36.859375 10.359375 -36.734375 L 10.21875 -36.71875 C 10.0625 -36.6875 9.90625 -36.613281 9.75 -36.5 C 9.59375 -36.382812 9.457031 -36.273438 9.34375 -36.171875 C 8.90625 -35.703125 8.628906 -35.035156 8.515625 -34.171875 C 8.410156 -33.316406 8.394531 -32.460938 8.46875 -31.609375 C 8.539062 -30.753906 8.609375 -30.140625 8.671875 -29.765625 C 8.734375 -29.378906 8.800781 -29 8.875 -28.625 C 8.957031 -28.25 9.03125 -27.875 9.09375 -27.5 C 9.164062 -27.03125 9.210938 -26.59375 9.234375 -26.1875 C 9.265625 -25.78125 9.316406 -25.347656 9.390625 -24.890625 C 9.472656 -24.585938 9.550781 -24.269531 9.625 -23.9375 C 9.695312 -23.601562 9.765625 -23.265625 9.828125 -22.921875 C 9.878906 -22.585938 9.90625 -22.28125 9.90625 -22 C 9.90625 -21.71875 9.929688 -21.410156 9.984375 -21.078125 C 10.015625 -20.597656 10.0625 -20.15625 10.125 -19.75 C 10.1875 -19.351562 10.253906 -18.925781 10.328125 -18.46875 C 10.460938 -17.625 10.632812 -16.867188 10.84375 -16.203125 C 11.050781 -15.546875 11.226562 -15.078125 11.375 -14.796875 C 11.425781 -14.710938 11.523438 -14.476562 11.671875 -14.09375 C 11.816406 -13.707031 12.070312 -13.367188 12.4375 -13.078125 C 12.8125 -12.796875 13.296875 -12.695312 13.890625 -12.78125 C 14.390625 -12.863281 14.734375 -13.023438 14.921875 -13.265625 C 15.378906 -13.867188 15.640625 -14.671875 15.703125 -15.671875 C 15.765625 -16.679688 15.738281 -17.6875 15.625 -18.6875 C 15.507812 -19.6875 15.414062 -20.421875 15.34375 -20.890625 C 15.175781 -21.898438 15.019531 -22.8125 14.875 -23.625 C 14.726562 -24.445312 14.585938 -25.394531 14.453125 -26.46875 C 14.367188 -27.226562 14.289062 -27.90625 14.21875 -28.5 C 14.144531 -29.101562 14.050781 -29.785156 13.9375 -30.546875 Z M 13.9375 -30.546875 "/></g></g></g><g fill="#f5eded" fill-opacity="1"><g transform="translate(183.389954, 188.352509)"><g><path d="M 26.359375 -27.859375 C 26.515625 -26.710938 26.664062 -25.6875 26.8125 -24.78125 C 26.957031 -23.875 27.070312 -22.84375 27.15625 -21.6875 C 27.238281 -20.832031 27.285156 -19.722656 27.296875 -18.359375 C 27.316406 -17.003906 27.289062 -15.644531 27.21875 -14.28125 C 27.15625 -12.914062 26.992188 -11.78125 26.734375 -10.875 C 26.515625 -9.9375 26.226562 -9.128906 25.875 -8.453125 C 25.519531 -7.773438 25.195312 -7.21875 24.90625 -6.78125 C 24 -5.539062 22.816406 -4.46875 21.359375 -3.5625 C 19.910156 -2.664062 17.957031 -2.046875 15.5 -1.703125 C 13.175781 -1.378906 11.128906 -1.53125 9.359375 -2.15625 C 7.585938 -2.78125 6.160156 -3.550781 5.078125 -4.46875 C 3.941406 -5.476562 2.941406 -7.023438 2.078125 -9.109375 C 1.222656 -11.191406 0.492188 -13.675781 -0.109375 -16.5625 C -0.265625 -17.363281 -0.382812 -18.070312 -0.46875 -18.6875 C -0.550781 -19.3125 -0.675781 -20.019531 -0.84375 -20.8125 C -0.976562 -21.445312 -1.085938 -22.015625 -1.171875 -22.515625 C -1.265625 -23.023438 -1.359375 -23.59375 -1.453125 -24.21875 C -1.503906 -24.601562 -1.566406 -25.304688 -1.640625 -26.328125 C -1.710938 -27.359375 -1.785156 -28.492188 -1.859375 -29.734375 C -1.929688 -30.984375 -1.972656 -32.125 -1.984375 -33.15625 C -2.003906 -34.195312 -2 -34.910156 -1.96875 -35.296875 C -1.882812 -36.210938 -1.722656 -37.066406 -1.484375 -37.859375 C -1.253906 -38.648438 -1.070312 -39.207031 -0.9375 -39.53125 C -0.226562 -41.53125 0.925781 -43.289062 2.53125 -44.8125 C 4.132812 -46.332031 6.523438 -47.316406 9.703125 -47.765625 C 12.796875 -48.203125 15.3125 -47.90625 17.25 -46.875 C 19.1875 -45.84375 20.734375 -44.328125 21.890625 -42.328125 C 23.054688 -40.328125 23.988281 -38.101562 24.6875 -35.65625 C 25.144531 -34 25.507812 -32.484375 25.78125 -31.109375 C 26.050781 -29.742188 26.226562 -28.765625 26.3125 -28.171875 Z M 14.5 -30.296875 C 14.34375 -31.347656 14.140625 -32.375 13.890625 -33.375 C 13.640625 -34.375 13.285156 -35.175781 12.828125 -35.78125 C 12.378906 -36.394531 11.773438 -36.648438 11.015625 -36.546875 L 10.875 -36.53125 C 10.707031 -36.5 10.546875 -36.425781 10.390625 -36.3125 C 10.242188 -36.207031 10.113281 -36.101562 10 -36 C 9.539062 -35.539062 9.25 -34.882812 9.125 -34.03125 C 9.007812 -33.175781 8.976562 -32.316406 9.03125 -31.453125 C 9.09375 -30.597656 9.148438 -29.984375 9.203125 -29.609375 C 9.253906 -29.222656 9.316406 -28.84375 9.390625 -28.46875 C 9.460938 -28.09375 9.53125 -27.710938 9.59375 -27.328125 C 9.65625 -26.867188 9.691406 -26.429688 9.703125 -26.015625 C 9.722656 -25.609375 9.765625 -25.175781 9.828125 -24.71875 C 9.910156 -24.414062 9.984375 -24.097656 10.046875 -23.765625 C 10.117188 -23.429688 10.179688 -23.09375 10.234375 -22.75 C 10.273438 -22.40625 10.296875 -22.09375 10.296875 -21.8125 C 10.296875 -21.539062 10.316406 -21.234375 10.359375 -20.890625 C 10.378906 -20.421875 10.414062 -19.984375 10.46875 -19.578125 C 10.53125 -19.171875 10.59375 -18.738281 10.65625 -18.28125 C 10.78125 -17.4375 10.941406 -16.679688 11.140625 -16.015625 C 11.335938 -15.347656 11.503906 -14.867188 11.640625 -14.578125 C 11.691406 -14.503906 11.785156 -14.269531 11.921875 -13.875 C 12.054688 -13.488281 12.304688 -13.148438 12.671875 -12.859375 C 13.046875 -12.566406 13.523438 -12.460938 14.109375 -12.546875 C 14.617188 -12.609375 14.96875 -12.757812 15.15625 -13 C 15.625 -13.59375 15.894531 -14.390625 15.96875 -15.390625 C 16.050781 -16.390625 16.046875 -17.390625 15.953125 -18.390625 C 15.867188 -19.398438 15.789062 -20.140625 15.71875 -20.609375 C 15.582031 -21.628906 15.441406 -22.546875 15.296875 -23.359375 C 15.160156 -24.179688 15.039062 -25.128906 14.9375 -26.203125 C 14.875 -26.972656 14.8125 -27.65625 14.75 -28.25 C 14.6875 -28.84375 14.601562 -29.523438 14.5 -30.296875 Z M 14.5 -30.296875 "/></g></g></g></svg>